<svg width="20" height="21" viewBox="0 0 20 21" fill="none" xmlns="http://www.w3.org/2000/svg">
<path id="Vector" d="M6.43225 19.5428H1.82228C1.61851 19.5428 1.42308 19.457 1.27899 19.3042C1.1349 19.1514 1.05396 18.9442 1.05396 18.7282V14.1776C1.05396 14.0706 1.07383 13.9646 1.11244 13.8658C1.15105 13.767 1.20765 13.6772 1.27899 13.6015L12.8039 1.38143C12.948 1.22865 13.1434 1.14282 13.3472 1.14282C13.551 1.14282 13.7464 1.22865 13.8905 1.38143L18.1822 5.93202C18.3263 6.0848 18.4072 6.29201 18.4072 6.50808C18.4072 6.72414 18.3263 6.93135 18.1822 7.08414L6.43225 19.5428Z" stroke="#353535" stroke-width="2" stroke-linecap="round" stroke-linejoin="round"/>
</svg>
