<svg width="12" height="22" viewBox="0 0 12 22" fill="none" xmlns="http://www.w3.org/2000/svg">
<path id="Vector" d="M11.2 11.71L2.20001 20.71C2.10961 20.814 1.99869 20.8982 1.87421 20.9573C1.74973 21.0164 1.61439 21.0491 1.47666 21.0534C1.33893 21.0578 1.2018 21.0336 1.07386 20.9824C0.945928 20.9312 0.829951 20.8541 0.733209 20.756C0.636467 20.6579 0.561048 20.5408 0.511684 20.4122C0.462321 20.2835 0.440077 20.1461 0.446349 20.0084C0.452622 19.8708 0.487274 19.7359 0.548134 19.6123C0.608993 19.4886 0.694746 19.3789 0.800011 19.29L9.08001 11L0.780011 2.71C0.686772 2.61676 0.612811 2.50607 0.562351 2.38425C0.51189 2.26243 0.485919 2.13186 0.485919 2C0.485919 1.7337 0.591707 1.4783 0.780011 1.29C0.968314 1.1017 1.22371 0.995908 1.49001 0.995908C1.62187 0.995908 1.75244 1.02188 1.87426 1.07234C1.99608 1.1228 2.10677 1.19676 2.20001 1.29L11.2 10.29C11.2937 10.383 11.3681 10.4936 11.4189 10.6154C11.4697 10.7373 11.4958 10.868 11.4958 11C11.4958 11.132 11.4697 11.2627 11.4189 11.3846C11.3681 11.5064 11.2937 11.617 11.2 11.71Z" fill="white"/>
</svg>
