<svg width="20" height="20" viewBox="0 0 20 20" fill="none" xmlns="http://www.w3.org/2000/svg">
<path d="M19.7556 10.566L12.2558 17.7654C12.1393 17.8774 11.9908 17.9537 11.829 17.9846C11.6673 18.0155 11.4997 17.9997 11.3473 17.9391C11.195 17.8785 11.0648 17.7758 10.9732 17.6442C10.8817 17.5125 10.8328 17.3577 10.833 17.1994V10.7999H0.833306C0.6123 10.7999 0.400345 10.7157 0.24407 10.5656C0.0877947 10.4156 0 10.2122 0 10C0 9.78784 0.0877947 9.58438 0.24407 9.43436C0.400345 9.28434 0.6123 9.20006 0.833306 9.20006H10.833V2.80057C10.8328 2.64226 10.8817 2.48748 10.9732 2.35582C11.0648 2.22415 11.195 2.12152 11.3473 2.06093C11.4997 2.00033 11.6673 1.98449 11.829 2.01541C11.9908 2.04632 12.1393 2.12261 12.2558 2.23461L19.7556 9.43404C19.8331 9.50834 19.8945 9.59656 19.9365 9.69367C19.9784 9.79078 20 9.89488 20 10C20 10.1051 19.9784 10.2092 19.9365 10.3063C19.8945 10.4034 19.8331 10.4917 19.7556 10.566Z" fill="#141414"/>
</svg>
