<svg width="23" height="20" viewBox="0 0 23 20" fill="none" xmlns="http://www.w3.org/2000/svg">
<g clip-path="url(#clip0_18_7)">
<path d="M11.25 0C8.53164 0 6.32812 2.20352 6.32812 4.92188C6.32812 7.11953 9.54492 11.125 10.7773 12.5789C11.027 12.8734 11.4734 12.8734 11.7227 12.5789C12.9551 11.125 16.1719 7.11953 16.1719 4.92188C16.1719 2.20352 13.9684 0 11.25 0ZM0.785938 8.43555C0.553976 8.52832 0.355129 8.68847 0.215043 8.89533C0.0749565 9.10218 5.5555e-05 9.34627 0 9.59609L0 19.3742C0 19.8164 0.446484 20.1187 0.857031 19.9547L6.25 17.5V8.39531C5.90469 7.77109 5.62227 7.16328 5.41992 6.58203L0.785938 8.43555ZM11.25 14.0496C10.7004 14.0496 10.1805 13.8082 9.82383 13.3871C9.05586 12.4809 8.23906 11.4488 7.5 10.3902V17.4996L15 19.9996V10.3906C14.2609 11.4488 13.4445 12.4813 12.6762 13.3875C12.3195 13.8082 11.7996 14.0496 11.25 14.0496ZM21.643 6.29531L16.25 8.75V20L21.7141 17.8145C21.9461 17.7217 22.1449 17.5616 22.285 17.3547C22.4251 17.1479 22.5 16.9037 22.5 16.6539V6.87578C22.5 6.43359 22.0535 6.13125 21.643 6.29531Z" fill="white"/>
</g>
<defs>
<clipPath id="clip0_18_7">
<rect width="22.5" height="20" fill="white"/>
</clipPath>
</defs>
</svg>
