<svg width="192" height="192" viewBox="0 0 192 192" fill="none" xmlns="http://www.w3.org/2000/svg">
<rect width="192" height="192" rx="96" fill="white"/>
<g clip-path="url(#clip0_30_43)">
<path d="M63.3894 147.08C63.5064 147.146 63.6023 147.247 63.6652 147.371C63.728 147.495 63.755 147.635 63.7426 147.774C63.5298 150.238 62.692 152.421 61.2294 154.321C61.0709 154.528 60.8671 154.622 60.6181 154.603C58.6415 154.458 57.7653 153.113 56.5834 152.375C20.8619 130.007 12.5071 81.4885 43.5962 49.9626C52.6505 40.7753 63.9532 34.46 74.1011 31.2626C76.9992 30.3462 81.5819 29.495 87.849 28.7089C95.3298 27.7733 102.36 28.0603 108.94 29.5698C109.004 29.5849 109.065 29.6138 109.118 29.6549C109.172 29.696 109.217 29.7483 109.251 29.8087C109.284 29.869 109.306 29.9361 109.314 30.0057C109.323 30.0754 109.318 30.1461 109.3 30.2136C108.72 32.3308 107.755 34.2261 106.406 35.8996C106.322 36.0042 106.216 36.0854 106.096 36.1358C105.977 36.1863 105.847 36.2045 105.72 36.1889C94.5464 34.9664 82.4015 35.5957 71.8936 39.7843C53.16 47.257 35.9139 65.1468 33.163 87.2685C29.9705 112.877 42.4687 135.129 63.3894 147.08Z" fill="#091732"/>
<path d="M119.318 40.4136C113.212 55.3447 107.635 70.7025 101.651 85.8289C95.0218 102.602 88.5237 119.433 82.1569 136.323C78.7879 145.257 75.6158 154.466 71.7169 163.146C71.6264 163.349 71.4747 163.474 71.2618 163.523C68.9977 164.034 66.7064 164.077 64.3879 163.653C64.2949 163.637 64.2067 163.598 64.1298 163.541C64.0529 163.483 63.9895 163.407 63.9443 163.319C63.899 163.231 63.8733 163.133 63.8689 163.033C63.8646 162.933 63.8818 162.833 63.9192 162.741C77.5245 128.604 90.5048 94.2204 103.893 59.9962C107.506 50.7655 111.657 41.2455 114.448 31.8991C114.561 31.5217 114.809 31.2071 115.139 31.0241C115.468 30.841 115.853 30.8045 116.207 30.9225C130.533 35.7332 143.065 42.931 152.982 55.7208C162.011 67.3676 166.809 80.7675 167.375 95.9204C167.384 96.2725 167.223 96.4485 166.893 96.4485L160.114 96.463C159.779 96.463 159.586 96.2869 159.537 95.9349C159.215 93.6682 159.095 91.3991 159.177 89.1276C159.272 86.5017 158.626 84.5847 158.008 82.1323C152.853 61.6962 138.745 47.937 120.786 39.7842C120.513 39.6612 120.205 39.6583 119.93 39.7763C119.655 39.8942 119.435 40.1234 119.318 40.4136Z" fill="#FEC200"/>
<path d="M141.74 137.473C149.189 130.224 154.476 121.353 157.601 110.859C157.622 110.783 157.627 110.704 157.614 110.626C157.602 110.549 157.573 110.476 157.529 110.413C157.485 110.35 157.428 110.299 157.363 110.265C157.297 110.231 157.225 110.213 157.153 110.215L99.5661 110.345C99.0816 110.345 98.905 110.097 99.0363 109.6C99.5933 107.464 100.377 105.498 101.386 103.704C102.793 101.201 103.839 102.142 105.992 102.142C126.147 102.151 146.223 102.154 166.22 102.149C166.308 102.149 166.395 102.169 166.475 102.208C166.555 102.246 166.627 102.302 166.684 102.372C166.742 102.442 166.785 102.524 166.811 102.613C166.836 102.702 166.843 102.795 166.832 102.887C165.464 113.116 162.109 122.445 156.765 130.875C147.208 145.951 130.519 157.844 113.708 161.302C109.85 162.097 105.863 163.067 102.039 163.298C94.7231 163.74 87.5435 163.732 80.228 161.859C79.9779 161.795 79.7581 161.637 79.6094 161.415C79.4607 161.193 79.3933 160.921 79.4197 160.651C79.6574 158.213 81.2197 154.625 84.1133 154.972C91.0461 155.816 97.9699 155.915 104.885 155.269C118.259 154.024 131.837 147.101 141.74 137.473Z" fill="#091732"/>
</g>
<defs>
<clipPath id="clip0_30_43">
<rect width="144" height="136" fill="white" transform="translate(24 28)"/>
</clipPath>
</defs>
</svg>
