<svg version="1.2" xmlns="http://www.w3.org/2000/svg" viewBox="0 0 1024 1024" width="4000" height="4000">
	<style>
		.s0 { fill: #001c39 } 
		.s1 { fill: #001a0c } 
		.s2 { fill: #001b33 } 
		.s3 { fill: #8d9dac } 
		.s4 { fill: #b9c6d7 } 
		.s5 { fill: #fefefe } 
		.s6 { opacity: 1;fill: #fec401 } 
		.s7 { fill: #5f7185 } 
		.s8 { fill: #373c4a } 
	</style>
	<g id="Background">
		<path id="Path 1" class="s0" d="m489 165.62c-3.02 0.22-11.8 1.1-19.5 1.95-7.7 0.85-18.73 2.45-24.5 3.54-5.77 1.09-11.06 1.74-11.75 1.44-0.78-0.35-0.97-0.1-0.5 0.65 0.53 0.85-0.01 1.06-1.88 0.75-1.53-0.26-2.37-0.05-2 0.5 0.36 0.54-0.48 0.76-2 0.5-1.53-0.26-2.37-0.05-2 0.5 0.36 0.54-0.48 0.76-2 0.5-1.45-0.25-2.46-0.11-2.25 0.3 0.21 0.41-1.87 1.2-4.62 1.75-2.75 0.55-5.56 0.66-6.24 0.25-0.91-0.55-0.98-0.36-0.25 0.71 0.81 1.19 0.57 1.33-1.26 0.75-1.24-0.39-2.05-0.37-1.8 0.04 0.24 0.41-1.33 1.31-3.5 2-2.17 0.69-4.51 0.91-5.19 0.5-0.91-0.55-0.98-0.36-0.25 0.71 0.81 1.19 0.57 1.33-1.26 0.75-1.24-0.39-2.05-0.37-1.81 0.04 0.24 0.41-1.11 1.31-3 2-1.89 0.69-4 0.91-4.68 0.5q-1.23-0.74-0.5 0.5c0.47 0.79 0.1 1.31-1.01 1.41-0.96 0.08-2.26 0.2-2.88 0.25-0.62 0.05-0.96 0.43-0.75 0.84 0.21 0.41-0.41 0.82-1.37 0.91-0.96 0.08-2.26 0.2-2.88 0.25-0.62 0.05-0.96 0.43-0.75 0.84 0.21 0.41-0.97 1.2-2.62 1.75-1.65 0.55-3.56 0.7-4.25 0.34-0.71-0.38-0.9-0.27-0.44 0.25 0.45 0.51-1.41 1.89-4.25 3.16-2.79 1.24-5.62 1.91-6.3 1.5-0.91-0.55-0.98-0.36-0.25 0.73 0.79 1.17 0.63 1.33-0.76 0.75-1.24-0.52-1.53-0.37-1 0.5 0.53 0.87 0.24 1.02-1 0.5-1.24-0.52-1.53-0.37-1 0.5 0.53 0.87 0.24 1.02-1 0.5-1.24-0.52-1.53-0.37-1 0.5 0.53 0.87 0.24 1.02-1 0.5-1.24-0.52-1.53-0.37-1 0.5 0.55 0.9 0.21 1.01-1.25 0.43-1.1-0.44-1.66-0.43-1.24 0.02 0.42 0.45-1.05 1.83-3.25 3.07-2.22 1.24-4.57 1.92-5.26 1.51-0.92-0.55-0.99-0.36-0.25 0.73 0.81 1.19 0.63 1.32-1 0.67-1.1-0.44-1.66-0.43-1.25 0.02 0.41 0.45-0.15 1.38-1.25 2.07-1.1 0.69-2.56 0.91-3.24 0.5q-1.23-0.74-0.5 0.5c0.45 0.76-0.04 1.64-1.26 2.25-1.1 0.55-2.56 0.67-3.25 0.26q-1.24-0.73-0.5 0.5c0.43 0.72 0.22 1.29-0.5 1.36-0.69 0.06-1.7 0.03-2.25-0.08-0.55-0.12-0.66 0.17-0.24 0.63 0.41 0.46-2.51 2.94-6.5 5.53-3.99 2.58-7.71 4.38-8.25 4-0.59-0.41-0.69-0.19-0.25 0.55 0.44 0.74 0.03 1.65-1.01 2.22-0.96 0.54-2.16 0.65-2.66 0.25-0.5-0.39-0.61-0.16-0.25 0.53 0.41 0.78-0.76 2.1-3.09 3.49-2.06 1.24-4.09 2.14-4.5 2-0.41-0.13-0.52 0.21-0.25 0.76 0.27 0.55-0.51 1.55-1.75 2.21-1.24 0.67-2.59 1.12-3 1-0.41-0.11-0.52 0.24-0.25 0.79 0.27 0.55-0.85 1.9-2.5 3-1.65 1.1-3.34 2-3.75 2-0.41 0-0.75 0.41-0.75 0.91 0 0.5-1.12 1.79-2.5 2.88-1.37 1.08-2.95 2.13-3.5 2.34-0.55 0.2-0.89 0.71-0.75 1.12 0.14 0.41-2.34 2.98-5.5 5.72-3.16 2.73-6.2 4.68-6.75 4.34-0.55-0.35-0.65-0.22-0.23 0.28 0.43 0.5-1.15 2.8-3.5 5.12-2.35 2.32-4.72 3.89-5.26 3.5-0.54-0.39-0.68-0.26-0.3 0.29 0.37 0.55-0.47 2.35-1.87 4-1.41 1.65-4.09 4.91-5.95 7.25-1.86 2.34-3.84 4.02-4.39 3.75-0.55-0.27-0.9-0.16-0.79 0.25 0.12 0.41-0.33 1.76-1 3-0.71 1.32-1.73 1.98-2.46 1.59-0.69-0.36-0.92-0.25-0.53 0.25 0.4 0.5 0.29 1.7-0.25 2.66-0.53 0.96-1.42 1.52-1.97 1.25-0.55-0.27-0.89-0.14-0.75 0.3 0.14 0.44-1.55 3.35-3.75 6.47-2.2 3.12-4.45 5.39-5 5.04-0.55-0.35-0.67-0.22-0.28 0.28 0.4 0.5 0.29 1.7-0.25 2.66-0.53 0.96-1.31 1.58-1.72 1.37-0.41-0.21-0.75 0.36-0.75 1.25 0 0.9-0.56 1.52-1.25 1.38-0.69-0.14-1.14 0.54-1 1.5 0.14 0.96-0.31 1.64-1 1.5-0.69-0.14-1.03 0.2-0.75 0.75 0.28 0.55-0.74 3.04-2.25 5.53-1.51 2.48-3.16 4.17-3.66 3.75-0.51-0.44-0.62-0.23-0.25 0.47 0.36 0.69 0.1 2.15-0.59 3.25-0.69 1.1-1.62 1.66-2.07 1.25-0.45-0.41-0.46 0.15-0.02 1.25 0.65 1.63 0.52 1.81-0.67 1-1.09-0.74-1.28-0.67-0.73 0.25 0.41 0.69-0.27 3.04-1.51 5.26-1.24 2.21-2.62 3.67-3.07 3.25-0.45-0.42-0.46 0.14-0.02 1.24 0.65 1.63 0.52 1.81-0.67 1-1.09-0.74-1.28-0.67-0.73 0.25 0.42 0.7-0.68 4.12-2.51 7.8-1.79 3.6-3.62 6.19-4.07 5.75-0.45-0.44-0.46 0.1-0.02 1.2 0.65 1.63 0.52 1.81-0.67 1-1.09-0.74-1.28-0.67-0.73 0.25 0.41 0.69 0.29 2.6-0.26 4.25-0.55 1.65-1.34 2.83-1.75 2.62-0.41-0.21-0.79 0.13-0.84 0.75-0.05 0.62-0.17 1.92-0.25 2.88-0.09 0.96-0.61 1.52-1.16 1.25-0.6-0.3-0.71 0.2-0.27 1.25 0.58 1.39 0.42 1.54-0.74 0.75-1.09-0.74-1.28-0.67-0.73 0.25 0.41 0.69 0.29 2.82-0.26 4.75-0.55 1.93-1.45 3.27-2 3-0.62-0.31-0.73 0.36-0.29 1.75 0.58 1.83 0.44 2.07-0.75 1.26-1.07-0.73-1.26-0.66-0.71 0.25 0.41 0.68 0.53 2.36 0.25 3.74q-0.5 2.49-1.74 1.75-1.23-0.74-0.5 0.5c0.41 0.69 0.18 3.03-0.51 5.2-0.69 2.17-1.59 3.74-2 3.5-0.41-0.25-0.43 0.56-0.04 1.8 0.52 1.63 0.38 2.04-0.5 1.5-0.88-0.54-1.01-0.13-0.5 1.5 0.58 1.83 0.44 2.06-0.74 1.25-1.07-0.74-1.25-0.67-0.71 0.25 0.41 0.69 0.52 2.6 0.24 4.25-0.34 2.05-0.89 2.76-1.74 2.25q-1.23-0.74-0.5 0.5c0.41 0.69 0.52 2.6 0.24 4.25-0.28 1.65-0.84 2.83-1.25 2.62-0.41-0.21-0.55 0.8-0.3 2.25 0.36 2.13 0.17 2.44-0.99 1.63-1.12-0.78-1.25-0.67-0.57 0.5 0.51 0.88 0.4 4.1-0.26 7.75-0.82 4.52-1.47 6.04-2.37 5.5-0.89-0.54-0.99-0.32-0.38 0.75 0.48 0.82 0.59 3.64 0.24 6.25-0.44 3.41-0.97 4.54-1.86 4q-1.23-0.74-0.5 0.5c0.41 0.69 0.47 4.51 0.14 8.5-0.44 5.28-0.88 6.84-1.6 5.75-0.77-1.16-0.84-1.05-0.33 0.5 0.35 1.1 0.17 9.65-0.4 19-0.58 9.35-1.19 23.3-1.35 31-0.17 7.7-0.04 12.87 0.27 11.5 0.32-1.38 1.12 4.36 1.79 12.75 0.67 8.39 0.89 15.81 0.48 16.5q-0.73 1.24 0.5 0.5c0.91-0.55 1.41 0.8 1.87 5 0.35 3.16 0.24 6.42-0.24 7.25-0.68 1.17-0.55 1.28 0.56 0.5 1.16-0.82 1.34-0.42 0.99 2.14-0.24 1.73-0.1 2.97 0.31 2.75 0.41-0.21 0.97 1.41 1.25 3.61 0.28 2.2 0.17 4.56-0.24 5.25-0.54 0.92-0.36 0.99 0.7 0.25 1.16-0.81 1.35-0.5 0.99 1.63-0.26 1.53-0.05 2.37 0.5 2 0.54-0.36 0.76 0.48 0.5 2-0.26 1.53-0.05 2.37 0.5 2 0.54-0.36 0.76 0.48 0.5 2-0.26 1.53-0.05 2.37 0.5 2 0.54-0.36 0.76 0.48 0.5 2-0.25 1.45-0.11 2.46 0.3 2.25 0.41-0.21 0.97 0.97 1.25 2.62 0.28 1.65 0.17 3.56-0.24 4.25-0.54 0.92-0.36 0.99 0.71 0.25 1.19-0.82 1.32-0.55 0.73 1.5-0.4 1.37-0.38 2.15 0.04 1.71 0.42-0.43 1.99 2.94 3.49 7.5 1.51 4.56 2.49 8.96 2.18 9.79-0.3 0.83-0.18 1.14 0.27 0.7 0.45-0.44 1.61 1.25 2.57 3.75 0.96 2.5 1.41 5.11 1 5.79q-0.74 1.23 0.5 0.5c0.79-0.47 1.31-0.1 1.41 1.01 0.08 0.96 0.09 2.42 0.02 3.25-0.08 0.83 0.18 1.14 0.59 0.71 0.4-0.44 1.97 1.92 3.48 5.25 1.52 3.35 2.42 6.59 2 7.28-0.55 0.91-0.36 0.98 0.73 0.25 1.17-0.79 1.33-0.63 0.75 0.76-0.52 1.24-0.37 1.53 0.5 1 0.9-0.55 1.01-0.21 0.43 1.25-0.44 1.1-0.43 1.65 0.02 1.23 0.45-0.42 2.27 2.05 4.04 5.5 1.77 3.45 2.93 6.72 2.59 7.27-0.35 0.55-0.22 0.66 0.28 0.25 0.5-0.41 2.37 1.72 4.16 4.75 1.79 3.02 2.95 6.06 2.59 6.75-0.37 0.69-0.26 0.92 0.25 0.5 0.5-0.41 1.47 0.15 2.16 1.25 0.69 1.1 0.95 2.56 0.59 3.25-0.37 0.69-0.26 0.92 0.25 0.5 0.5-0.41 1.47 0.15 2.16 1.25 0.69 1.1 1.03 2.45 0.75 3-0.28 0.55 0.06 0.89 0.75 0.75 0.69-0.14 1.25 0.48 1.25 1.38 0 0.89 0.34 1.46 0.75 1.25 0.41-0.21 0.8 0.18 0.87 0.87 0.06 0.69 0.06 1.59 0 2-0.07 0.41 0.44 0.64 1.13 0.5 0.69-0.14 1.25 0.48 1.25 1.38 0 0.89 0.34 1.46 0.75 1.25 0.41-0.21 1.19 0.41 1.72 1.37 0.54 0.96 0.65 2.16 0.25 2.66-0.39 0.5-0.16 0.61 0.53 0.25 0.69-0.36 1.68 0.12 2.22 1.09 0.54 0.96 0.65 2.16 0.25 2.66-0.39 0.5-0.16 0.61 0.53 0.25 0.71-0.38 1.53 0.09 1.91 1.09 0.37 0.96 0.71 2.2 0.75 2.75 0.05 0.55 0.64 1 1.32 1 0.68 0 1.9 0.9 2.72 2 0.82 1.1 1.16 2.37 0.77 2.83-0.4 0.46-0.23 0.69 0.37 0.5 0.6-0.18 3.17 2.15 5.72 5.17 2.55 3.02 4.42 5.84 4.16 6.25-0.26 0.41 0.23 1.31 1.07 2 0.85 0.69 1.53 0.8 1.5 0.25-0.03-0.55 5.33 4.4 11.9 11 6.58 6.6 11.76 12.34 11.51 12.75-0.25 0.41 0.25 1.31 1.09 2 0.85 0.69 1.53 0.91 1.5 0.5-0.02-0.41 1.53 0.37 3.46 1.75 1.93 1.37 3.27 2.95 3 3.5-0.27 0.55-0.16 0.9 0.25 0.79 0.41-0.12 1.76 0.33 3 1 1.24 0.66 2.02 1.66 1.75 2.21-0.27 0.55-0.16 0.9 0.25 0.78 0.41-0.12 1.99 0.55 3.5 1.5 1.51 0.94 2.52 2.17 2.25 2.72-0.27 0.55-0.16 0.93 0.25 0.84 0.41-0.09 1.54 0.14 2.5 0.5 0.96 0.36 1.52 1.11 1.25 1.66-0.27 0.55-0.16 0.9 0.25 0.79 0.41-0.12 1.76 0.33 3 1 1.39 0.75 1.97 1.69 1.51 2.46q-0.73 1.24 0.5 0.5c0.68-0.41 1.92-0.3 2.74 0.25 0.82 0.55 1.27 1.45 1 2-0.27 0.55-0.16 0.95 0.25 0.88 0.41-0.06 1.31-0.06 2 0 0.69 0.07 1.02 0.57 0.75 1.12-0.27 0.55-0.16 0.95 0.25 0.88 0.41-0.06 1.31-0.06 2 0 0.69 0.07 1.02 0.57 0.75 1.12-0.27 0.55-0.16 0.95 0.25 0.88 0.41-0.06 1.31-0.06 2 0 0.69 0.07 1.08 0.46 0.87 0.87-0.21 0.41 0.36 0.75 1.25 0.75 0.9 0 1.52 0.56 1.38 1.25-0.14 0.69 0.2 1.02 0.75 0.75 0.55-0.27 2.57 0.51 4.5 1.75 1.92 1.24 3.16 2.58 2.75 2.98-0.41 0.41 0.15 0.63 1.25 0.5 1.16-0.13 1.89 0.3 1.75 1.02-0.14 0.69 0.2 1.02 0.75 0.75 0.55-0.27 1.9 0.06 3 0.75 1.1 0.69 1.66 1.62 1.25 2.07-0.41 0.45 0.15 0.46 1.25 0.02 1.63-0.65 1.81-0.52 1 0.67-0.74 1.09-0.67 1.28 0.25 0.73 0.69-0.41 2.6 0.05 4.25 1.01 1.65 0.96 2.67 2.12 2.25 2.57-0.41 0.45 0.15 0.46 1.25 0.02 1.46-0.58 1.8-0.47 1.25 0.43-0.53 0.87-0.24 1.02 1 0.5 1.24-0.52 1.53-0.37 1 0.5-0.53 0.87-0.24 1.02 1 0.5 1.24-0.52 1.53-0.37 1 0.5-0.53 0.87-0.24 1.02 1 0.5 1.24-0.52 1.53-0.37 1 0.5-0.53 0.87-0.24 1.02 1 0.5 1.24-0.52 1.53-0.37 1 0.5-0.53 0.87-0.24 1.02 1 0.5 1.24-0.52 1.53-0.37 1 0.5-0.53 0.87-0.24 1.02 1 0.5 1.24-0.52 1.53-0.37 1 0.5-0.53 0.87-0.24 1.02 1 0.5 1.24-0.52 1.53-0.37 1 0.5-0.53 0.87-0.24 1.02 1 0.5 1.24-0.52 1.53-0.37 1 0.5-0.53 0.87-0.24 1.02 1 0.5 1.39-0.58 1.54-0.42 0.75 0.74-0.74 1.09-0.67 1.28 0.25 0.73 0.69-0.41 2.6-0.29 4.25 0.26q2.99 1 2.26 2.25-0.73 1.24 0.5 0.5c0.68-0.41 2.59-0.3 4.24 0.25q2.99 1 2.26 2.25-0.73 1.24 0.5 0.5c0.68-0.41 2.14-0.52 3.24-0.25 1.27 0.32 1.73 0.95 1.25 1.74q-0.74 1.23 0.5 0.5c0.69-0.41 2.15-0.51 3.25-0.24 1.1 0.27 1.77 0.95 1.5 1.5-0.31 0.62 0.36 0.73 1.75 0.29 1.63-0.52 2.04-0.38 1.5 0.5-0.54 0.88-0.13 1.01 1.5 0.5 1.63-0.52 2.04-0.38 1.5 0.5-0.54 0.88-0.13 1.01 1.5 0.5 1.83-0.58 2.07-0.44 1.26 0.75-0.73 1.07-0.66 1.26 0.25 0.71 0.68-0.41 2.36-0.52 3.74-0.25 1.37 0.27 2.27 0.95 2 1.5-0.31 0.62 0.36 0.73 1.75 0.29 1.36-0.43 2-0.33 1.62 0.25-0.37 0.56 0.45 0.78 2 0.51 2.13-0.36 2.44-0.17 1.64 1-0.73 1.06-0.66 1.25 0.25 0.7 0.68-0.41 2.59-0.52 4.24-0.25 1.65 0.27 2.83 0.84 2.62 1.25-0.21 0.41 0.8 0.55 2.25 0.3 2.13-0.36 2.44-0.17 1.64 1-0.73 1.06-0.66 1.25 0.25 0.7 0.68-0.41 4.58 0.04 8.67 1 4.09 0.96 7.29 1.98 7.11 2.25-0.18 0.27 1.09 0.3 2.82 0.06 2.57-0.35 2.96-0.17 2.15 1-0.77 1.12-0.66 1.24 0.5 0.55 0.9-0.53 4.51-0.34 9.16 0.5 4.22 0.77 7.48 1.73 7.25 2.14-0.23 0.41 0.03 0.75 0.58 0.75 0.55 0 1-0.34 1-0.75 0.01-0.41 5.07-0.21 11.25 0.45 6.19 0.66 18 1.5 26.25 1.87 9.01 0.41 20.99 0.21 30-0.5 8.25-0.65 19.73-1.86 25.5-2.7 5.77-0.84 11.29-1.26 12.25-0.95q1.78 0.6 1-0.61c-0.54-0.84 0.14-1.06 2.39-0.75 1.83 0.26 2.88 0.05 2.5-0.5-0.37-0.54 0.68-0.75 2.5-0.5 1.73 0.24 2.97 0.1 2.75-0.31-0.21-0.41 1.41-0.98 3.61-1.25 2.2-0.27 4.56-0.17 5.25 0.24 0.92 0.54 0.99 0.36 0.25-0.7-0.81-1.16-0.5-1.35 1.63-0.99 1.53 0.26 2.37 0.05 2-0.5-0.36-0.54 0.48-0.76 2-0.5 1.53 0.26 2.37 0.05 2-0.5-0.36-0.54 0.48-0.76 2-0.5 1.55 0.27 2.37 0.05 2-0.51-0.38-0.58 0.26-0.68 1.62-0.25 1.39 0.44 2.06 0.33 1.75-0.29-0.27-0.55 0.85-1.23 2.5-1.5 1.65-0.27 3.56-0.16 4.24 0.25 0.91 0.55 0.98 0.36 0.25-0.71-0.81-1.19-0.57-1.33 1.26-0.75 1.24 0.39 2.05 0.37 1.8-0.04-0.24-0.41 1.33-1.31 3.5-2 2.17-0.69 4.51-0.91 5.19-0.5 0.74 0.44 0.96 0.34 0.56-0.25-0.37-0.55 0.86-1.56 2.76-2.25 1.89-0.69 4-0.92 4.69-0.51q1.24 0.73 0.5-0.5c-0.48-0.79-0.11-1.3 1-1.4 0.96-0.08 2.26-0.2 2.88-0.25 0.62-0.05 0.96-0.43 0.75-0.84-0.21-0.41 0.52-0.98 1.62-1.25 1.1-0.27 2.56-0.16 3.24 0.25 0.91 0.55 0.98 0.36 0.25-0.73-0.79-1.17-0.63-1.33 0.76-0.75 0.96 0.4 1.54 0.39 1.29-0.02-0.25-0.41 1.44-1.52 3.75-2.47 2.32-0.94 4.66-1.39 5.21-1.01q1 0.71 0-0.76c-0.79-1.16-0.64-1.32 0.75-0.74 1.24 0.52 1.53 0.37 1-0.5-0.53-0.87-0.24-1.02 1-0.5 0.96 0.4 1.55 0.39 1.3-0.02-0.25-0.41 1.1-1.54 3-2.5 1.9-0.96 4.01-1.41 4.69-1 0.91 0.55 0.98 0.36 0.25-0.73-0.79-1.17-0.63-1.33 0.76-0.75 1.24 0.52 1.53 0.37 1-0.5-0.55-0.9-0.21-1.01 1.25-0.43 1.1 0.44 1.66 0.43 1.24-0.02-0.41-0.45 1.5-2.06 4.25-3.57 2.76-1.51 5.57-2.45 6.26-2.09 0.69 0.37 0.92 0.26 0.5-0.25-0.41-0.5 0.15-1.47 1.25-2.16 1.1-0.69 2.56-0.95 3.25-0.59 0.69 0.37 0.92 0.26 0.5-0.25-0.41-0.5 0.15-1.47 1.25-2.16 1.1-0.69 2.56-0.95 3.25-0.59 0.69 0.37 0.92 0.26 0.5-0.25-0.41-0.5 0.83-1.92 2.75-3.16 1.93-1.24 3.95-2.02 4.5-1.75 0.55 0.27 0.89-0.06 0.75-0.75-0.14-0.72 0.59-1.15 1.75-1.02 1.1 0.13 1.66-0.09 1.24-0.5-0.41-0.4 1.39-2.18 4-3.96 2.62-1.77 5.1-3.01 5.51-2.75 0.41 0.27 1.09-0.08 1.5-0.76 0.53-0.88 0.31-1-0.75-0.41-0.83 0.45-0.38-0.08 1-1.19 1.37-1.1 2.95-1.7 3.49-1.33 0.58 0.39 0.68 0.15 0.25-0.58-0.44-0.74-0.03-1.65 1.01-2.22 0.96-0.54 2.16-0.65 2.66-0.25 0.5 0.39 0.61 0.16 0.25-0.53-0.38-0.72 0.3-1.87 1.59-2.71 1.24-0.8 2.7-1.14 3.25-0.76 0.6 0.42 0.7 0.2 0.25-0.54-0.46-0.76 0.12-1.81 1.5-2.7 1.24-0.8 2.7-1.14 3.24-0.75 0.59 0.42 0.69 0.2 0.25-0.54-0.47-0.79 0.42-2.08 2.38-3.5 1.72-1.24 3.52-2.14 4-2 0.48 0.14 0.65-0.2 0.38-0.75-0.27-0.55 1.39-2.46 3.71-4.25 2.31-1.79 4.34-3.14 4.5-3 0.16 0.14 0.3-0.09 0.31-0.5 0.01-0.41 3.5-4.22 7.75-8.45 4.25-4.24 8.07-7.5 8.48-7.25 0.41 0.25 1.07-0.11 1.47-0.8 0.4-0.69 0.78-1.7 0.84-2.25 0.06-0.55 1.42-2.45 3.03-4.23 1.6-1.77 3.36-2.94 3.91-2.59 0.55 0.35 0.67 0.23 0.28-0.27-0.4-0.5 0.16-2.15 1.25-3.66 1.08-1.51 2.31-2.57 2.72-2.35 0.41 0.23 0.79-0.11 0.84-0.75 0.05-0.63 2.07-3.73 4.5-6.88 2.42-3.16 4.64-5.56 4.91-5.35 0.27 0.21 0.53-0.13 0.58-0.77 0.04-0.63 0.82-2.39 1.75-3.9 0.92-1.51 2.12-2.52 2.67-2.25 0.55 0.27 0.95 0.16 0.88-0.25-0.06-0.41-0.06-1.31 0-2 0.07-0.69 0.57-1.02 1.12-0.75 0.55 0.27 0.95 0.16 0.88-0.25-0.06-0.41-0.06-1.31 0-2 0.07-0.69 0.57-1.02 1.12-0.75 0.55 0.27 0.95 0.16 0.88-0.25-0.06-0.41-0.06-1.31 0-2 0.07-0.69 0.57-1.02 1.12-0.75 0.55 0.27 0.95 0.16 0.88-0.25-0.06-0.41-0.06-1.31 0-2 0.07-0.69 0.46-1.08 0.87-0.87 0.41 0.21 0.75-0.36 0.75-1.25 0-0.9 0.56-1.52 1.25-1.38 0.69 0.14 1.02-0.2 0.75-0.75-0.27-0.55 0.06-1.9 0.75-3 0.69-1.1 1.59-1.77 2-1.5 0.41 0.28 0.53 0.16 0.26-0.25-0.26-0.41 0.52-2.42 1.75-4.46 1.23-2.04 2.58-3.5 2.99-3.25 0.41 0.25 0.42-0.33 0.02-1.29-0.58-1.39-0.42-1.55 0.75-0.76 1.09 0.73 1.28 0.66 0.73-0.25-0.41-0.68 0.04-2.59 1-4.24 0.96-1.65 2.12-2.67 2.57-2.25 0.45 0.41 0.46-0.15 0.02-1.25-0.58-1.46-0.47-1.8 0.43-1.25 0.87 0.53 1.02 0.24 0.5-1-0.58-1.39-0.42-1.55 0.75-0.76 1.09 0.73 1.28 0.66 0.73-0.25-0.43-0.71 0.86-4.47 3-8.77 2.06-4.14 4.12-7.18 4.57-6.75 0.45 0.43 0.46-0.12 0.02-1.22-0.58-1.46-0.47-1.8 0.43-1.25 0.87 0.53 1.02 0.24 0.5-1-0.58-1.39-0.42-1.54 0.74-0.75 1.09 0.74 1.28 0.67 0.73-0.25-0.41-0.69-0.29-2.6 0.26-4.25q1-2.99 2.25-2.26 1.24 0.73 0.5-0.5c-0.41-0.68-0.52-2.14-0.25-3.24 0.32-1.27 0.95-1.73 1.74-1.25q1.23 0.74 0.5-0.5c-0.41-0.69 0.27-4.15 1.51-7.69 1.31-3.74 2.67-6.16 3.25-5.76 0.59 0.4 0.7 0.18 0.25-0.56-0.41-0.68 0.04-3.91 1-7.18 0.96-3.27 2.09-5.74 2.5-5.5 0.41 0.24 0.43-0.57 0.04-1.81-0.43-1.36-0.33-2 0.25-1.62 0.56 0.37 0.78-0.45 0.51-2-0.36-2.13-0.17-2.44 1-1.64 1.06 0.73 1.25 0.66 0.7-0.25-0.41-0.68-0.52-2.59-0.25-4.24 0.27-1.65 0.84-2.83 1.25-2.62 0.41 0.21 0.55-0.8 0.3-2.25-0.36-2.13-0.17-2.44 0.99-1.63 1.06 0.74 1.24 0.67 0.7-0.25-0.41-0.69-0.51-3.05-0.24-5.25 0.35-2.84 0.86-3.78 1.74-3.25q1.23 0.74 0.5-0.5c-0.41-0.69 0.05-5.72 1.01-11.18 0.96-5.45 1.98-9.78 2.25-9.6 0.27 0.18 0.55-2.22 0.61-5.32 0.06-3.11 0.62-10.82 1.25-17.15 0.62-6.33 1.13-17.46 1.14-24.75 0-7.29-0.55-19.89-1.22-28-0.67-8.11-1.23-16.84-1.25-19.4-0.02-2.72-0.42-4.39-0.98-4-0.58 0.4-0.69-1.09-0.3-3.85 0.36-2.48 0.33-3.96-0.05-3.31-0.39 0.66-1.26-2.15-1.95-6.25-0.69-4.09-0.92-8-0.51-8.69 0.44-0.74 0.33-0.97-0.25-0.56-0.58 0.4-1.56-1.66-2.38-5-0.85-3.47-1.05-6.28-0.51-7.19 0.63-1.07 0.53-1.29-0.36-0.75-0.88 0.53-1.53-0.7-2.24-4.25-0.55-2.75-0.67-5.56-0.26-6.25q0.73-1.24-0.5-0.5c-0.85 0.51-1.4-0.2-1.74-2.25-0.27-1.65-0.17-3.56 0.24-4.25 0.54-0.92 0.36-0.99-0.71-0.25-1.18 0.81-1.32 0.58-0.74-1.25 0.51-1.63 0.38-2.04-0.5-1.5-0.88 0.54-1.02 0.13-0.5-1.5 0.51-1.63 0.38-2.04-0.5-1.5-0.88 0.54-1.02 0.13-0.5-1.5 0.51-1.63 0.38-2.04-0.5-1.5-0.88 0.54-1.02 0.13-0.5-1.5 0.51-1.63 0.38-2.04-0.5-1.5-0.88 0.54-1.02 0.13-0.5-1.5 0.44-1.39 0.33-2.06-0.29-1.75-0.55 0.27-1.23-0.4-1.5-1.5-0.27-1.1-0.16-2.56 0.25-3.24q0.74-1.23-0.5-0.5c-0.79 0.47-1.31 0.1-1.41-1.01-0.08-0.96-0.2-2.26-0.25-2.88-0.05-0.62-0.43-0.96-0.84-0.75-0.41 0.21-0.82-0.41-0.91-1.37-0.08-0.96-0.2-2.26-0.25-2.88-0.05-0.62-0.43-0.96-0.84-0.75-0.41 0.21-0.82-0.41-0.91-1.37-0.08-0.96-0.09-2.43-0.02-3.25 0.08-0.82-0.18-1.14-0.59-0.69-0.4 0.44-1.74-1.47-2.98-4.25-1.24-2.79-1.91-5.62-1.5-6.3 0.55-0.91 0.36-0.98-0.73-0.25-1.17 0.79-1.33 0.63-0.75-0.76 0.52-1.24 0.37-1.53-0.5-1-0.87 0.53-1.02 0.24-0.5-1 0.52-1.24 0.37-1.53-0.5-1-0.87 0.53-1.02 0.24-0.5-1 0.52-1.24 0.37-1.53-0.5-1-0.9 0.55-1.01 0.21-0.43-1.25 0.44-1.1 0.43-1.66-0.02-1.24-0.45 0.41-2.28-1.95-4.07-5.25-1.85-3.41-2.93-6.55-2.51-7.26 0.55-0.92 0.36-0.99-0.73-0.25-1.16 0.79-1.32 0.64-0.74-0.75 0.44-1.05 0.33-1.55-0.27-1.25-0.55 0.27-1.45-0.4-2-1.5-0.55-1.1-0.7-2.56-0.34-3.25 0.37-0.69 0.26-0.92-0.25-0.5-0.5 0.41-1.47-0.15-2.16-1.25-0.69-1.1-0.95-2.56-0.59-3.25 0.37-0.7 0.26-0.91-0.25-0.49-0.5 0.42-2.57-1.83-4.61-5-2.03-3.17-3.42-6.21-3.09-6.76 0.34-0.55 0.2-0.68-0.3-0.29-0.5 0.39-4.15-3.66-8.12-9-3.96-5.34-6.89-10.16-6.51-10.71 0.42-0.6 0.2-0.7-0.54-0.25-0.76 0.46-1.81-0.12-2.7-1.5-0.8-1.24-1.14-2.7-0.76-3.25 0.42-0.6 0.2-0.7-0.54-0.25-0.77 0.47-1.98-0.29-3.21-2-1.09-1.51-1.65-3.16-1.25-3.66 0.39-0.5 0.16-0.61-0.53-0.25-0.76 0.4-2.72-1.14-5-3.93-2.06-2.52-3.64-4.99-3.5-5.5 0.14-0.5-0.45-1.47-1.29-2.16-0.85-0.69-1.51-0.8-1.46-0.25 0.05 0.55-0.61 0.44-1.46-0.25-0.86-0.7-1.22-1.8-0.8-2.5 0.44-0.75 0.34-0.96-0.25-0.52-0.54 0.4-1.89-0.26-2.99-1.48l-2-2.22c3.87 2.87 3.9 2.85 2.5 1.2-0.83-0.98-1.73-1.55-2-1.28-0.27 0.28-2.19-0.84-4.25-2.48-2.06-1.63-3.64-3.51-3.5-4.17 0.14-0.67-0.2-1.23-0.75-1.26-0.55-0.02-2.69-1.28-4.75-2.79-2.4-1.76-3.48-3.2-3-3.99 0.45-0.74 0.35-0.96-0.25-0.55-0.55 0.38-3.48-1.33-6.5-3.8-3.02-2.47-5.35-5.04-5.17-5.7 0.19-0.67-0.04-0.88-0.5-0.49-0.45 0.4-1.62 0.29-2.58-0.25-0.97-0.54-1.45-1.53-1.09-2.22 0.36-0.69 0.25-0.92-0.25-0.53-0.5 0.4-1.7 0.29-2.66-0.25-0.97-0.54-1.45-1.53-1.09-2.22 0.36-0.69 0.25-0.92-0.25-0.53-0.5 0.4-1.7 0.29-2.66-0.25-1.04-0.57-1.45-1.48-1.01-2.22 0.44-0.74 0.33-0.97-0.25-0.56-0.54 0.38-5.6-2.32-11.23-6-5.63-3.68-9.91-7.1-9.5-7.6 0.41-0.5 0.18-0.62-0.51-0.25-0.69 0.36-3.29-0.58-5.78-2.09-2.48-1.51-4.17-3.16-3.75-3.66 0.44-0.51 0.23-0.62-0.47-0.25-0.69 0.36-3.05-0.35-5.26-1.59-2.2-1.24-3.67-2.62-3.25-3.07 0.42-0.45-0.14-0.46-1.24-0.02-1.46 0.58-1.8 0.47-1.25-0.43 0.53-0.87 0.24-1.02-1-0.5-1.24 0.52-1.53 0.37-1-0.5 0.53-0.87 0.24-1.02-1-0.5-1.24 0.52-1.53 0.37-1-0.5 0.53-0.87 0.24-1.02-1-0.5-1.24 0.52-1.53 0.37-1-0.5 0.53-0.87 0.24-1.02-1-0.5-1.24 0.52-1.53 0.37-1-0.5 0.53-0.87 0.24-1.02-1-0.5-1.24 0.52-1.53 0.37-1-0.5 0.53-0.87 0.24-1.02-1-0.5-1.39 0.58-1.54 0.42-0.75-0.74 0.74-1.09 0.67-1.28-0.25-0.73-0.69 0.41-3.52-0.27-6.31-1.51-2.78-1.24-4.69-2.62-4.25-3.07 0.45-0.45-0.09-0.46-1.19-0.02-1.63 0.65-1.82 0.52-1.01-0.68 0.73-1.09 0.66-1.28-0.25-0.73-0.68 0.41-4.37-0.49-8.2-2-4.03-1.59-6.66-3.17-6.25-3.74 0.42-0.59 0.2-0.69-0.54-0.25-0.69 0.41-2.15 0.51-3.25 0.24-1.1-0.28-1.77-0.95-1.5-1.5 0.31-0.62-0.36-0.73-1.75-0.29-1.63 0.52-2.04 0.38-1.5-0.5 0.54-0.88 0.13-1.01-1.5-0.5-1.63 0.52-2.04 0.38-1.5-0.5 0.54-0.88 0.13-1.01-1.5-0.5-1.63 0.52-2.04 0.38-1.5-0.5 0.54-0.88 0.13-1.01-1.5-0.5-1.83 0.58-2.07 0.44-1.26-0.75 0.77-1.14 0.66-1.27-0.5-0.59-0.93 0.55-3.79 0.18-7.66-1-3.55-1.07-5.88-2.29-5.5-2.86 0.39-0.58 0.15-0.68-0.58-0.25-0.69 0.41-2.83 0.51-4.75 0.24-1.92-0.28-3.33-0.84-3.12-1.25 0.21-0.41-0.8-0.55-2.25-0.3-1.52 0.26-2.36 0.04-2-0.5 0.37-0.55-0.47-0.76-2-0.5-1.53 0.26-2.36 0.05-1.98-0.5 0.38-0.54-0.91-0.97-3-1.01-2.01-0.03-9.05-1.02-15.65-2.19-6.6-1.18-16.27-2.62-21.5-3.21-5.23-0.58-18.05-1.23-28.5-1.44-10.45-0.21-21.48-0.2-24.5 0.02z"/>
		<path id="Path 2" class="s1" d="m500.5 164.74c4.4 0.19 11.15 0.19 15 0 3.85-0.19 0.25-0.34-8-0.34-8.25 0-11.4 0.16-7 0.34zm25.5 0.99c1.92 0.21 5.3 0.21 7.5 0 2.2-0.22 0.63-0.39-3.5-0.39-4.13 0-5.92 0.17-4 0.39zm-69 2.32c-2.25 0.51-1.01 0.6 3.5 0.25 3.85-0.3 7.19-0.72 7.42-0.92 0.23-0.21-1.35-0.32-3.5-0.25-2.16 0.07-5.49 0.49-7.42 0.92zm-17 2.73c-4.13 0.86-7.05 1.7-6.5 1.88 0.55 0.18 5.27-0.54 10.5-1.58 5.23-1.05 8.15-1.9 6.5-1.88-1.65 0.01-6.38 0.72-10.5 1.58zm137.5 1.74c2.75 0.71 5.9 1.28 7 1.27 1.1-0.02-0.24-0.65-2.97-1.41-2.73-0.76-5.88-1.33-7-1.26-1.12 0.06 0.22 0.7 2.97 1.4zm17 3.88c2.2 0.73 5.58 1.6 7.5 1.93 3.39 0.59 3.38 0.56-0.5-0.73-2.2-0.73-5.58-1.6-7.5-1.93-3.39-0.59-3.38-0.56 0.5 0.73zm32.5 9.85c0.27 0.27 4.55 2.12 9.5 4.1 4.95 1.98 9.11 3.5 9.25 3.38 0.13-0.13-3.02-1.64-7-3.36-3.99-1.72-8.38-3.46-9.75-3.87-1.38-0.41-2.27-0.53-2-0.25zm28 12.25c4.67 2.42 8.95 4.4 9.5 4.4 0.55 0-2.64-2-7.1-4.45-4.45-2.45-8.72-4.43-9.5-4.4-0.77 0.03 2.43 2.03 7.1 4.45zm-302.5 3.29c-7.15 3.69-17.44 9.41-22.88 12.71-5.43 3.3-10.04 6.34-10.25 6.75-0.2 0.41 3.79-1.81 8.88-4.95 5.09-3.13 16-9.19 24.25-13.47 8.25-4.27 14.55-7.77 14-7.76-0.55 0-6.85 3.03-14 6.72zm339 15.91c0.55 0.54 5.9 4.32 11.9 8.4 5.99 4.07 15.89 11.41 22 16.31 6.1 4.9 10.2 7.9 9.1 6.66-1.1-1.24-6.95-6.1-13-10.8-6.05-4.7-14.83-11.1-19.5-14.23-4.67-3.12-9.17-6.05-10-6.51q-1.49-0.82-0.5 0.17zm-384.46 11.8c-5.57 4.12-10.11 7.72-10.09 8 0.03 0.27 4.44-2.72 9.8-6.65 5.36-3.94 10.18-7.54 10.7-8 0.52-0.47 0.67-0.85 0.33-0.85-0.34 0-5.17 3.37-10.74 7.5zm-23.04 18.61l-6.5 6.08c10.53-9.06 13.57-11.8 13.54-11.94-0.02-0.14-0.15-0.24-0.29-0.23-0.14 0.01-3.18 2.75-6.75 6.09zm469.12 18.9c9.14 9.07 19.83 20.65 23.75 25.74 3.92 5.09 7.35 9.25 7.63 9.25 0.27 0-2-3.26-5.06-7.25-3.06-3.99-9.74-11.75-14.84-17.25-5.11-5.5-13.51-13.82-18.69-18.49-5.75-5.19-2.94-2.08 7.21 8zm-484.29-5.65c-4.12 3.93-9.69 9.62-12.37 12.64-2.68 3.02 0.28 0.43 6.58-5.78 6.3-6.2 12.14-11.69 12.96-12.19 0.82-0.51 1.24-1.12 0.92-1.36-0.32-0.25-3.96 2.77-8.09 6.69zm-25.51 27.89c-1.1 1.24-4.85 6.07-8.33 10.75-3.47 4.68-6.78 9.18-7.35 10-0.76 1.1-0.74 1.23 0.08 0.5 0.62-0.55 4.94-6.06 9.6-12.25 4.67-6.19 8.38-11.25 8.25-11.25-0.13 0-1.14 1.01-2.25 2.25zm-26.92 38c-2.05 3.44-3.87 6.59-4.06 7-0.19 0.41-0.12 0.75 0.16 0.75 0.28 0 1.7-2.14 3.17-4.75 1.46-2.61 3.27-5.76 4.01-7 0.75-1.24 1.15-2.25 0.9-2.25-0.25 0-2.13 2.81-4.18 6.25zm582.19-5c0.44 0.69 2.37 3.73 4.29 6.75 1.93 3.02 7.45 13.15 12.29 22.5 4.83 9.35 8.79 16.55 8.79 16 0-0.55-3.74-8.2-8.3-17-4.57-8.8-10.09-19.04-12.27-22.75-2.18-3.71-4.33-6.75-4.78-6.75-0.45 0-0.46 0.56-0.02 1.25zm-596.47 30.5c-0.51 0.96-2.77 6.02-5.02 11.25-2.24 5.23-3.97 9.61-3.84 9.74 0.13 0.13 2.52-4.93 5.31-11.25 2.78-6.32 4.93-11.49 4.78-11.49-0.16 0-0.71 0.79-1.23 1.75zm627.1 29.5c0.29 0.69 1.82 4.73 3.41 8.99 1.58 4.26 2.99 7.64 3.14 7.5 0.14-0.13-1.06-4.18-2.67-8.99-1.62-4.81-3.27-8.75-3.67-8.75-0.41 0-0.5 0.56-0.21 1.25zm12.9 39.25c-0.04 0.55 0.81 4.15 1.89 8 1.08 3.85 1.75 5.43 1.48 3.5-0.26-1.93-1.11-5.52-1.89-8-0.77-2.48-1.44-4.05-1.48-3.5zm-675.37 66.32c-0.42 5.87-0.68 16.75-0.6 24.18 0.15 12.21 0.26 11.21 1.23-10.46 0.58-13.18 0.85-24.06 0.59-24.18-0.26-0.12-0.81 4.59-1.22 10.46zm686.67 20.68c0 11 0.15 15.73 0.32 10.5 0.18-5.23 0.18-14.23 0.01-20-0.18-5.77-0.33-1.5-0.33 9.5zm-683.81 47.5c0.29 3.58 0.89 8.08 1.35 10 0.46 1.92 0.85 2.6 0.86 1.5 0.02-1.1-0.59-5.6-1.35-10l-1.37-8zm673.63 32.31c-1.24 5.05-2.14 9.29-2 9.42 0.14 0.13 1.23-3.83 2.42-8.79 1.19-4.97 2.09-9.21 2-9.43-0.09-0.22-1.18 3.74-2.42 8.8zm-7.97 27.47c-1.21 3.7-2.03 6.95-1.82 7.22 0.22 0.27 1.25-2.57 2.29-6.31 1.04-3.75 1.86-7 1.82-7.23-0.05-0.22-1.07 2.62-2.29 6.32zm-653.32-4.78c0 0.27 0.93 3.65 2.07 7.5 1.14 3.85 2.25 6.77 2.47 6.5 0.23-0.27-0.5-3.42-1.6-7-1.11-3.58-2.23-6.73-2.49-7-0.25-0.27-0.46-0.27-0.45 0zm22.98 55.5c2.89 5.5 5.71 10.45 6.28 11 0.57 0.55-1.34-3.5-4.25-9-2.9-5.5-5.72-10.45-6.27-11-0.56-0.55 1.36 3.5 4.24 9zm13.09 23c1.29 2.2 4.61 7.37 7.37 11.5 2.76 4.12 9.54 13.12 15.06 19.98 5.53 6.86 16.34 18.82 24.04 26.58 7.7 7.75 16.93 16.49 20.5 19.4 5.58 4.54 5.36 4.26-1.5-1.97-4.4-4-13.56-12.95-20.37-19.88-6.8-6.94-16.9-18.23-22.44-25.11-5.53-6.88-12.96-17-16.5-22.5-3.54-5.5-6.9-10.45-7.47-11-0.57-0.55 0.02 0.8 1.31 3zm574.73 10.75c-4.16 6.19-11.2 15.86-15.66 21.5-4.45 5.64-7.87 10.25-7.6 10.25 0.28 0 3.81-4.16 7.84-9.25 4.03-5.09 10.27-13.52 13.86-18.75 3.59-5.23 7.27-10.74 8.18-12.25 0.91-1.51 1.5-2.75 1.3-2.75-0.2 0-3.77 5.06-7.92 11.25zm-39.53 48.01c-8.4 8.38-15.26 15.35-15.25 15.49 0.01 0.14 3.29-2.67 7.27-6.24 3.99-3.57 10.99-10.55 15.55-15.5 4.56-4.96 8.16-9.01 8-9-0.16 0-7.17 6.87-15.57 15.25zm-23.23 21.35c-3.57 3.01-7.17 6.2-8 7.09-0.82 0.9 2.06-1.26 6.4-4.79 4.34-3.52 8.03-6.75 8.21-7.16 0.18-0.41 0.23-0.72 0.11-0.68-0.12 0.03-3.14 2.53-6.72 5.54zm-437.84 2.81c-0.09 0.32 3.78 3.66 8.59 7.42 4.82 3.77 12.13 9.09 16.25 11.83 4.13 2.73 8.18 5.3 9 5.7 0.83 0.4 0.4-0.09-0.94-1.07-1.35-0.99-6.75-4.81-12-8.49-5.26-3.67-12.07-8.77-15.15-11.33-3.08-2.55-5.67-4.38-5.75-4.06zm422.34 9.64c-2.75 2.17-8.37 6.27-12.5 9.1-4.12 2.83-7.95 5.61-8.5 6.18-0.55 0.56 0.35 0.21 2-0.79 1.65-1 6.38-4.22 10.5-7.16 4.13-2.94 9.08-6.68 11-8.32 1.93-1.65 3.28-2.98 3-2.98-0.27 0.01-2.75 1.79-5.5 3.97zm-35 22.99c-6.6 3.8-12.67 7.37-13.5 7.94-0.82 0.56 0.75-0.05 3.5-1.36 2.75-1.32 8.94-4.7 13.75-7.51 4.82-2.82 8.75-5.35 8.75-5.62 0-0.27-0.11-0.47-0.25-0.43-0.13 0.04-5.65 3.18-12.25 6.98zm-346.5-3.21c1.38 1.12 7.79 4.76 14.25 8.1 6.47 3.33 11.75 5.83 11.75 5.56 0-0.27-3.93-2.51-8.75-4.97-4.81-2.45-11.22-5.87-14.25-7.59-3.02-1.72-4.37-2.22-3-1.1zm35.5 18.72c4.95 2.42 9.45 4.38 10 4.37 0.55-0.02-3.27-2.04-8.5-4.5-5.22-2.46-9.72-4.43-10-4.37-0.27 0.06 3.55 2.08 8.5 4.5zm243.5 14.57c-1.37 0.55-8.12 2.51-15 4.36-6.87 1.85-11.82 3.4-11 3.45 0.83 0.04 7.13-1.46 14-3.35 6.88-1.89 13.63-3.89 15-4.45 1.38-0.56 1.83-1.01 1-1.01-0.82 0-2.62 0.45-4 1zm-198 2.23c0.28 0.23 4.78 1.59 10 3.01 5.23 1.43 10.18 2.57 11 2.54 0.83-0.04-3.22-1.38-9-2.98-5.77-1.6-10.95-2.93-11.5-2.95-0.55-0.02-0.77 0.15-0.5 0.38zm28 7.21c3.03 0.75 7.53 1.58 10 1.87 2.84 0.32 1.52-0.22-3.56-1.47-4.43-1.08-8.93-1.92-10-1.86-1.06 0.06 0.54 0.72 3.56 1.46zm113.5 3.06c-4.95 0.77-13.27 1.79-18.5 2.25-6.89 0.61-8.06 0.88-4.25 0.98 2.89 0.08 10.77-0.58 17.5-1.46 6.74-0.88 14.05-1.95 16.25-2.39 3.32-0.65 3.49-0.79 1-0.79-1.65 0.01-7.05 0.64-12 1.41zm-52.5 4.11c3.58 0.19 9.88 0.19 14 0 4.13-0.19 1.2-0.34-6.5-0.35-7.7 0-11.07 0.16-7.5 0.35z"/>
		<path id="Path 3" class="s2" d="m266.5 749c4.4 4.41 8.23 8.02 8.5 8.02 0.27 0-2.97-3.61-7.2-8.01-4.24-4.41-8.07-8.01-8.5-8.02-0.44 0 2.8 3.6 7.2 8.01z"/>
		<path id="Path 4" class="s3" d="m854.36 510c0 5.23 0.17 7.25 0.38 4.5 0.2-2.75 0.2-7.02 0-9.5-0.21-2.48-0.38-0.23-0.38 5z"/>
		<path id="Path 5" class="s4" d="m265 749.5c3.57 3.59 6.73 6.52 7 6.52 0.27 0-2.29-2.93-5.69-6.51-3.41-3.58-6.56-6.51-7-6.52-0.45 0 2.12 2.92 5.69 6.51z"/>
		<path id="Path 6" fill-rule="evenodd" class="s5" d="m514.5 202.53c10.45 0.22 24.4 1.1 31 1.95 6.6 0.85 16.73 2.47 22.5 3.6 5.77 1.13 17.02 3.86 25 6.08 7.98 2.22 20.13 6.28 27 9.02 6.88 2.74 17.45 7.34 23.5 10.22 6.05 2.88 16.74 8.69 23.75 12.92 7.01 4.22 16.69 10.48 21.5 13.91 4.81 3.43 12.8 9.58 17.75 13.66 4.95 4.09 15.08 13.55 22.5 21.04 7.42 7.49 17.15 18.33 21.61 24.09 4.46 5.77 11.43 15.43 15.5 21.48 4.06 6.05 10.85 17.75 15.07 26 4.22 8.25 9.66 19.95 12.08 26 2.43 6.05 5.88 15.73 7.67 21.5 1.8 5.77 4.56 15.68 6.14 22 1.59 6.32 3.82 17.35 4.97 24.5 1.15 7.15 2.47 18.4 2.93 25 0.46 6.6 0.65 19.65 0.42 29-0.23 9.35-0.88 21.05-1.46 26-0.57 4.95-2.16 15.08-3.54 22.5-1.38 7.42-3.59 17.77-4.91 23-1.31 5.23-4.4 15.35-6.85 22.5-2.45 7.15-6.93 18.4-9.95 25-3.03 6.6-7.63 15.83-10.23 20.5-2.6 4.67-7.42 12.77-10.71 18-3.3 5.23-9.2 13.75-13.12 18.93-3.91 5.19-10.76 13.52-15.21 18.5-4.45 4.99-12.55 13.32-18 18.51-5.45 5.18-14.64 13.23-20.41 17.87-5.77 4.64-16.13 12.16-23 16.72-6.87 4.56-17.67 11.13-24 14.59-6.33 3.46-17.58 8.92-25 12.14-7.42 3.23-18 7.37-23.5 9.22-5.5 1.84-15.4 4.76-22 6.47-6.6 1.72-15.83 3.8-20.5 4.63-4.67 0.82-14.8 2.15-22.5 2.94-7.7 0.79-20.3 1.45-28 1.46-7.7 0.01-19.97-0.54-27.27-1.23-11.08-1.04-13.17-1.5-12.67-2.75 0.33-0.83 3.51-9.15 7.06-18.5 3.56-9.35 8.23-21.5 10.38-27 2.15-5.5 5.46-14.27 7.35-19.5 1.89-5.23 6.81-18.05 10.92-28.5 4.12-10.45 9.11-23.39 14.73-38.5l74.25-0.32c71.49-0.3 74.57-0.39 82.75-2.41 4.67-1.16 12.1-3.43 16.5-5.06 4.4-1.63 11.15-4.54 15-6.47 3.85-1.94 9.81-5.6 13.25-8.13 3.44-2.54 8.76-7.2 11.82-10.36 3.07-3.16 7.66-8.9 10.22-12.75 2.56-3.85 6.05-10.38 7.76-14.5 1.71-4.13 3.85-10.2 4.76-13.5 0.91-3.3 2.12-10.5 2.7-16 0.58-5.5 0.79-12.48 0.47-15.5-0.32-3.02-1.3-8.88-2.17-13-0.87-4.13-2.87-10.65-4.46-14.5-1.58-3.85-4.63-9.92-6.78-13.5-2.15-3.58-6.57-9.65-9.82-13.5-3.26-3.85-8.36-8.85-11.33-11.1-2.98-2.26-9.3-6.31-22.66-13.9l8.06-6.5c4.44-3.57 10.41-9.43 13.28-13 2.87-3.57 7.03-9.88 9.24-14 2.22-4.13 5.16-10.88 6.54-15 1.38-4.13 3.03-11.77 3.66-17 0.86-7.13 0.86-11.87 0-19-0.62-5.23-2.47-13.55-4.1-18.5-1.63-4.95-5.31-12.82-8.18-17.5-2.88-4.68-7.93-11.37-11.24-14.87-3.31-3.5-9.85-8.91-14.52-12.02-4.67-3.11-12.33-7.16-17-9.01-4.67-1.84-12.77-4.31-18-5.48-9.14-2.04-11.9-2.12-73.17-2.12-35.01 0-63.92 0.23-64.24 0.5-0.31 0.27-3.09 7.02-6.17 15-3.08 7.98-19.92 52.07-37.42 98-17.5 45.93-38.86 101.73-47.46 124-8.6 22.27-15.73 40.58-15.84 40.68-0.11 0.1-12.22-31.85-26.9-71-14.69-39.15-37.54-99.98-50.79-135.18-13.25-35.2-24.86-65.57-27.51-71l-22.75-0.25c-22.62-0.25-22.76-0.24-24.23 2-1.38 2.09-0.96 3.57 6.11 21.25 4.18 10.45 18.29 46.68 31.37 80.5 13.07 33.82 27.19 70.27 31.36 81 4.17 10.73 13.64 35.48 21.04 55 7.4 19.52 19.57 51.48 27.04 71 7.47 19.52 13.92 35.81 14.32 36.19 0.41 0.38 9.85 0.83 41.21 1.31l0.99-2.5c0.54-1.37 8.69-22.3 18.11-46.5 9.42-24.2 24.24-62.23 32.93-84.5 8.7-22.27 27.36-69.98 41.48-106 14.13-36.02 26.09-66.29 26.6-67.25 0.86-1.63 3.89-1.73 45.67-1.44 38.88 0.27 45.54 0.53 50.75 2.04 3.3 0.95 8.41 3.18 11.36 4.94 2.95 1.77 7.83 5.69 10.84 8.71 3.03 3.04 6.93 8.4 8.73 12 1.79 3.57 3.85 9.88 4.58 14 1.07 6.01 1.1 8.99 0.14 15-0.66 4.13-2.47 10.2-4.03 13.5-1.56 3.3-5.03 8.89-7.73 12.42-2.69 3.53-6.69 7.97-8.89 9.87-2.2 1.9-6.7 4.74-10 6.31-3.3 1.57-9.6 3.77-14 4.89-7.41 1.88-11.07 2.03-49.5 2.04-22.83 0-41.98 0.33-42.57 0.74-0.58 0.4-2.48 4.33-4.22 8.73-1.74 4.4-5.83 15.43-9.09 24.5-3.26 9.08-9.95 26.85-14.87 39.5-4.92 12.65-9.52 24.8-10.21 27-0.69 2.2-2.98 8.05-5.08 13-2.1 4.95-6.29 15.3-9.31 23-3.03 7.7-7.3 18.73-9.49 24.5-2.19 5.77-8.1 21.08-13.14 34-5.03 12.92-10.52 27.33-12.19 32-1.67 4.67-7.33 19.3-12.57 32.5-5.24 13.2-12.11 30.98-15.27 39.5-3.16 8.52-7.04 18.77-8.62 22.77-2.82 7.14-2.93 7.26-5.87 6.63-1.65-0.36-9.07-2.59-16.5-4.97-7.43-2.39-18-6.2-23.5-8.47-5.5-2.28-16.74-7.59-24.98-11.8-8.23-4.21-20.38-11.2-27-15.52-6.61-4.33-17.42-12.19-24.02-17.48-6.6-5.29-17.35-14.8-23.88-21.14-6.53-6.33-16.22-16.92-21.54-23.52-5.31-6.6-13.53-17.85-18.27-25-4.74-7.15-10.98-17.27-13.85-22.5-2.88-5.23-7.6-14.9-10.48-21.5-2.88-6.6-7.28-18.08-9.79-25.5-2.5-7.42-5.9-18.9-7.56-25.5-1.65-6.6-3.71-16.05-4.56-21-0.86-4.95-2.23-15.3-3.05-23-0.83-7.7-1.5-21.42-1.51-30.5 0-9.07 0.69-22.57 1.55-30 0.86-7.43 2.7-19.35 4.09-26.5 1.39-7.15 4.46-19.75 6.83-28 2.37-8.25 5.9-19.27 7.85-24.5 1.95-5.23 5.86-14.45 8.69-20.5 2.82-6.05 7.65-15.5 10.72-21 3.07-5.5 9.08-15.18 13.36-21.5 4.28-6.32 10.82-15.32 14.53-20 3.71-4.68 13.07-14.81 20.81-22.53 7.73-7.72 18.79-17.8 24.56-22.4 5.77-4.61 16.35-12.25 23.5-16.98 7.15-4.72 19.3-11.82 27-15.76 7.7-3.94 19.63-9.47 26.5-12.29 6.88-2.82 17.9-6.86 24.5-8.97 6.6-2.12 17.18-4.99 23.5-6.4 6.32-1.41 16.68-3.28 23-4.16 6.32-0.88 15.77-2.01 21-2.5 5.23-0.49 18.05-0.7 28.5-0.48zm70.61 312.47l34.7 0.02c30.87 0.02 35.68 0.24 43.69 2.01 5.55 1.22 12.64 3.79 18.5 6.69 7.56 3.74 11.03 6.23 17.02 12.24 4.98 4.99 8.74 9.91 11.12 14.54 1.98 3.85 4.41 10.37 5.4 14.5 1.03 4.3 1.78 11.13 1.75 16-0.03 6.86-0.61 10.05-2.98 16.5-1.61 4.4-4.48 10.25-6.36 13-1.88 2.75-5.98 7.48-9.1 10.5-3.12 3.02-8.08 6.96-11.01 8.74-2.94 1.79-8.04 4.36-11.34 5.72-3.3 1.36-8.7 2.98-12 3.6-3.3 0.63-12.08 1.2-19.5 1.29-7.42 0.08-34.76 0.04-108-0.35l1.84-4.75c1.01-2.61 4.89-12.63 8.61-22.25 3.73-9.63 11.05-28.52 16.28-42 5.22-13.48 10.62-27.65 11.99-31.5 1.37-3.85 3.1-8.35 3.84-10 0.75-1.65 2.3-5.59 3.45-8.75z"/>
		<path id="Path 7" fill-rule="evenodd" class="s0" d="m322.65 330.21c0.08-0.11 0.11 0.13 0.05 0.54-0.05 0.41 0.22 1.76 0.6 3 0.45 1.44 1.14 1.98 1.94 1.5q1.23-0.74 0.5 0.5c-0.41 0.69-0.51 2.15-0.24 3.25 0.28 1.1 0.84 1.83 1.25 1.62 0.41-0.21 0.79 0.13 0.84 0.75 0.05 0.62 0.17 1.92 0.25 2.88 0.09 0.96 0.61 1.52 1.16 1.25 0.62-0.31 0.73 0.36 0.29 1.75-0.58 1.83-0.44 2.06 0.74 1.25 1.07-0.74 1.25-0.67 0.71 0.25-0.41 0.69-0.51 2.15-0.24 3.25 0.32 1.27 0.95 1.73 1.74 1.25q1.23-0.74 0.5 0.5c-0.41 0.69-0.18 2.8 0.51 4.69 0.69 1.89 1.69 3.13 2.24 2.75 0.58-0.41 0.69-0.18 0.25 0.56-0.41 0.69-0.29 2.83 0.26 4.75 0.55 1.93 1.45 3.27 2 3 0.62-0.31 0.73 0.36 0.29 1.75-0.58 1.83-0.44 2.06 0.74 1.25 1.07-0.74 1.25-0.67 0.71 0.25-0.41 0.69-0.51 2.15-0.24 3.25 0.32 1.27 0.95 1.73 1.74 1.25q1.23-0.74 0.5 0.5c-0.41 0.69-0.29 2.83 0.26 4.75 0.55 1.93 1.45 3.27 2 3 0.62-0.31 0.73 0.36 0.29 1.75-0.58 1.83-0.44 2.07 0.75 1.26 1.07-0.73 1.26-0.66 0.71 0.25-0.41 0.68-0.52 2.14-0.25 3.24 0.32 1.27 0.95 1.73 1.74 1.25q1.23-0.74 0.5 0.5c-0.41 0.69-0.18 2.8 0.51 4.69 0.69 1.89 1.69 3.13 2.24 2.75 0.58-0.41 0.69-0.18 0.25 0.56-0.41 0.69-0.18 2.8 0.51 4.69 0.69 1.89 1.59 3.24 2 3 0.41-0.24 0.43 0.57 0.04 1.81-0.58 1.83-0.44 2.06 0.74 1.25 1.07-0.74 1.25-0.67 0.71 0.25-0.41 0.69-0.51 2.15-0.24 3.25 0.27 1.1 0.95 1.77 1.5 1.5 0.62-0.31 0.73 0.36 0.29 1.75-0.58 1.83-0.44 2.07 0.75 1.26 1.07-0.73 1.26-0.66 0.71 0.25-0.41 0.68-0.52 2.14-0.25 3.24 0.27 1.1 0.95 1.77 1.5 1.5 0.62-0.31 0.73 0.36 0.29 1.75-0.58 1.83-0.44 2.06 0.74 1.25 1.07-0.74 1.25-0.67 0.71 0.25-0.41 0.69-0.51 2.15-0.24 3.25 0.28 1.1 0.95 1.77 1.5 1.5 0.62-0.31 0.73 0.36 0.29 1.75-0.58 1.83-0.44 2.06 0.74 1.25q1.45-1 0.76 0c-0.38 0.55-0.15 2.66 0.51 4.69 0.68 2.08 1.63 3.39 2.19 3 0.58-0.41 0.69-0.18 0.25 0.56-0.41 0.69-0.51 2.15-0.24 3.25 0.28 1.1 0.95 1.77 1.5 1.5 0.62-0.31 0.73 0.36 0.29 1.75-0.58 1.83-0.44 2.07 0.75 1.26 1.07-0.73 1.26-0.66 0.71 0.25-0.41 0.68 0.04 3.29 1 5.79 0.98 2.55 2.15 4.19 2.66 3.75 0.52-0.45 0.62-0.26 0.25 0.45-0.36 0.69-0.1 2.8 0.59 4.69 0.69 1.89 1.48 3.29 1.75 3.12 0.28-0.17 0.54 0.19 0.59 0.81 0.05 0.62 0.17 1.92 0.25 2.88 0.09 0.96 0.61 1.52 1.16 1.25 0.62-0.31 0.73 0.36 0.29 1.75-0.43 1.36-0.33 2 0.25 1.62 0.53-0.34 1-0.12 1.05 0.5 0.05 0.62 0.17 1.92 0.25 2.88 0.09 0.96 0.61 1.52 1.16 1.25 0.62-0.31 0.73 0.36 0.29 1.75-0.58 1.83-0.44 2.07 0.75 1.26 1.07-0.73 1.26-0.66 0.71 0.25-0.41 0.68-0.19 2.79 0.5 4.68 0.69 1.89 1.59 3.24 2 3 0.41-0.24 0.43 0.57 0.04 1.81-0.58 1.83-0.44 2.06 0.74 1.25 1.07-0.74 1.25-0.67 0.71 0.25-0.41 0.69-0.51 2.15-0.24 3.25 0.28 1.1 0.95 1.77 1.5 1.5 0.62-0.31 0.73 0.36 0.29 1.75-0.58 1.83-0.44 2.06 0.74 1.25 1.07-0.74 1.25-0.67 0.71 0.25-0.41 0.69-0.51 2.15-0.24 3.25 0.28 1.1 0.95 1.77 1.5 1.5 0.62-0.31 0.73 0.36 0.29 1.75-0.43 1.36-0.33 2 0.25 1.62 0.53-0.34 1-0.12 1.05 0.5 0.05 0.62 0.17 1.92 0.25 2.88 0.1 1.11 0.61 1.48 1.4 1q1.23-0.74 0.5 0.5c-0.41 0.69-0.18 2.8 0.51 4.69 0.69 1.89 1.69 3.13 2.24 2.75 0.58-0.41 0.69-0.18 0.25 0.56-0.41 0.69-0.18 2.8 0.51 4.69 0.69 1.89 1.48 3.29 1.75 3.12 0.28-0.17 0.54 0.19 0.59 0.81 0.05 0.62 0.17 1.92 0.25 2.88 0.09 0.96 0.61 1.52 1.16 1.25 0.62-0.31 0.73 0.36 0.29 1.75-0.58 1.83-0.44 2.06 0.74 1.25q1.45-1 0.76 0c-0.38 0.55-0.27 2.69 0.26 4.75 0.65 2.58 1.34 3.52 2.19 3q1.23-0.74 0.5 0.5c-0.41 0.69-0.18 2.8 0.51 4.69 0.69 1.89 1.69 3.13 2.24 2.75 0.58-0.41 0.69-0.18 0.25 0.56-0.41 0.69-0.29 2.83 0.26 4.75 0.68 2.38 1.4 3.26 2.24 2.75q1.23-0.74 0.5 0.5c-0.41 0.69-0.18 2.8 0.51 4.69 0.69 1.89 1.59 3.24 2 3 0.41-0.24 0.43 0.57 0.04 1.81-0.43 1.36-0.33 2 0.25 1.62 0.53-0.34 1-0.12 1.05 0.5 0.05 0.62 0.17 1.92 0.25 2.88 0.1 1.11 0.61 1.48 1.4 1q1.23-0.74 0.5 0.5c-0.41 0.69-0.29 2.83 0.26 4.75 0.68 2.38 1.4 3.26 2.24 2.75q1.23-0.74 0.5 0.5c-0.41 0.69-0.18 2.8 0.51 4.69 0.69 1.9 1.7 3.13 2.25 2.76 0.63-0.43 0.69-0.13 0.14 0.81-0.52 0.91-0.33 2.57 0.5 4.28 0.75 1.53 1.7 2.77 2.11 2.75 0.41-0.02 0.52 0.41 0.25 0.96-0.27 0.55-0.05 1.23 0.5 1.5 0.55 0.27 1 0.05 1-0.5 0-0.55 0.54-0.66 1.21-0.25 0.88 0.54 1.02 0.13 0.5-1.5-0.44-1.39-0.33-2.06 0.29-1.75 0.55 0.27 1.07-0.29 1.16-1.25 0.08-0.96 0.2-2.26 0.25-2.88 0.05-0.62 0.43-0.96 0.84-0.75 0.41 0.21 0.82-0.41 0.91-1.37 0.08-0.96 0.2-2.26 0.25-2.88 0.05-0.62 0.32-0.98 0.59-0.81 0.28 0.17 1.06-1.23 1.75-3.12 0.69-1.89 0.91-4 0.5-4.68q-0.74-1.23 0.5-0.5c0.79 0.47 1.31 0.1 1.41-1.01 0.08-0.96 0.2-2.26 0.25-2.88 0.05-0.62 0.52-0.84 1.05-0.5 0.58 0.38 0.68-0.26 0.25-1.62-0.44-1.39-0.33-2.06 0.29-1.75 0.55 0.27 1.23-0.4 1.5-1.5 0.28-1.1 0.17-2.56-0.24-3.25q-0.73-1.24 0.5-0.5c0.79 0.48 1.3 0.11 1.4-1 0.08-0.96 0.2-2.26 0.25-2.88 0.05-0.62 0.43-0.96 0.84-0.75 0.41 0.21 1.2-1.2 1.75-3.12 0.55-1.92 0.66-4.06 0.25-4.74q-0.74-1.23 0.5-0.5c0.79 0.47 1.43 0.01 1.75-1.26 0.28-1.1 0.17-2.56-0.24-3.25q-0.73-1.24 0.5-0.5c0.79 0.48 1.42 0.02 1.74-1.25 0.28-1.1 0.16-2.56-0.25-3.24-0.44-0.74-0.34-0.96 0.25-0.56 0.55 0.37 1.56-0.86 2.25-2.76 0.69-1.89 0.92-4 0.51-4.69q-0.73-1.24 0.5-0.5c0.79 0.48 1.3 0.11 1.4-1 0.08-0.96 0.2-2.26 0.25-2.88 0.05-0.62 0.52-0.84 1.05-0.5 0.58 0.38 0.68-0.26 0.25-1.62-0.44-1.39-0.33-2.06 0.29-1.75 0.55 0.27 1.23-0.4 1.5-1.5 0.28-1.1 0.17-2.56-0.24-3.25-0.44-0.74-0.33-0.97 0.25-0.56 0.55 0.38 1.55-0.86 2.24-2.75 0.69-1.89 0.91-4 0.5-4.68q-0.74-1.23 0.5-0.5c0.79 0.47 1.43 0.01 1.75-1.26 0.28-1.1 0.16-2.56-0.25-3.24q-0.74-1.23 0.5-0.5c0.79 0.47 1.31 0.1 1.41-1.01 0.08-0.96 0.08-2.31 0-3-0.09-0.69 0.29-1.25 0.84-1.25 0.55 0 0.78-0.67 0.5-1.5-0.27-0.82-0.05-1.27 0.5-1 0.55 0.27 1.23-0.4 1.5-1.5 0.28-1.1 0.17-2.56-0.24-3.25-0.44-0.74-0.33-0.97 0.25-0.56 0.55 0.38 1.55-0.86 2.24-2.75 0.69-1.89 0.92-4 0.51-4.69q-0.73-1.24 0.5-0.5c0.79 0.48 1.3 0.11 1.4-1 0.08-0.96 0.2-2.26 0.25-2.88 0.05-0.62 0.52-0.84 1.05-0.5 0.58 0.38 0.68-0.26 0.25-1.62-0.44-1.39-0.33-2.06 0.29-1.75 0.55 0.27 1.23-0.4 1.5-1.5 0.27-1.1 0.17-2.56-0.24-3.25-0.44-0.74-0.33-0.97 0.25-0.56 0.55 0.38 1.55-0.86 2.24-2.75 0.69-1.89 0.92-4 0.51-4.69-0.44-0.74-0.33-0.97 0.25-0.56 0.55 0.38 1.55-0.86 2.24-2.75 0.69-1.89 0.91-4 0.5-4.68q-0.74-1.23 0.5-0.5c0.79 0.47 1.31 0.1 1.41-1.01 0.08-0.96 0.2-2.26 0.25-2.88 0.05-0.62 0.52-0.84 1.05-0.5 0.58 0.38 0.68-0.26 0.25-1.62-0.44-1.39-0.33-2.06 0.29-1.75 0.55 0.27 1.07-0.29 1.16-1.25 0.08-0.96 0.2-2.26 0.25-2.88 0.05-0.62 0.32-0.98 0.59-0.81 0.27 0.17 1.06-1.23 1.75-3.12 0.69-1.89 0.92-4 0.51-4.69-0.44-0.74-0.33-0.97 0.25-0.56 0.55 0.38 1.55-0.86 2.24-2.75 0.69-1.89 0.91-4 0.5-4.68q-0.74-1.23 0.5-0.5c0.79 0.47 1.43 0.01 1.75-1.26 0.27-1.1 0.17-2.56-0.24-3.25q-0.73-1.24 0.5-0.5c0.79 0.48 1.3 0.11 1.4-1 0.08-0.96 0.2-2.26 0.25-2.88 0.05-0.62 0.52-0.84 1.05-0.5 0.58 0.38 0.68-0.26 0.25-1.62-0.44-1.39-0.33-2.06 0.29-1.75 0.55 0.27 1.07-0.29 1.16-1.25 0.08-0.96 0.2-2.26 0.25-2.88 0.05-0.62 0.32-0.98 0.59-0.81 0.27 0.17 1.06-1.23 1.75-3.12 0.69-1.89 0.92-4 0.51-4.69q-0.73-1.24 0.5-0.5c0.79 0.48 1.3 0.11 1.4-1 0.08-0.96 0.2-2.26 0.25-2.88 0.05-0.62 0.52-0.84 1.05-0.5 0.58 0.38 0.68-0.26 0.25-1.62-0.44-1.39-0.33-2.06 0.29-1.75 0.55 0.27 1.45-1.07 2-3 0.55-1.92 0.67-4.06 0.26-4.75q-0.73-1.24 0.5-0.5c0.79 0.48 1.42 0.02 1.74-1.25 0.27-1.1 0.17-2.56-0.24-3.25-0.44-0.74-0.33-0.97 0.25-0.56 0.56 0.39 1.51-0.92 2.19-3 0.66-2.03 0.89-4.14 0.51-4.69-0.38-0.55-0.24-0.69 0.3-0.31 0.55 0.38 1.55-0.86 2.24-2.75 0.69-1.89 0.92-4 0.51-4.69q-0.73-1.24 0.5-0.5c0.79 0.48 1.3 0.11 1.4-1 0.08-0.96 0.2-2.26 0.25-2.88 0.05-0.62 0.52-0.84 1.05-0.5 0.58 0.38 0.68-0.26 0.25-1.62-0.44-1.39-0.33-2.06 0.29-1.75 0.55 0.27 1.07-0.29 1.16-1.25 0.08-0.96 0.2-2.26 0.25-2.88 0.05-0.62 0.43-0.96 0.84-0.75 0.41 0.21 0.82-0.41 0.91-1.37 0.08-0.96 0.2-2.26 0.25-2.88 0.05-0.62 0.32-0.98 0.59-0.81 0.27 0.17 1.06-1.23 1.75-3.12 0.69-1.89 0.92-4 0.51-4.69q-0.73-1.24 0.5-0.5c0.79 0.48 1.42 0.02 1.74-1.25 0.27-1.1 0.17-2.56-0.24-3.25-0.54-0.92-0.36-0.99 0.71-0.25 1.18 0.81 1.32 0.58 0.74-1.25-0.44-1.39-0.33-2.06 0.29-1.75 0.55 0.27 1.23-0.4 1.5-1.5 0.27-1.1 0.17-2.56-0.24-3.25-0.44-0.74-0.34-0.96 0.25-0.54 0.54 0.39 1.55-0.4 3.49-4.21h66c50.34 0 65.82 0.28 65.25 1.18-0.54 0.84 0.27 1.05 2.9 0.75 2.01-0.24 3.47-0.09 3.25 0.32-0.22 0.41 1.18 0.98 3.1 1.25 1.92 0.27 4.06 0.16 4.74-0.25q1.23-0.74 0.5 0.5-0.73 1.25 1.76 1.75c1.38 0.27 3.06 0.16 3.74-0.25q1.23-0.74 0.5 0.5c-0.47 0.79-0.1 1.31 1.01 1.41 0.96 0.08 2.26 0.2 2.88 0.25 0.62 0.05 0.84 0.53 0.5 1.07-0.39 0.61 0.12 0.68 1.37 0.18 1.1-0.44 1.65-0.43 1.21 0.02-0.43 0.45 0.92 1.6 3 2.54 2.09 0.95 4.24 1.41 4.79 1.01 0.6-0.42 0.7-0.21 0.25 0.53-0.43 0.72-0.22 1.29 0.5 1.36 0.69 0.06 1.59 0.06 2 0 0.41-0.07 0.64 0.44 0.5 1.13-0.14 0.72 0.59 1.15 1.75 1.02 1.1-0.13 1.68 0.09 1.28 0.5-0.4 0.4 1.18 2.13 3.5 3.83 2.32 1.71 4.52 3.06 4.89 3 0.37-0.05 1.82 1.03 3.22 2.4 1.41 1.38 2.47 2.73 2.36 3-0.11 0.27 0.58 1.74 1.53 3.25 0.94 1.51 2.06 2.57 2.47 2.35 0.41-0.23 0.8 0.11 0.86 0.75 0.05 0.63 1.07 2.84 2.25 4.9 1.18 2.06 2.59 3.52 3.14 3.25 0.6-0.3 0.71 0.2 0.27 1.25-0.52 1.24-0.37 1.53 0.5 1 0.87-0.53 1.02-0.24 0.5 1-0.52 1.24-0.37 1.53 0.5 1 0.87-0.53 1.02-0.24 0.5 1-0.52 1.24-0.37 1.53 0.5 1 0.87-0.53 1.02-0.24 0.5 1-0.44 1.06-0.34 1.5 0.25 1.12 0.54-0.34 1.02-0.12 1.07 0.5 0.05 0.62 0.17 1.92 0.25 2.88 0.1 1.11 0.62 1.48 1.41 1.01q1.24-0.73 0.5 0.5c-0.41 0.68 0.22 4.73 1.41 8.99 1.79 6.45 2.13 10.14 2 22-0.09 7.84-0.27 15.78-0.41 17.65-0.14 1.9-0.67 3.12-1.2 2.75-0.55-0.38-0.76 0.45-0.5 1.98 0.27 1.55 0.05 2.37-0.51 2-0.59-0.38-0.68 0.34-0.24 1.87 0.4 1.38 0.38 2.16-0.04 1.75-0.42-0.41-2.13 2.51-3.8 6.5-1.67 3.99-4.92 9.95-7.21 13.25-2.29 3.3-3.85 6.37-3.46 6.83 0.39 0.46 0.25 0.69-0.31 0.5-0.56-0.18-3.71 2.36-7 5.65-3.29 3.29-5.83 6.44-5.65 7 0.19 0.56-0.04 0.7-0.5 0.3-0.46-0.39-2.74 0.73-5.07 2.5-3.4 2.59-3.99 3.47-3 4.51 0.68 0.72 0.79 1.3 0.24 1.29-0.55 0 0.24 0.66 1.75 1.46 1.51 0.8 3.31 1.13 4 0.72 0.92-0.55 0.99-0.36 0.25 0.73-0.79 1.16-0.64 1.32 0.75 0.74 1.05-0.44 1.55-0.33 1.25 0.27-0.27 0.55 0.51 1.31 1.75 1.7 1.24 0.38 2.59 0.61 3 0.5 0.41-0.11 0.56 0.14 0.32 0.55-0.24 0.41 1.68 2.1 4.25 3.75 2.57 1.65 5.02 2.89 5.43 2.75 0.41-0.14 0.64 0.09 0.5 0.51-0.14 0.41 2 2.99 4.75 5.73 2.75 2.73 5.45 4.98 6 4.99 0.55 0.01 1 0.47 1.01 1.02 0 0.55 1.01 2.69 2.25 4.75 1.23 2.06 2.58 3.58 2.99 3.37 0.41-0.21 0.75 0.36 0.75 1.25 0 0.9 0.56 1.52 1.25 1.38 0.69-0.14 1.02 0.2 0.75 0.75-0.27 0.55 0.29 2.35 1.25 4 0.96 1.65 2.16 2.67 2.66 2.25 0.51-0.42 0.62-0.19 0.25 0.5-0.36 0.69-0.21 2.6 0.34 4.25q1 2.99 2.24 2.25 1.23-0.74 0.5 0.5c-0.41 0.69 0.27 4.87 1.51 9.29 1.24 4.42 2.48 7.84 2.75 7.59 0.27-0.25 0.31 1.42 0.08 3.71-0.24 2.41-0.03 3.89 0.5 3.51 0.54-0.39 0.92 3.78 0.92 10.16 0 5.94-0.29 10.28-0.64 9.65-0.35-0.64-0.91 1.43-1.25 4.59-0.33 3.16-0.28 6.31 0.13 7 0.54 0.92 0.36 0.99-0.7 0.25-1.16-0.81-1.35-0.5-0.99 1.63 0.25 1.45 0.22 2.45-0.05 2.23-0.27-0.23-1.29 1.96-2.26 4.87-0.97 2.9-1.53 5.83-1.25 6.52 0.32 0.79 0.05 0.97-0.72 0.5-0.87-0.53-1.02-0.24-0.5 1 0.4 0.96 0.39 1.54-0.02 1.29-0.41-0.25-1.31 0.65-2 2-0.69 1.35-0.91 3.02-0.5 3.7 0.55 0.91 0.36 0.98-0.73 0.25-1.17-0.79-1.33-0.63-0.75 0.76 0.4 0.96 0.39 1.56-0.02 1.33-0.41-0.23-2.55 2.34-4.75 5.72-2.2 3.38-3.89 6.5-3.75 6.92 0.14 0.43-0.09 0.58-0.5 0.33-0.41-0.24-3.11 1.9-5.99 4.75-2.89 2.86-4.91 5.57-4.5 6.03 0.41 0.46 0.29 0.69-0.26 0.51-0.55-0.18-2.69 0.68-4.75 1.92-2.06 1.23-3.57 2.58-3.35 2.99 0.23 0.41-0.11 0.81-0.75 0.88-0.63 0.08-5.09 2.1-9.91 4.5-4.81 2.41-8.41 4.71-8 5.13 0.42 0.42-0.36 0.44-1.74 0.04-2.05-0.59-2.32-0.46-1.5 0.73 0.74 1.07 0.67 1.25-0.25 0.71-0.69-0.41-2.15-0.51-3.25-0.24-1.1 0.27-1.77 0.95-1.5 1.5 0.31 0.62-0.36 0.73-1.75 0.29-1.63-0.52-2.04-0.38-1.5 0.5 0.54 0.88 0.13 1.01-1.5 0.5-1.83-0.58-2.06-0.44-1.25 0.74 0.74 1.07 0.67 1.25-0.25 0.71-0.69-0.41-2.83-0.51-4.75-0.24-2.45 0.35-3.28 0.88-2.76 1.75q0.73 1.24-0.5 0.5c-0.68-0.41-3.46-0.41-6.17 0-2.93 0.45-4.66 1.15-4.26 1.75 0.4 0.59 0.16 0.69-0.57 0.25-0.68-0.41-33.64-0.75-145.24-0.75l1.5-3.5c0.83-1.92 1.5-4.4 1.5-5.5 0-1.1 0.44-2.11 0.97-2.25 0.54-0.14 1.1-1.15 1.27-2.25 0.16-1.1 1.86-6.17 7.26-20.52l61.5-0.01c37.6 0 60.92-0.36 60-0.92-0.96-0.58 0.31-0.69 3.5-0.29 3.04 0.38 4.75 0.25 4.37-0.32-0.37-0.54 0.48-0.75 2-0.49 1.87 0.31 2.41 0.1 1.88-0.75-0.54-0.87-0.12-1 1.5-0.49 1.63 0.52 2.04 0.38 1.5-0.5-0.54-0.88-0.13-1.01 1.5-0.5 1.83 0.58 2.07 0.44 1.26-0.75-0.73-1.07-0.66-1.26 0.25-0.71 0.68 0.41 3.24-0.26 5.69-1.5 2.45-1.24 4.13-2.69 3.75-3.24-0.42-0.59-0.19-0.69 0.55-0.25 0.69 0.41 2.15 0.18 3.25-0.51 1.1-0.69 1.77-1.59 1.5-2-0.28-0.41-0.16-0.54 0.25-0.28 0.41 0.26 1.54 0.04 2.5-0.5 1.04-0.57 1.45-1.48 1.01-2.22q-0.73-1.24 0.5-0.5c0.79 0.48 3.26-1.27 6.74-4.75 3.48-3.48 5.23-5.95 4.75-6.74q-0.74-1.23 0.5-0.5c0.78 0.46 1.81-0.2 2.75-1.76 0.83-1.37 1.16-3.06 0.75-3.74-0.55-0.91-0.36-0.98 0.73-0.25 1.17 0.79 1.33 0.63 0.75-0.76-0.52-1.24-0.37-1.53 0.5-1 0.87 0.53 1.02 0.24 0.5-1-0.44-1.05-0.33-1.55 0.27-1.25 0.55 0.27 1.23-0.4 1.5-1.5 0.28-1.1 0.17-2.56-0.24-3.25-0.54-0.92-0.36-0.99 0.71-0.25 1.18 0.81 1.32 0.58 0.74-1.25-0.51-1.63-0.38-2.04 0.5-1.5 0.88 0.54 1.02 0.13 0.5-1.5-0.44-1.39-0.33-2.06 0.29-1.75 0.55 0.27 1.23-0.96 1.51-2.75 0.28-1.79 0.5-6.17 0.49-9.75-0.01-3.58-0.35-8.16-0.76-10.18-0.41-2.03-0.96-3.54-1.24-3.37-0.27 0.17-0.3-0.87-0.05-2.32 0.36-2.13 0.17-2.44-1-1.64-1.06 0.73-1.25 0.66-0.7-0.25 0.41-0.68 0.08-3.49-0.75-6.24-1.05-3.49-1.88-4.77-2.74-4.25q-1.23 0.74-0.5-0.5c0.41-0.69 0.18-2.15-0.51-3.25-0.69-1.1-1.58-1.66-1.98-1.25-0.41 0.41-0.63-0.15-0.5-1.25 0.13-1.16-0.3-1.89-1.02-1.75-0.69 0.14-1.04-0.09-0.79-0.5 0.25-0.41-0.2-1.76-1-3-0.8-1.24-1.91-2.02-2.46-1.75-0.55 0.27-1.56-0.29-2.25-1.25-1.15-1.61-1.09-1.63 2.75 1.22l-2-2.22c-1.1-1.21-2.45-2.11-3-1.98-0.55 0.13-0.89-0.33-0.75-1.02 0.14-0.69-1.21-2.33-3-3.65-1.79-1.32-5.72-3.85-8.75-5.62-3.02-1.77-6.47-3.28-7.65-3.35-1.19-0.07-1.98-0.47-1.75-0.88 0.22-0.41-2.86-1.7-6.85-2.86-4.19-1.22-8.3-1.84-9.75-1.47-1.74 0.45-2.04 0.36-1-0.28 1.09-0.66 0.12-1.08-3.5-1.53-2.75-0.35-27.16-0.62-103.5-0.61l2.52-7.25c1.38-3.99 2.28-7.81 2-8.5-0.33-0.78-0.07-0.97 0.69-0.5 0.88 0.54 1.02 0.13 0.5-1.5-0.44-1.39-0.33-2.06 0.29-1.75 0.55 0.27 1.07-0.29 1.16-1.25 0.08-0.96 0.2-2.26 0.25-2.88 0.05-0.62 0.43-0.96 0.84-0.75 0.41 0.21 0.82-0.41 0.91-1.37 0.08-0.96 0.09-2.42 0.02-3.25-0.08-0.82 0.18-1.15 0.59-0.72 0.4 0.43 1.29-0.58 3.23-5.28l40.25-0.01c22.14-0.01 41.91-0.34 43.93-0.75 2.03-0.41 3.54-0.97 3.37-1.24-0.17-0.27 0.87-0.3 2.32-0.05 1.52 0.26 2.36 0.04 2-0.5-0.37-0.55 0.47-0.76 2-0.5 2.13 0.36 2.44 0.17 1.64-1-0.73-1.06-0.66-1.25 0.25-0.7 0.68 0.41 2.37 0.52 3.74 0.25 1.38-0.27 2.28-0.95 2-1.5-0.27-0.55 0.17-0.77 1-0.5 0.83 0.27 3.3-0.51 5.51-1.75 2.2-1.24 3.67-2.66 3.25-3.16-0.44-0.53-0.13-0.58 0.74-0.13 1.08 0.56 3.24-1.06 7.75-5.84 3.95-4.18 5.98-7.08 5.51-7.87q-0.73-1.24 0.5-0.5c0.81 0.49 2.11-0.64 3.74-3.25 1.38-2.2 3.67-6.81 5.09-10.25 1.43-3.44 2.44-7.21 2.25-8.38-0.19-1.17 0-1.96 0.41-1.75 0.41 0.21 0.86-1.98 1-4.87 0.14-2.89 0.14-7.16 0-9.5-0.14-2.34-0.59-4.08-1-3.87-0.41 0.21-0.55-0.8-0.3-2.25 0.31-1.87 0.1-2.41-0.75-1.88-0.76 0.47-0.99 0.29-0.62-0.5 0.32-0.69-0.69-3.82-2.25-6.96-1.56-3.14-3.17-5.51-3.58-5.25-0.41 0.25-0.7 0.12-0.63-0.29 0.06-0.41 0.06-1.31 0-2-0.07-0.72-0.64-0.93-1.36-0.5q-1.23 0.74-0.5-0.5c0.46-0.78-0.95-2.94-3.76-5.75-2.47-2.48-4.95-4.27-5.5-4-0.55 0.27-0.89 0-0.75-0.6 0.14-0.61-2.45-2.64-5.75-4.52-3.3-1.88-6.79-3.18-7.75-2.9q-1.77 0.53-1-0.68c0.53-0.85-0.01-1.06-1.88-0.75-1.45 0.25-2.46 0.11-2.25-0.3 0.21-0.41-0.86-1.02-2.37-1.34-1.51-0.33-22.55-0.83-46.75-1.1-41.89-0.49-44.09-0.42-45.78 1.34-0.98 1.02-1.88 3.04-2 4.5-0.12 1.46-0.56 2.48-0.97 2.25-0.41-0.22-0.97 0.5-1.25 1.6-0.27 1.1-0.17 2.56 0.24 3.25q0.73 1.24-0.5 0.5c-0.79-0.48-1.3-0.11-1.4 1-0.08 0.96-0.2 2.26-0.25 2.88-0.05 0.62-0.43 0.96-0.84 0.75-0.41-0.21-0.82 0.41-0.91 1.37-0.08 0.96-0.2 2.26-0.25 2.88-0.05 0.62-0.52 0.84-1.05 0.5-0.58-0.38-0.68 0.26-0.25 1.62 0.44 1.39 0.33 2.06-0.29 1.75-0.55-0.27-1.07 0.29-1.16 1.25-0.08 0.96-0.2 2.26-0.25 2.88-0.05 0.62-0.43 0.96-0.84 0.75-0.41-0.21-0.82 0.41-0.91 1.37-0.08 0.96-0.2 2.26-0.25 2.88-0.05 0.62-0.43 0.96-0.84 0.75-0.41-0.21-0.97 0.52-1.25 1.62-0.27 1.1-0.17 2.56 0.24 3.25q0.73 1.24-0.5 0.5c-0.79-0.48-1.3-0.11-1.4 1-0.08 0.96-0.2 2.26-0.25 2.88-0.05 0.62-0.31 0.98-0.59 0.81-0.27-0.17-1.06 1.23-1.75 3.12-0.69 1.89-0.92 4-0.51 4.69q0.73 1.24-0.5 0.5c-0.79-0.48-1.42-0.02-1.74 1.25-0.27 1.1-0.16 2.56 0.25 3.24q0.74 1.23-0.5 0.5c-0.79-0.47-1.43-0.01-1.75 1.26-0.27 1.1-0.17 2.56 0.24 3.25q0.73 1.24-0.5 0.5c-0.79-0.48-1.42-0.02-1.74 1.25-0.27 1.1-0.17 2.56 0.24 3.25 0.44 0.74 0.33 0.97-0.25 0.56-0.55-0.38-1.55 0.86-2.24 2.75-0.69 1.89-0.92 4-0.51 4.69q0.73 1.24-0.5 0.5c-0.79-0.48-1.3-0.11-1.4 1-0.08 0.96-0.2 2.26-0.25 2.88-0.05 0.62-0.43 0.96-0.84 0.75-0.41-0.21-0.82 0.41-0.91 1.37-0.08 0.96-0.2 2.26-0.25 2.88-0.05 0.62-0.43 0.96-0.84 0.75-0.41-0.21-0.82 0.41-0.91 1.37-0.08 0.96-0.2 2.26-0.25 2.88-0.05 0.62-0.46 0.93-0.92 0.69-0.46-0.24-0.87 0.38-0.91 1.37-0.04 1 0 2.37 0.08 3.06 0.09 0.69-0.29 1.25-0.84 1.25-0.55 0-0.77 0.68-0.5 1.5 0.28 0.83 0.05 1.27-0.5 1-0.55-0.27-1.07 0.29-1.16 1.25-0.08 0.96-0.2 2.26-0.25 2.88-0.05 0.62-0.43 0.96-0.84 0.75-0.41-0.21-0.82 0.41-0.91 1.37-0.08 0.96-0.2 2.26-0.25 2.88-0.05 0.62-0.43 0.96-0.84 0.75-0.41-0.21-0.97 0.52-1.25 1.62-0.27 1.1-0.16 2.56 0.25 3.24 0.55 0.91 0.36 0.98-0.71 0.25-1.19-0.81-1.33-0.57-0.75 1.26 0.44 1.39 0.33 2.06-0.29 1.75-0.55-0.27-1.22 0.4-1.5 1.5-0.27 1.1-0.17 2.56 0.24 3.25q0.73 1.24-0.5 0.5c-0.79-0.48-1.3-0.11-1.4 1-0.08 0.96-0.2 2.26-0.25 2.88-0.05 0.62-0.43 0.96-0.84 0.75-0.41-0.21-0.82 0.41-0.91 1.37-0.08 0.96-0.2 2.26-0.25 2.88-0.05 0.62-0.43 0.96-0.84 0.75-0.41-0.21-0.82 0.41-0.91 1.37-0.08 0.96-0.2 2.26-0.25 2.88-0.05 0.62-0.43 0.96-0.84 0.75-0.41-0.21-0.82 0.41-0.91 1.37-0.08 0.96-0.09 2.43-0.02 3.25 0.08 0.83-0.18 1.15-0.59 0.72-0.4-0.44-1.75 1.81-3 5-1.25 3.18-2.04 6.34-1.75 7.03 0.29 0.69 0.18 1.05-0.23 0.81-0.41-0.24-1.31 1.11-2 3-0.69 1.89-0.91 4-0.5 4.68q0.74 1.23-0.5 0.5c-0.79-0.47-1.43-0.01-1.75 1.26-0.27 1.1-0.17 2.56 0.24 3.25q0.73 1.24-0.5 0.5c-0.79-0.48-1.42-0.02-1.74 1.25-0.27 1.1-0.17 2.56 0.24 3.25q0.73 1.24-0.5 0.5c-0.79-0.48-1.42-0.02-1.74 1.25-0.27 1.1-0.17 2.56 0.24 3.25 0.44 0.74 0.33 0.97-0.25 0.56-0.55-0.38-1.55 0.86-2.24 2.75-0.69 1.89-0.91 4-0.5 4.68q0.74 1.23-0.5 0.5c-0.79-0.47-1.43-0.01-1.75 1.26-0.27 1.1-0.17 2.56 0.24 3.25q0.73 1.24-0.5 0.5c-0.79-0.48-1.3-0.11-1.4 1-0.08 0.96-0.2 2.26-0.25 2.88-0.05 0.62-0.43 0.96-0.84 0.75-0.41-0.21-0.82 0.41-0.91 1.37-0.08 0.96-0.2 2.26-0.25 2.88-0.05 0.62-0.52 0.84-1.05 0.5-0.58-0.38-0.68 0.26-0.25 1.62 0.44 1.39 0.33 2.06-0.29 1.75-0.55-0.27-1.22 0.4-1.5 1.5-0.27 1.1-0.16 2.56 0.25 3.24q0.74 1.23-0.5 0.5c-0.79-0.47-1.43-0.01-1.75 1.26-0.27 1.1-0.16 2.56 0.25 3.24q0.74 1.23-0.5 0.5c-0.79-0.47-1.31-0.1-1.41 1.01-0.08 0.96-0.09 2.42-0.02 3.25 0.08 0.83-0.18 1.15-0.59 0.71-0.4-0.43-2.2 2.95-4 7.5-1.79 4.56-3.03 8.85-2.75 9.54 0.29 0.69 0.07 1.02-0.48 0.75-0.55-0.27-1.22 0.4-1.5 1.5-0.27 1.1-0.17 2.56 0.24 3.25 0.54 0.92 0.36 0.99-0.71 0.25-1.18-0.81-1.32-0.58-0.74 1.25 0.44 1.39 0.33 2.06-0.29 1.75-0.55-0.27-1.22 0.4-1.5 1.5-0.27 1.1-0.16 2.56 0.25 3.24q0.74 1.23-0.5 0.5c-0.79-0.47-1.31-0.1-1.41 1.01-0.08 0.96-0.2 2.26-0.25 2.88-0.05 0.62-0.43 0.96-0.84 0.75-0.41-0.21-0.82 0.41-0.91 1.37-0.08 0.96-0.2 2.26-0.25 2.88-0.05 0.62-0.43 0.96-0.84 0.75-0.41-0.21-0.82 0.41-0.91 1.37-0.08 0.96-0.2 2.26-0.25 2.88-0.05 0.62-0.52 0.84-1.05 0.5-0.58-0.38-0.68 0.26-0.25 1.62 0.44 1.39 0.33 2.06-0.29 1.75-0.55-0.27-1.07 0.29-1.16 1.25-0.08 0.96-0.2 2.26-0.25 2.88-0.05 0.62-0.43 0.96-0.84 0.75-0.41-0.21-0.97 0.52-1.25 1.62-0.27 1.1-0.16 2.56 0.25 3.24q0.74 1.23-0.5 0.5c-0.79-0.47-1.31-0.1-1.41 1.01-0.08 0.96-0.2 2.26-0.25 2.88-0.05 0.62-0.52 0.84-1.05 0.5-0.58-0.38-0.68 0.26-0.25 1.62 0.44 1.39 0.33 2.06-0.29 1.75-0.55-0.27-1.22 0.4-1.5 1.5-0.27 1.1-0.17 2.56 0.24 3.25q0.73 1.24-0.5 0.5c-0.79-0.48-1.42-0.02-1.74 1.25-0.27 1.1-0.16 2.56 0.25 3.24q0.74 1.23-0.5 0.5c-0.79-0.47-1.43-0.01-1.75 1.26-0.27 1.1-0.16 2.56 0.25 3.24 0.44 0.74 0.34 0.96-0.25 0.56-0.55-0.37-1.55 0.76-3.45 5.7l-19.77-0.35c-10.88-0.19-19.89-0.76-20.03-1.25-0.14-0.5-0.7-0.67-1.25-0.4-0.62 0.31-0.73-0.36-0.29-1.75 0.58-1.83 0.44-2.06-0.74-1.25-1.07 0.74-1.25 0.67-0.71-0.25 0.41-0.69 0.18-2.8-0.51-4.69-0.69-1.9-1.7-3.13-2.25-2.76-0.59 0.4-0.69 0.18-0.25-0.56 0.41-0.68 0.53-2.14 0.25-3.24-0.27-1.1-0.95-1.77-1.5-1.5-0.62 0.31-0.73-0.36-0.29-1.75 0.43-1.36 0.33-2-0.25-1.62-0.53 0.34-1 0.12-1.05-0.5-0.05-0.62-0.17-1.92-0.25-2.88-0.1-1.11-0.61-1.48-1.4-1q-1.23 0.74-0.5-0.5c0.41-0.69 0.18-2.8-0.51-4.69-0.69-1.89-1.59-3.24-2-3-0.41 0.24-0.52-0.12-0.23-0.81 0.29-0.69-0.5-3.85-1.75-7.03-1.27-3.24-2.67-5.44-3.18-5-0.51 0.44-0.62 0.23-0.25-0.47 0.36-0.69 0.1-2.8-0.59-4.69-0.69-1.89-1.47-3.29-1.75-3.12-0.27 0.17-0.54-0.19-0.59-0.81-0.05-0.62-0.17-1.92-0.25-2.88-0.09-0.96-0.61-1.52-1.16-1.25-0.62 0.31-0.73-0.36-0.29-1.75 0.58-1.83 0.44-2.06-0.74-1.25-1.07 0.74-1.25 0.67-0.71-0.25 0.41-0.69 0.52-2.15 0.24-3.25-0.27-1.1-0.95-1.77-1.5-1.5-0.62 0.31-0.73-0.36-0.29-1.75 0.43-1.36 0.33-2-0.25-1.62-0.53 0.34-1 0.12-1.05-0.5-0.05-0.62-0.17-1.92-0.25-2.88-0.1-1.11-0.61-1.48-1.4-1q-1.23 0.74-0.5-0.5c0.41-0.69 0.52-2.15 0.24-3.25-0.32-1.27-0.95-1.73-1.74-1.25q-1.23 0.74-0.5-0.5c0.41-0.69 0.18-2.8-0.51-4.69-0.69-1.89-1.47-3.29-1.75-3.12-0.27 0.17-0.54-0.19-0.59-0.81-0.05-0.62-0.17-1.92-0.25-2.88-0.1-1.11-0.62-1.48-1.41-1.01q-1.24 0.73-0.5-0.5c0.41-0.68 0.3-2.82-0.25-4.74-0.68-2.38-1.4-3.26-2.25-2.76q-1.24 0.73-0.5-0.5c0.41-0.68 0.19-2.79-0.5-4.68-0.69-1.89-1.59-3.24-2-3-0.41 0.24-0.52-0.12-0.23-0.81 0.29-0.69-0.5-3.85-1.75-7.03-1.27-3.24-2.67-5.44-3.18-5-0.51 0.44-0.62 0.23-0.25-0.47 0.36-0.69 0.44-2.15 0.16-3.25-0.32-1.27-0.96-1.73-1.75-1.26q-1.24 0.73-0.5-0.5c0.41-0.68-0.26-4.14-1.5-7.68-1.24-3.54-2.59-6.24-3-6-0.41 0.24-0.52-0.12-0.23-0.81 0.29-0.69-0.5-3.85-1.75-7.03-1.27-3.24-2.67-5.44-3.18-5-0.51 0.44-0.62 0.23-0.25-0.47 0.36-0.69-0.13-3.3-1.09-5.8-0.96-2.5-2.09-4.19-2.51-3.75-0.42 0.44-0.44-0.32-0.04-1.7 0.59-2.06 0.46-2.32-0.74-1.51-1.07 0.73-1.26 0.66-0.71-0.25 0.41-0.68 0.53-2.14 0.25-3.24-0.27-1.1-0.84-1.83-1.25-1.62-0.41 0.21-0.79-0.13-0.84-0.75-0.05-0.62-0.17-1.92-0.25-2.88-0.09-0.96-0.5-1.58-0.91-1.37-0.41 0.21-0.79-0.13-0.84-0.75-0.05-0.62-0.17-1.92-0.25-2.88-0.09-0.96-0.5-1.58-0.91-1.37-0.41 0.21-0.79-0.13-0.84-0.75-0.05-0.62-0.17-1.92-0.25-2.88-0.1-1.11-0.61-1.48-1.4-1q-1.23 0.74-0.5-0.5c0.41-0.69 0.52-2.15 0.24-3.25-0.32-1.27-0.95-1.73-1.74-1.25q-1.23 0.74-0.5-0.5c0.41-0.69 0.18-2.8-0.51-4.69-0.69-1.9-1.7-3.13-2.25-2.76-0.59 0.4-0.69 0.18-0.25-0.56 0.41-0.68 0.53-2.14 0.25-3.24-0.27-1.1-0.95-1.77-1.5-1.5-0.55 0.27-0.77-0.06-0.48-0.75 0.29-0.69-0.5-3.85-1.75-7.03-1.25-3.19-2.6-5.44-3-5-0.41 0.43-0.67 0.11-0.59-0.72 0.07-0.82 0.06-2.29-0.02-3.25-0.09-0.96-0.61-1.52-1.16-1.25-0.62 0.31-0.73-0.36-0.29-1.75 0.43-1.36 0.33-2-0.25-1.62-0.53 0.34-1 0.12-1.05-0.5-0.05-0.62-0.17-1.92-0.25-2.88-0.1-1.11-0.61-1.48-1.4-1q-1.23 0.74-0.5-0.5c0.41-0.69 0.52-2.15 0.24-3.25-0.27-1.1-0.95-1.77-1.5-1.5-0.62 0.31-0.73-0.36-0.29-1.75 0.43-1.36 0.33-2-0.25-1.62-0.53 0.34-1 0.12-1.05-0.5-0.05-0.62-0.17-1.92-0.25-2.88-0.09-0.96-0.5-1.58-0.91-1.37-0.41 0.21-0.79-0.13-0.84-0.75-0.05-0.62-0.17-1.92-0.25-2.88-0.1-1.11-0.62-1.48-1.41-1.01q-1.24 0.73-0.5-0.5c0.41-0.68 0.19-2.79-0.5-4.68-0.69-1.89-1.59-3.24-2-3-0.41 0.24-0.52-0.12-0.23-0.81 0.29-0.69-0.5-3.85-1.75-7.03-1.25-3.19-2.6-5.44-3-5-0.41 0.43-0.67 0.11-0.59-0.72 0.07-0.82 0.06-2.29-0.02-3.25-0.09-0.96-0.61-1.52-1.16-1.25-0.62 0.31-0.73-0.36-0.29-1.75 0.43-1.36 0.33-2-0.25-1.62-0.53 0.34-1 0.12-1.05-0.5-0.05-0.62-0.17-1.92-0.25-2.88-0.1-1.11-0.61-1.48-1.4-1q-1.23 0.74-0.5-0.5c0.41-0.69 0.52-2.15 0.24-3.25-0.27-1.1-0.95-1.77-1.5-1.5-0.55 0.27-0.77-0.06-0.48-0.75 0.29-0.69-0.5-3.85-1.75-7.03-1.25-3.19-2.6-5.44-3-5-0.41 0.43-0.67 0.11-0.59-0.72 0.07-0.82 0.06-2.29-0.02-3.25-0.09-0.96-0.5-1.58-0.91-1.37-0.41 0.21-0.79-0.13-0.84-0.75-0.05-0.62-0.17-1.92-0.25-2.88-0.09-0.96-0.61-1.52-1.16-1.25-0.62 0.31-0.73-0.36-0.29-1.75 0.55-1.74 0.41-2.05-0.61-1.35q-1.33 0.92-0.71-0.25c0.34-0.63-0.85-4.73-2.64-9.11-1.89-4.61-3.67-7.66-4.24-7.25-0.59 0.42-0.69 0.2-0.25-0.54 0.41-0.69 0.52-2.15 0.24-3.25-0.27-1.1-0.84-1.82-1.25-1.6-0.41 0.22-0.75-1.09-0.75-2.91 0-1.82 0.37-3.69 0.83-4.15 0.46-0.46 10.58-1.08 22.5-1.38 11.92-0.29 21.74-0.63 21.82-0.75zm300.35 39.21c10.17 0 14.23 0.14 9 0.33-5.23 0.18-13.55 0.18-18.5 0-4.95-0.19-0.67-0.33 9.5-0.33zm-189 307.92c4.13 0 5.7 0.17 3.5 0.39-2.2 0.21-5.57 0.21-7.5 0-1.93-0.22-0.12-0.39 4-0.39zm165 0.13c33.83 0 47.55 0.13 30.5 0.28-17.05 0.15-44.73 0.15-61.5 0-16.77-0.15-2.83-0.28 31-0.28zm-87.5 136.9c5.5-0.01 7.98 0.16 5.5 0.36-2.48 0.21-6.98 0.21-10 0.01-3.02-0.2-1-0.37 4.5-0.37z"/>
		<path id="Path 8" class="s6" d="m549.07 517.25c-0.5 1.24-5.03 12.83-10.08 25.75-5.04 12.92-10.66 27.77-12.48 33-1.81 5.23-4.52 12.2-6.01 15.5-1.49 3.3-3.72 8.7-4.97 12-1.25 3.3-6.41 16.58-11.48 29.5-5.08 12.92-12.59 32.27-16.71 43-4.12 10.73-9.2 24.23-11.3 30-2.1 5.77-7.43 19.5-11.86 30.5-4.43 11-10.28 26.08-13.01 33.5-2.72 7.42-6.8 18.11-9.06 23.75-2.26 5.64-4.11 10.7-4.11 11.25 0 0.55 0.67 0.77 1.5 0.5 0.82-0.27 1.5-0.05 1.5 0.5 0 0.55 0.9 0.77 2 0.5 1.1-0.27 2-0.05 2 0.5 0 0.55 0.9 0.77 2 0.5 1.1-0.27 2.17-0.16 2.38 0.25 0.21 0.41 2.57 1.15 5.25 1.64 2.68 0.49 5.99 1 7.37 1.13 1.37 0.13 3.96 0.52 5.75 0.86 2.1 0.4 3.55 0.18 4.09-0.63 0.46-0.69 2.68-6.2 4.94-12.25 2.25-6.05 6.87-18.2 10.25-27 3.38-8.8 8.57-22.52 11.52-30.5 2.96-7.98 7.79-20.58 10.74-28 2.94-7.42 7.22-18.45 9.49-24.5 2.27-6.05 6.14-16.63 8.59-23.5 2.45-6.88 13.08-34.77 23.63-62 10.54-27.23 21.22-54.9 23.73-61.5 2.5-6.6 5.73-15.03 7.16-18.74 1.44-3.7 2.38-6.98 2.11-7.28-0.28-0.29-8.05-0.52-17.27-0.51-16.45 0.03-16.79 0.07-17.66 2.28z"/>
		<path id="Path 9" class="s1" d="m492 201.73c2.48 0.21 6.07 0.21 8 0 1.93-0.22-0.1-0.39-4.5-0.39-4.4 0.01-5.98 0.18-3.5 0.39zm24.5 0.01c2.75 0.2 7.48 0.2 10.5 0 3.02-0.2 0.77-0.37-5-0.37-5.77 0-8.25 0.17-5.5 0.37zm-76.5 6.76c-2.48 0.72-3.82 1.33-3 1.36 0.82 0.03 3.98-0.56 7-1.32 3.02-0.75 4.38-1.36 3-1.36-1.38 0.01-4.52 0.6-7 1.32zm144 2.54c5.77 1.6 10.95 2.78 11.5 2.62 0.55-0.15-3.5-1.49-9-2.96-5.5-1.47-10.67-2.65-11.5-2.62-0.83 0.03 3.23 1.37 9 2.96zm45 15.04c3.58 1.62 6.61 2.82 6.75 2.68 0.14-0.14-2.45-1.5-5.75-3.01-3.3-1.51-6.34-2.72-6.75-2.68-0.41 0.04 2.17 1.4 5.75 3.01zm-247.5 2.86c-4.4 2.14-7.77 3.94-7.5 4 0.27 0.06 4.32-1.68 9-3.86 4.68-2.18 8.05-3.98 7.5-3.99-0.55-0.02-4.6 1.72-9 3.85zm267 6.35c6.6 3.43 13.8 7.29 16 8.57 3.41 1.99 3.63 2.03 1.5 0.27-1.38-1.14-8.13-5-15-8.57-6.88-3.57-12.95-6.5-13.5-6.5-0.55-0.01 4.4 2.8 11 6.23zm-310.44 17.71c-6.64 4.4-12.29 8.45-12.56 9-0.27 0.55 5.24-2.88 12.25-7.63 7.01-4.75 12.94-8.8 13.17-9 0.23-0.2 0.14-0.37-0.2-0.37-0.33 0-6.03 3.6-12.66 8zm341.44-0.28c0.55 0.56 4.38 3.41 8.5 6.34 4.13 2.93 11.1 8.25 15.5 11.83 4.4 3.58 11.32 9.45 15.39 13.06 4.06 3.6 12.09 11.73 17.85 18.05 5.76 6.32 13.85 16 17.98 21.5 4.12 5.5 7.97 10.45 8.54 11 0.57 0.55-0.48-1.25-2.34-4-1.86-2.75-6.96-9.5-11.34-15-4.38-5.5-13.62-15.65-20.52-22.56-6.91-6.91-17.29-16.39-23.06-21.06-5.77-4.67-13.65-10.74-17.5-13.49-3.85-2.75-7.67-5.38-8.5-5.84q-1.51-0.85-0.5 0.17zm-365.56 18.1c-5.19 4.3-10.12 8.67-10.94 9.71-0.82 1.04 1.88-1.01 6.01-4.57 4.12-3.55 9.3-7.91 11.5-9.68 2.19-1.77 3.74-3.23 3.43-3.25-0.31-0.01-4.81 3.49-10 7.79zm-22.6 20.46c-4.95 5.07-11.91 12.6-15.49 16.72-3.57 4.13-8.52 10.2-11 13.5-2.48 3.3-6.76 9.38-9.51 13.5-2.74 4.13-5.36 8.18-5.81 9q-0.83 1.51 0.19 0.5c0.56-0.55 3.7-5.05 6.99-10 3.29-4.95 9.76-13.72 14.38-19.48 4.63-5.77 13.22-15.44 19.1-21.5 5.88-6.06 10.57-11.12 10.42-11.24-0.15-0.12-4.32 3.93-9.27 9zm-13.84 40.29c-0.9 0.87-1.61 2.1-1.58 2.75 0.04 0.65 1.53 4.67 3.32 8.94 1.8 4.27 3.37 7.64 3.5 7.5 0.13-0.14-1.18-3.86-2.91-8.26-2.31-5.86-2.88-8.4-2.13-9.5 0.84-1.24 4.76-1.55 22.41-1.81 16.69-0.24 21.63-0.02 22.49 1 0.61 0.72 2.41 4.57 4 8.54 1.6 3.98 3.03 7.13 3.18 7 0.15-0.12-0.93-3.38-2.4-7.23-1.48-3.85-3.41-7.8-4.28-8.78-1.44-1.61-3.7-1.78-22.78-1.75-17.86 0.02-21.43 0.28-22.82 1.6zm290-0.82c17.6 0.15 45.95 0.15 63 0 17.05-0.15 2.65-0.28-32-0.28-34.65 0-48.6 0.13-31 0.28zm202.19 14c3 4.81 5.72 8.98 6.06 9.25 0.33 0.27-0.67-1.75-2.23-4.5-1.56-2.75-4.11-6.91-5.68-9.25-1.56-2.34-3.01-4.25-3.22-4.25-0.21 0 2.07 3.94 5.07 8.75zm-65.69 0.47c4.67 2.88 11.36 7.95 14.86 11.26 3.51 3.31 8.46 9.21 11 13.12 2.55 3.9 5.21 7.95 5.9 9 0.7 1.04 0.52 0.33-0.39-1.6-0.91-1.93-3.34-5.98-5.4-9-2.05-3.02-6.6-8.25-10.1-11.61-3.5-3.36-9.97-8.42-14.37-11.25-4.4-2.83-8.45-5.14-9-5.15-0.55-0.01 2.83 2.35 7.5 5.23zm-179.8 15.02c-1.78 4.54-3.11 8.37-2.97 8.49 0.15 0.13 1.63-3.42 3.29-7.88 1.66-4.47 2.99-8.29 2.96-8.5-0.03-0.2-1.5 3.35-3.28 7.89zm-289.19 9.76c-2.76 5.5-4.9 10.2-4.76 10.45 0.14 0.25 2.57-4.25 5.4-10 2.82-5.75 4.97-10.45 4.75-10.45-0.21 0-2.64 4.5-5.39 10zm349.99-1.25c7.98 0.17 20.58 0.17 28 0 7.42-0.17 0.9-0.31-14.5-0.31-15.4 0-21.48 0.14-13.5 0.31zm-67.27 8.48c-1.49 4-2.6 7.38-2.47 7.52 0.13 0.14 1.38-2.96 2.77-6.88 1.39-3.93 2.5-7.31 2.47-7.52-0.03-0.21-1.28 2.89-2.77 6.88zm158.77-0.69c3.3 1.97 8.37 5.91 11.28 8.77 2.9 2.85 6.72 7.97 8.5 11.38 1.77 3.4 3.33 5.98 3.47 5.75 0.14-0.24-0.94-2.8-2.4-5.69-1.46-2.89-5.39-8.1-8.75-11.58-3.35-3.48-8.35-7.63-11.1-9.22-2.75-1.59-5.45-2.91-6-2.94-0.55-0.02 1.7 1.57 5 3.53zm111.66 1.96c0 0.55 1.27 3.7 2.84 7 1.57 3.3 2.86 5.55 2.87 5 0.02-0.55-1.26-3.7-2.83-7-1.58-3.3-2.87-5.55-2.88-5zm-233.96 26.74c-1.78 4.54-3.11 8.37-2.97 8.49 0.15 0.13 1.63-3.42 3.29-7.88 1.66-4.47 2.99-8.29 2.96-8.5-0.03-0.2-1.5 3.35-3.28 7.89zm-334.48 1.45c-1.49 4.29-2.69 8.26-2.64 8.81 0.04 0.55 1.29-2.79 2.79-7.43 1.5-4.63 2.69-8.6 2.65-8.81-0.04-0.21-1.3 3.13-2.8 7.43zm131.25-1.44c0.02 0.41 1.94 5.7 4.28 11.75 2.34 6.05 4.36 10.89 4.5 10.75 0.13-0.14-1.59-5.2-3.84-11.25-2.25-6.05-4.28-11.23-4.52-11.5-0.25-0.27-0.43-0.16-0.42 0.25zm394.39 13.75c0 5.23 0.17 7.25 0.38 4.5 0.2-2.75 0.2-7.02 0-9.5-0.21-2.48-0.38-0.23-0.38 5zm-43.18 4c-0.09 1.93-0.38 5.07-0.66 7l-0.51 3.5c1.65-5.43 1.95-8.57 1.73-10.5l-0.4-3.5zm103.94 5.5c-0.04 0.55 0.81 4.15 1.89 8 1.08 3.85 1.75 5.43 1.48 3.5-0.27-1.93-1.12-5.52-1.89-8-0.77-2.48-1.44-4.05-1.48-3.5zm-64.78 14.29c-1.19 4.24-1.99 7.94-1.79 8.21 0.2 0.27 1.33-2.65 2.5-6.5 1.17-3.85 1.98-7.54 1.79-8.21-0.19-0.66-1.31 2.26-2.5 6.5zm-52.55 11.96c-2.46 3.16-6.23 7.15-8.38 8.87-2.15 1.71-5.94 4.16-8.41 5.44-2.48 1.27-7.88 3.33-12 4.58-4.13 1.24-6.83 2.28-6 2.32 0.82 0.03 3.97-0.67 7-1.56 3.02-0.89 8.2-2.99 11.5-4.66 3.3-1.68 8.49-5.56 11.53-8.64 3.05-3.08 6.53-7.06 7.74-8.85 1.22-1.79 2.05-3.25 1.85-3.25-0.2 0-2.37 2.59-4.83 5.75zm-315.82 8.5c0.01 0.41 1.26 3.9 2.78 7.75 1.51 3.86 2.86 6.89 3 6.75 0.14-0.14-0.92-3.4-2.34-7.25-1.42-3.85-2.78-7.23-3.03-7.5-0.24-0.27-0.43-0.16-0.41 0.25zm354.47 7.39c-2.72 3.65-7.87 9.16-11.45 12.25-3.57 3.08-7.85 6.61-9.5 7.83-1.64 1.22-2.66 2.23-2.24 2.25 0.41 0.02 4.12-2.67 8.25-5.97 4.12-3.3 10-9.04 13.07-12.75 3.07-3.71 5.96-7.54 6.43-8.5 0.47-0.96 0.75-1.75 0.63-1.75-0.13 0-2.47 2.99-5.19 6.64zm-523.03 1.36c-0.37 3.57-0.46 7.18-0.21 8 0.26 0.82 0.82-1.83 1.25-5.9 0.44-4.06 0.53-7.66 0.21-8-0.32-0.33-0.88 2.33-1.25 5.9zm358.71 7.5c-0.62 1.38-1.11 2.84-1.09 3.25 0.02 0.41 0.66-0.37 1.42-1.75l1.38-2.5 69.67-1.04-70.25-0.46zm-44.93 17.75c-2.88 7.29-5.12 13.35-4.97 13.48 0.15 0.12 2.53-5.68 5.29-12.88 2.76-7.21 4.99-13.28 4.96-13.48-0.03-0.2-2.4 5.6-5.28 12.88zm298.23 9.25c0 12.1 0.14 16.83 0.32 10.5 0.18-6.32 0.18-16.23 0-22-0.18-5.77-0.32-0.6-0.32 11.5zm-481.05-19c0.38 1.1 1.92 5.03 3.41 8.73 1.49 3.71 2.84 6.63 2.99 6.5 0.15-0.12-1.13-3.83-2.84-8.23-1.71-4.4-3.37-8.23-3.68-8.5-0.32-0.27-0.26 0.4 0.12 1.5zm-132.98 19.5c0 7.42 0.15 10.35 0.34 6.5 0.2-3.85 0.2-9.93 0-13.5-0.19-3.57-0.34-0.43-0.34 7zm183.58-8.75c0.01 0.41 1.26 3.9 2.77 7.75 1.52 3.86 2.87 6.89 3 6.75 0.14-0.14-0.91-3.4-2.33-7.25-1.42-3.85-2.79-7.23-3.03-7.5-0.24-0.27-0.43-0.16-0.41 0.25zm166.99 8.69c-1.35 3.85-2.24 7.02-1.97 7.04 0.28 0.02 1.43-2.97 2.55-6.66 1.13-3.69 2.02-6.86 1.98-7.04-0.05-0.18-1.2 2.82-2.56 6.66zm176.93 3.67c2.96 2.69 7.69 7.81 10.5 11.37 2.81 3.56 7.02 9.86 9.36 14 2.34 4.14 4.25 7.07 4.25 6.52 0-0.55-1.98-4.37-4.4-8.5-2.42-4.12-7.03-10.61-10.25-14.4-3.22-3.8-7.88-8.47-10.36-10.39-3.84-2.98-3.71-2.77 0.9 1.4zm-127.4 3.14c8.8 0.16 23.43 0.16 32.5 0 9.08-0.17 1.88-0.3-16-0.3-17.87 0-25.3 0.13-16.5 0.3zm77.5 8.27c4.68 2.26 9.15 4.65 9.95 5.3 1.12 0.92 1.28 0.9 0.75-0.07-0.39-0.69-3.73-2.77-7.45-4.62-3.71-1.85-7.87-3.67-9.25-4.05-1.37-0.37 1.33 1.18 6 3.44zm-476.93 4.48c0.07 2.75 0.5 7.48 0.95 10.5 0.59 3.98 0.67 2.73 0.28-4.5-0.3-5.5-0.72-10.23-0.94-10.5-0.23-0.27-0.36 1.75-0.29 4.5zm492.93 5.28c2.48 2.18 6.53 6.58 9 9.77 2.48 3.2 5.75 8.32 7.28 11.38 1.52 3.06 2.49 4.45 2.14 3.07-0.35-1.37-1.91-4.75-3.47-7.5-1.56-2.75-5.22-7.65-8.14-10.89-2.92-3.24-6.66-6.77-8.31-7.84-1.75-1.13-1.12-0.29 1.5 2.01zm-297.79-0.78c0.29 0.83 1.59 4.31 2.91 7.74 1.31 3.44 2.51 6.14 2.66 6 0.15-0.13-0.89-3.39-2.31-7.24-1.43-3.85-2.86-7.23-3.19-7.5-0.33-0.27-0.36 0.17-0.07 1zm-41.23 12.25c0.01 0.41 1.26 3.9 2.77 7.75 1.52 3.86 2.87 6.89 3 6.75 0.14-0.14-0.91-3.4-2.33-7.25-1.42-3.85-2.79-7.23-3.03-7.5-0.24-0.27-0.43-0.16-0.41 0.25zm88.22 23.99c-1.77 4.54-3.11 8.37-2.96 8.49 0.14 0.13 1.62-3.42 3.28-7.88 1.66-4.47 2.99-8.29 2.96-8.5-0.02-0.2-1.5 3.35-3.28 7.89zm316 10.76c-0.12 4.13-0.42 9.98-0.67 13l-0.46 5.5c1.55-8.52 1.85-14.37 1.67-18.5l-0.33-7.5zm-393.22-5.75c0.01 0.41 1.26 3.9 2.77 7.75 1.52 3.86 2.87 6.89 3 6.75 0.14-0.14-0.91-3.4-2.33-7.25-1.42-3.85-2.79-7.23-3.03-7.5-0.24-0.27-0.43-0.16-0.41 0.25zm350.37 8.25c0 4.4 0.18 5.98 0.39 3.5 0.21-2.48 0.2-6.08-0.01-8-0.22-1.92-0.39 0.1-0.38 4.5zm-504.69 8.5c0.34 1.92 1.2 5.08 1.91 7 0.71 1.92 1.32 3.05 1.35 2.5 0.03-0.55-0.83-3.7-1.91-7-1.07-3.3-1.68-4.42-1.35-2.5zm586.01 18.29c-2.1 6.16-4.04 11.88-4.32 12.71-0.44 1.33-0.38 1.33 0.56 0 0.58-0.83 2.56-6.37 4.4-12.31 1.83-5.95 3.3-11 3.26-11.21-0.05-0.22-1.8 4.64-3.9 10.81zm-99.19 12.9c-3.95 4.07-5.02 5.49-2.48 3.27 2.48-2.16 5.77-5.4 7.32-7.2 1.55-1.79 2.66-3.26 2.47-3.26-0.19 0-3.48 3.24-7.31 7.19zm90.56 9.57c-1.86 4.26-5.1 11.23-7.21 15.49-2.1 4.26-3.6 7.75-3.33 7.75 0.28 0 1.91-2.81 3.64-6.25 1.72-3.44 4.88-10.3 7.02-15.25 2.14-4.95 3.75-9.11 3.57-9.24-0.17-0.13-1.84 3.24-3.69 7.5zm-100.54-1.11c-1.1 0.87-6.05 3.58-11 6.02-4.95 2.44-7.87 4.13-6.5 3.75 1.38-0.37 5.43-2.15 9-3.94 3.58-1.79 7.63-4.19 9-5.33 1.38-1.15 2.28-2.08 2-2.08-0.27-0.01-1.4 0.71-2.5 1.58zm48.75 11.95c-3.11 4.04-8.14 8.79-12.92 12.21-4.3 3.08-8.28 6.04-8.83 6.58-0.55 0.54 0.35 0.15 2-0.86 1.65-1.01 5.88-4.03 9.4-6.72 3.51-2.68 8.03-7 10.02-9.6 2-2.59 4.22-5.5 4.93-6.46 0.71-0.96 1.12-1.75 0.9-1.75-0.22 0-2.69 2.97-5.5 6.6zm-173.25 1.15c16.78 0.15 44.45 0.15 61.5 0 17.05-0.15 3.33-0.28-30.5-0.28-33.82 0-47.77 0.13-31 0.28zm143 21.57c-3.58 1.75-7.86 3.73-9.5 4.39-2.34 0.95-2.45 1.1-0.5 0.67 1.38-0.3 5.77-2.08 9.75-3.96 3.99-1.88 7.25-3.65 7.25-3.92 0-0.27-0.11-0.47-0.25-0.43-0.13 0.05-3.17 1.51-6.75 3.25zm-461.99 3.68c0.71 1.38 4.48 7.17 8.39 12.88 3.91 5.72 7.44 10.55 7.85 10.75 0.42 0.21-3.13-5.37-7.88-12.38-4.74-7.01-8.85-12.98-9.13-13.25-0.28-0.27 0.07 0.63 0.77 2zm158.09 2.25c-0.05 0.41 0.58 2.33 1.4 4.25l1.5 3.5 25.5-0.43-25-0.55c-2.56-5.83-3.35-7.18-3.4-6.77zm140.4 7.5c12.65 0.16 32.9 0.16 45 0 12.1-0.16 1.75-0.29-23-0.29-24.75 0-34.65 0.13-22 0.29zm207.27 17.5c-2.99 3.99-9.7 11.98-14.91 17.75-5.2 5.77-14.39 14.96-20.41 20.41-6.02 5.45-15 13.06-19.95 16.9-4.95 3.85-14.4 10.57-21 14.94-6.6 4.37-12.22 8.19-12.5 8.48-0.27 0.3 0.63-0.03 2-0.73 1.38-0.7 8.13-5.1 15-9.77 6.88-4.67 17.23-12.35 23-17.05 5.78-4.71 16.82-14.89 24.55-22.62 7.72-7.73 17.43-18.33 21.57-23.56 4.13-5.23 7.81-10.06 8.17-10.75 0.35-0.69 0.48-1.25 0.28-1.25-0.19 0-2.8 3.26-5.8 7.25zm-487.6-0.62c0.73 1.17 5 6.57 9.47 12 4.48 5.43 13.26 14.83 19.5 20.89 6.25 6.06 16.76 15.33 23.36 20.59 6.6 5.26 14.14 10.99 16.75 12.73 2.62 1.74 4.75 2.93 4.75 2.66 0-0.27-2.58-2.24-5.75-4.36-3.16-2.12-10.92-8.08-17.25-13.25-6.32-5.16-16.16-13.88-21.86-19.39-5.7-5.5-13.87-14.27-18.17-19.5-4.29-5.23-8.78-10.62-9.97-12-1.51-1.76-1.76-1.87-0.83-0.37zm84.57 76c1.22 1.03 4.94 3.33 8.25 5.12 3.31 1.79 5.95 3.07 5.88 2.85-0.08-0.23-2.66-1.87-5.75-3.65-3.09-1.78-6.74-3.9-8.12-4.71l-2.5-1.48zm15.26 8.88c0 0.27 3.16 2.07 7.01 3.99 3.85 1.93 7.21 3.39 7.46 3.25 0.25-0.14-2.91-1.93-7.01-3.99-4.11-2.06-7.47-3.52-7.46-3.25zm278.01 4.99c-4.67 2.42-8.16 4.42-7.75 4.45 0.41 0.03 4.35-1.75 8.75-3.95 4.4-2.2 8-4.22 8-4.5 0-0.27-0.11-0.48-0.25-0.45-0.14 0.03-4.07 2.03-8.75 4.45zm-16.5 7.42c-3.3 1.53-8.81 3.86-12.24 5.18-3.44 1.32-6.02 2.51-5.75 2.65 0.27 0.14 4.88-1.48 10.24-3.6 5.36-2.11 11.1-4.57 12.75-5.46 1.65-0.88 2.55-1.59 2-1.57-0.55 0.01-3.7 1.28-7 2.8zm-229.5 2.58c0 0.28 3.83 1.85 8.5 3.5 4.68 1.65 9.06 2.98 9.75 2.95 0.69-0.03-2.89-1.6-7.96-3.5-5.07-1.9-9.45-3.45-9.75-3.45-0.3 0-0.54 0.23-0.54 0.5zm56.5 17.02c2.75 0.71 6.35 1.29 8 1.29 1.65 0 0.08-0.61-3.5-1.34-3.57-0.74-7.17-1.32-8-1.29-0.82 0.03 0.75 0.64 3.5 1.34zm71 4.2c1.65 0.22 4.8 0.22 7 0.01 2.2-0.22 0.85-0.4-3-0.4-3.85 0-5.65 0.17-4 0.39zm-18.5 1.01c2.48 0.21 6.08 0.21 8 0 1.93-0.22-0.1-0.39-4.5-0.39-4.4 0.01-5.97 0.18-3.5 0.39z"/>
		<path id="Path 10" class="s2" d="m502.34 200.72c0.46 0.43 2.71 0.87 5 0.98 2.29 0.11 4.83-0.21 5.66-0.72 1.01-0.62-0.61-0.94-5-0.98-3.57-0.03-6.12 0.29-5.66 0.72zm138.06 168.28c0.33 0.55 2.18 1 4.1 1 1.92 0 3.5-0.45 3.5-1 0-0.55-1.85-1-4.1-1-2.47 0-3.86 0.4-3.5 1zm3.1 307.73c2.2 0.21 6.03 0.21 8.5 0 2.48-0.21 0.67-0.38-4-0.38-4.67 0-6.7 0.17-4.5 0.38z"/>
		<path id="Path 11" class="s3" d="m607.5 329.75c8.25 0.17 21.3 0.17 29 0 7.7-0.17 0.95-0.31-15-0.31-15.95 0-22.25 0.14-14 0.31zm-15 184.99c4.4 0.19 11.38 0.19 15.5 0 4.13-0.18 0.52-0.34-8-0.34-8.52 0-11.9 0.16-7.5 0.34zm-25 126c3.3 0.2 8.92 0.2 12.5 0 3.58-0.19 0.88-0.35-6-0.35-6.88 0-9.8 0.16-6.5 0.35z"/>
		<path id="Path 12" class="s7" d="m585 476.75c5.77 0.17 14.77 0.17 20-0.01 5.23-0.17 0.5-0.32-10.5-0.32-11 0-15.27 0.15-9.5 0.33zm45.5 37.97c1.65 0.22 4.8 0.22 7 0.01 2.2-0.22 0.85-0.4-3-0.4-3.85-0.01-5.65 0.17-4 0.39zm-87 126.02c3.3 0.2 8.92 0.2 12.5 0 3.58-0.19 0.88-0.35-6-0.35-6.88 0-9.8 0.16-6.5 0.35z"/>
		<path id="Path 13" class="s8" d="m579 369.74c4.67 0.19 12.1 0.19 16.5 0 4.4-0.18 0.58-0.33-8.5-0.33-9.08 0-12.67 0.15-8 0.33zm38 106.99c1.92 0.21 5.3 0.21 7.5 0 2.2-0.22 0.63-0.39-3.5-0.39-4.13 0-5.92 0.17-4 0.39zm-59 38.01c4.67 0.19 12.55 0.19 17.5 0 4.95-0.18 1.13-0.33-8.5-0.33-9.63 0-13.67 0.15-9 0.33z"/>
		<path id="Path 14" class="s4" d="m564 329.75c5.23 0.18 14 0.18 19.5 0 5.5-0.18 1.23-0.33-9.5-0.33-10.73 0-15.23 0.15-10 0.33zm33.5 311c6.6 0.17 16.95 0.17 23 0 6.05-0.18 0.65-0.32-12-0.32-12.65 0-17.6 0.14-11 0.32z"/>
	</g>
</svg>