<svg version="1.2" xmlns="http://www.w3.org/2000/svg" viewBox="0 0 1080 1080" width="4000" height="4000">
	<style>
		.s0 { opacity: .99;fill: #fac804 } 
		.s1 { opacity: .43;fill: #fac804 } 
		.s2 { opacity: .57;fill: #0c271d } 
		.s3 { opacity: .77;fill: #87d513 } 
		.s4 { opacity: .99;fill: #0c2441 } 
	</style>
	<path id="Path 10 copy 4" class="s0" d="m264.04 531.91c-5.4 0.58-5.47 0.63-7.07 5.09-0.89 2.48-4.66 12.6-8.38 22.5-3.72 9.9-8.56 22.73-10.76 28.5-2.19 5.78-5.55 14.78-7.47 20-1.91 5.23-4.31 11.75-5.32 14.5-1.01 2.75-3.24 8.71-4.94 13.25-1.71 4.54-2.93 8.59-2.72 9 0.22 0.41 3.03 1.12 6.25 1.57 3.23 0.46 6.88 1.02 8.12 1.25q2.25 0.44 2.84-1.32c0.33-0.96 1.5-4.22 2.59-7.25 1.1-3.02 3.48-9.33 5.29-14 1.81-4.67 4.29-11.2 5.51-14.5 1.22-3.3 2.56-6.9 2.98-8 0.42-1.1 2.01-5.83 3.52-10.5 1.52-4.67 3.33-9.85 4.03-11.5 0.71-1.65 2.85-7.05 4.78-12 1.92-4.95 4.93-13.05 6.68-18 1.75-4.95 3.87-10.8 4.72-13 0.84-2.2 1.71-4.56 1.92-5.25 0.27-0.87-0.76-1.2-3.36-1.09-2.06 0.09-6.21 0.43-9.21 0.75z"/>
	<g id="Background">
		<path id="Path 0" class="s1" d="m926.5 488.45c-2.2 0.66-4.9 1.57-6 2.04-1.1 0.47-3.8 2.07-6 3.57-2.2 1.5-4.85 4.24-5.89 6.08-1.84 3.27-1.8 3.25 1.6-0.64 1.93-2.2 5.93-5.32 8.9-6.92 4.51-2.45 6.86-3 14.39-3.38 4.97-0.25 11.46 0.06 14.5 0.7 3.02 0.64 8.77 2.84 12.76 4.88 3.99 2.05 7.49 4.4 7.77 5.22 0.29 0.83-1.07 3.86-3 6.75-1.94 2.89-3.98 5.25-4.53 5.25-0.55 0-2.24-0.86-3.75-1.91-1.51-1.05-5-2.89-7.75-4.08-3.75-1.62-7-2.16-13-2.16-7.9 0-8.04 0.05-11.25 3.58-2.26 2.48-3.25 4.56-3.26 6.82 0 1.79 0.67 4.26 1.5 5.5 0.83 1.24 2.86 2.92 4.51 3.75 1.65 0.83 3.34 1.48 3.75 1.46 0.41-0.03-0.94-0.93-3-2-2.06-1.08-4.25-2.97-4.86-4.21-0.61-1.24-0.83-3.94-0.5-6 0.44-2.67 1.47-4.33 3.61-5.75 2.29-1.52 4.67-2 10-2 5.32 0 8.26 0.59 12.25 2.44 2.89 1.34 6.49 3.26 8.01 4.25 2.14 1.4 3.15 1.56 4.5 0.7 0.96-0.6 3.44-3.53 5.52-6.5l3.78-5.39c-4.51-3.87-7.79-5.97-10.19-7.16-2.4-1.18-5.27-2.47-6.37-2.86-1.1-0.39-5.15-1.34-9-2.1-3.85-0.76-8.8-1.32-11-1.25-2.2 0.07-5.8 0.67-8 1.32zm-20.92 16.65c-0.43 0.68-1 4.64-1.28 8.81-0.38 5.89-0.09 8.6 1.32 12.09 1 2.48 3.64 6.19 5.85 8.27 2.22 2.07 4.48 3.76 5.03 3.77 0.55 0-0.99-1.69-3.41-3.77-2.43-2.07-5.24-5.68-6.25-8.02-1.11-2.56-1.84-6.63-1.84-10.25 0-3.3 0.35-7.19 0.77-8.64 0.43-1.45 0.73-2.83 0.68-3.07-0.05-0.23-0.45 0.13-0.87 0.81zm27.42 20.31c0.27 0.25 4.77 1.85 10 3.54 5.23 1.69 11.48 4.08 13.89 5.31 2.42 1.23 5.71 3.59 7.32 5.24 1.61 1.65 3.68 4.58 4.61 6.5 1.11 2.32 1.68 6.02 1.68 11 0 5.05-0.57 8.73-1.75 11.25-0.96 2.06-3.55 5.55-5.75 7.75-2.2 2.2-5.8 4.9-8 6-2.2 1.1-7.26 2.52-11.25 3.15-5.67 0.9-8.78 0.87-14.25-0.13-3.85-0.71-8.13-1.74-9.5-2.28-1.38-0.54-3.63-1.48-5-2.08-1.38-0.6-4.86-2.57-7.75-4.37-2.89-1.81-5.25-3.74-5.25-4.29 0-0.55 1.69-3.45 3.75-6.45 2.99-4.35 4.15-5.33 5.75-4.84 1.1 0.34 4.02 1.9 6.5 3.47 2.48 1.57 6.86 3.52 9.75 4.34 2.89 0.81 8.06 1.5 11.5 1.51 4.76 0.03 6.91-0.45 9-2 1.51-1.11 3.42-3.38 4.25-5.03 0.83-1.65 1.5-4.12 1.5-5.5 0-1.37-1.28-3.96-2.85-5.75-2.3-2.61-5.19-4.01-14.75-7.14-6.55-2.14-12.57-4.09-13.4-4.33-1.33-0.38-1.33-0.32 0 0.52 0.83 0.53 5.77 2.4 11 4.16 5.23 1.76 11.02 3.95 12.89 4.87 1.86 0.92 4 2.91 4.75 4.42 0.75 1.51 1.14 3.99 0.88 5.5-0.27 1.51-1.28 3.69-2.25 4.84-0.98 1.15-2.78 2.62-4.02 3.25-1.24 0.64-4.61 1.17-7.5 1.17-2.89 0.01-8.06-0.89-11.5-2-3.44-1.1-8.39-3.37-11-5.02-2.61-1.66-5.2-3.03-5.75-3.05-0.55-0.01-3.1 2.81-5.68 6.27-2.57 3.46-4.47 6.74-4.23 7.29 0.25 0.55 3.03 2.66 6.18 4.7 3.15 2.03 7.53 4.45 9.73 5.38 2.2 0.93 6.48 2.29 9.5 3.02 3.02 0.73 7.98 1.34 11 1.35 3.02 0.01 8.2-0.63 11.5-1.43 3.3-0.8 8.11-2.93 10.69-4.73 2.58-1.81 6.06-5.31 7.74-7.79 1.68-2.48 3.51-6.08 4.06-8 0.56-1.92 1.01-5.98 1-9-0.01-3.64-0.8-7.19-2.34-10.5-1.28-2.75-3.97-6.46-5.99-8.25-2.01-1.79-5.12-3.9-6.91-4.7-1.79-0.79-6.4-2.4-10.25-3.56-3.85-1.17-8.01-2.54-9.25-3.06-1.24-0.51-2.81-0.94-3.5-0.96-0.69-0.01-1.02 0.18-0.75 0.44z"/>
		<path id="Path 1" class="s0" d="m925.5 489.9c-1.65 0.38-5.02 1.84-7.5 3.25-2.48 1.41-5.85 4.15-7.5 6.09-1.65 1.94-3.56 5.27-4.23 7.4-0.68 2.12-1.24 6.45-1.25 9.61-0.01 3.5 0.72 7.42 1.87 10 1.03 2.34 3.17 5.44 4.75 6.91 1.57 1.46 4.44 3.52 6.36 4.59 1.92 1.07 9.53 3.93 16.9 6.35 10.97 3.6 13.91 4.99 16.25 7.65 1.57 1.79 2.85 4.38 2.85 5.75 0 1.38-0.67 3.85-1.5 5.5-0.83 1.65-2.74 3.92-4.25 5.03-2.09 1.55-4.24 2.03-9 2-3.44-0.01-8.61-0.7-11.5-1.51-2.89-0.82-7.27-2.77-9.75-4.34-2.48-1.57-5.4-3.13-6.5-3.47-1.6-0.49-2.76 0.49-5.75 4.84-2.06 3-3.75 5.9-3.75 6.45 0 0.55 2.36 2.48 5.25 4.29 2.89 1.8 6.38 3.77 7.75 4.37 1.38 0.6 3.63 1.54 5 2.08 1.38 0.54 5.65 1.57 9.5 2.28 5.47 1 8.58 1.03 14.25 0.13 3.99-0.63 9.05-2.05 11.25-3.15 2.2-1.1 5.8-3.8 8-6 2.2-2.2 4.79-5.69 5.75-7.75 1.18-2.52 1.75-6.2 1.75-11.25 0-4.98-0.57-8.68-1.68-11-0.93-1.92-3-4.85-4.61-6.5-1.61-1.65-4.9-4-7.32-5.22-2.41-1.22-9.34-3.86-15.39-5.85-6.05-2-12.24-4.26-13.75-5.03-1.51-0.77-3.43-2.41-4.26-3.65-0.83-1.24-1.5-3.71-1.5-5.5 0.01-2.26 1-4.34 3.26-6.82 3.21-3.53 3.35-3.58 11.25-3.58 6 0 9.25 0.54 13 2.16 2.75 1.19 6.24 3.03 7.75 4.08 1.51 1.05 3.2 1.91 3.75 1.91 0.55 0 2.59-2.36 4.53-5.25 1.93-2.89 3.29-5.92 3-6.75-0.28-0.82-3.78-3.17-7.77-5.21-3.99-2.04-9.28-4.16-11.76-4.72-2.48-0.56-8.1-0.99-12.5-0.94-4.4 0.04-9.35 0.39-11 0.77z"/>
		<path id="Path 2" class="s1" d="m698 452.75c0 0.41 12.94 0.75 28.75 0.75 24.49 0 29.57 0.26 34.25 1.74 3.02 0.95 7.91 3.42 10.87 5.49 3.45 2.43 6.66 5.88 9 9.68 3.57 5.82 3.63 6.08 3.63 16.5 0 8.39-0.39 11.32-1.86 14.09-1.02 1.93-4.39 6.05-7.5 9.16l-5.64 5.66c6.2 3.76 9.73 6.84 11.84 9.26 2.11 2.43 4.67 6 5.7 7.92 1.03 1.92 1.9 3.05 1.94 2.5 0.03-0.55-0.59-2.35-1.4-4-0.8-1.65-3.17-4.81-5.27-7.02-2.09-2.21-5.39-5.21-7.31-6.66l-3.5-2.64c6.8-5.95 9.78-9.48 11.01-11.68 1.23-2.2 2.77-6.7 3.44-10 1-5.02 0.94-7.23-0.41-13.5-0.88-4.13-2.6-9.04-3.82-10.93-1.22-1.89-4.24-5.19-6.72-7.34-2.48-2.15-6.52-4.83-9-5.95-2.48-1.13-7.42-2.42-11-2.88-3.58-0.46-17.86-0.85-31.75-0.87-13.89-0.02-25.25 0.31-25.25 0.72zm109.54 39.59c-0.26 0.77-0.38 17.55-0.26 37.28 0.17 27.73 0.52 36.33 1.54 37.88 1.23 1.87 1.27 1.84 0.55-0.5-0.42-1.38-0.9-18.81-1.06-38.75l-0.31-36.25h18l0.54 62.5-0.04-63c-16.48-0.51-18.58-0.27-18.96 0.84zm64.46-0.6c3.02 0.2 7.52 0.2 10-0.01 2.48-0.2 0-0.37-5.5-0.36-5.5 0-7.52 0.17-4.5 0.37zm-5.77 30.01c-0.19 22.9-0.52 28.96-1.79 32-0.85 2.06-2.54 4.81-3.75 6.1-1.2 1.29-3.99 3.42-6.19 4.74-3.01 1.81-5.6 2.44-10.5 2.56-4.32 0.1-7.59-0.41-9.75-1.5-1.79-0.91-4.15-3.11-5.25-4.9q-1.99-3.25-2-1.5c0 0.96 1.24 3.04 2.75 4.63 1.51 1.58 4.77 3.42 7.25 4.1 2.73 0.74 6.47 0.95 9.5 0.54 2.75-0.38 6.13-1.28 7.5-2.01 1.38-0.72 4.23-3.05 6.34-5.16 2.11-2.12 4.49-5.43 5.28-7.35 1.17-2.83 1.39-8.92 1.15-32l-0.3-28.5zm-76.74 26.25c0 5.94 0.33 10.29 0.74 9.65 0.4-0.63 0.73-4.98 0.73-9.65 0-4.67-0.33-9.02-0.73-9.66-0.41-0.63-0.74 3.71-0.74 9.66zm-2.8 15.39c-0.93 1.99-3.83 5.91-6.45 8.71-2.61 2.81-6.77 6.02-9.25 7.15-2.47 1.13-6.07 2.53-8 3.12-2.14 0.65-15.44 1.08-34.25 1.1-16.91 0.01-30.75 0.37-30.75 0.78 0 0.41 13.62 0.76 30.25 0.77 26.96 0.01 30.85-0.19 35.75-1.86 3.03-1.03 7.3-2.78 9.5-3.9 2.2-1.11 5.92-4.1 8.25-6.64 2.34-2.54 4.93-6.31 5.76-8.37 0.82-2.06 1.36-3.91 1.19-4.11-0.17-0.2-1.07 1.27-2 3.25zm23.36 6.86c-0.03 0.41 0.47 1.76 1.11 3 0.64 1.24 2.55 3.54 4.25 5.12 1.7 1.57 4.43 3.55 6.08 4.4 1.65 0.84 5.48 2.12 8.5 2.85 3.03 0.72 7.3 1.32 9.5 1.33 2.2 0.02 6.25-0.56 9-1.27 2.75-0.71 6.58-2.37 8.5-3.68 1.93-1.31 4.63-3.71 6-5.33l2.5-2.95c1.19 9.76 1.19 9.75 1.36 3.28l0.17-6.5c-7.38 7.95-10.88 10.93-12.53 11.76-1.65 0.83-5.47 2.03-8.5 2.67-4.18 0.89-7.17 0.88-12.5-0.01-3.85-0.65-9.02-2.18-11.5-3.41-2.47-1.23-5.62-3.59-7-5.24-1.37-1.65-3.03-3.85-3.69-4.89-0.65-1.03-1.21-1.54-1.25-1.13zm61.94 14.49c3.03 0.2 7.53 0.2 10-0.01 2.48-0.2 0-0.37-5.5-0.36-5.5 0-7.52 0.17-4.5 0.37z"/>
		<path id="Path 3" fill-rule="evenodd" class="s2" d="m235 383.74c4.68 0.19 11.88 0.19 16 0 4.13-0.18 0.3-0.34-8.5-0.34-8.8 0.01-12.18 0.16-7.5 0.34zm-42.5 7.67c-3.3 1.27-9.6 4.14-14 6.37-4.4 2.23-8.9 4.77-10 5.64-1.1 0.87 2.05-0.54 7-3.14 4.95-2.6 12.82-6.19 17.5-7.97 4.68-1.78 7.82-3.24 7-3.23-0.82 0.01-4.2 1.06-7.5 2.33zm100.5 0.78c1.38 0.66 6.15 2.88 10.62 4.94 4.46 2.06 8.18 3.54 8.25 3.31 0.07-0.24-3.58-2.19-8.12-4.33-4.54-2.14-9.38-4.17-10.75-4.51l-2.5-0.61zm-135.65 18.69c-4.32 3.24-11.3 9.43-15.51 13.75-4.22 4.33-10.23 11.47-13.36 15.87-3.13 4.4-6.77 10.14-8.09 12.75-1.31 2.61-2.17 4.75-1.89 4.75 0.28 0 2.03-2.81 3.9-6.25 1.86-3.44 6.07-9.85 9.33-14.25 3.27-4.4 9.51-11.38 13.86-15.52 4.35-4.13 10.74-9.53 14.2-12 3.46-2.46 6.27-4.59 6.25-4.73-0.02-0.14-0.22-0.25-0.44-0.25-0.22 0-3.93 2.65-8.25 5.88zm165.74-3.69c-0.08 0.17 3.53 3.24 8.02 6.81 4.49 3.58 10.91 9.43 14.28 13.02 3.36 3.58 8.13 9.22 10.61 12.53 2.48 3.31 5.31 7.13 6.29 8.49 1.73 2.37 1.73 2.33 0-0.87-0.98-1.84-4.54-6.79-7.9-11-3.36-4.22-9.7-11.04-14.1-15.17-4.39-4.12-10.03-8.99-12.52-10.81-2.5-1.82-4.61-3.17-4.68-3zm105.06 47.03q0.08 2.32 0.47 0.53c0.33-1.52 1.67-1.75 10.38-1.75h10c7.09 22.09 9.34 28.28 9.57 28 0.22-0.27-1.72-6.8-4.33-14.5l-4.74-14c-21.31-0.56-21.43-0.54-21.35 1.72zm93.88-0.22c-0.57 1.1-0.83 2.34-0.6 2.75 0.24 0.41 0.69-0.26 1-1.5 0.54-2.15 1.03-2.25 10.57-2.25 8.71 0 10.05 0.23 10.38 1.75 0.28 1.24 0.42 1.09 0.5-0.5 0.12-2.2-0.12-2.25-10.35-2.25-9.46 0-10.57 0.19-11.5 2zm37.47 1.81c-1.82 1.09-3.71 3.55-4.79 6.24-1.38 3.42-1.57 5.15-0.82 7.45 0.54 1.65 2.36 4.24 4.05 5.75 1.68 1.51 4.07 2.71 5.31 2.66 1.87-0.07 1.75-0.24-0.75-1.01-1.65-0.51-3.8-1.71-4.79-2.66-0.98-0.96-2.24-3.09-2.79-4.74-0.75-2.23-0.62-4.08 0.47-7.17 1.15-3.22 2.34-4.56 5.24-5.86 2.48-1.12 4.96-1.48 7.31-1.07 1.96 0.34 4.6 1.62 5.86 2.86 1.27 1.23 2.69 3.59 3.16 5.24 0.47 1.65 0.9 2.21 0.95 1.25 0.05-0.96-0.6-2.99-1.45-4.5-0.84-1.51-2.86-3.54-4.5-4.5-1.63-0.96-4.42-1.75-6.21-1.75-1.79 0.01-4.6 0.82-6.25 1.81zm-130.3 2.19c0.29 0.83 2.27 6.12 4.41 11.76 2.14 5.64 4.01 10.14 4.17 10 0.15-0.14-1.57-5.21-3.81-11.26-2.25-6.05-4.36-11.22-4.69-11.5-0.33-0.27-0.37 0.18-0.08 1zm-56.19 10c-0.03 0.28 0.7 2.3 1.63 4.5 0.93 2.2 2.95 8.05 4.47 13 1.53 4.95 2.8 8.33 2.84 7.5 0.03-0.82-1.3-5.77-2.96-11-1.66-5.22-3.67-10.62-4.47-12-0.8-1.37-1.48-2.27-1.51-2zm-263.27 9.2c-1.48 4.02-3.34 10-4.15 13.3-0.8 3.3-2 9.83-2.67 14.5-0.78 5.52-0.99 14.28-0.61 25 0.33 9.08 1.3 19.65 2.16 23.5 0.87 3.85 2.72 10.6 4.13 15 1.4 4.4 2.74 7.78 2.97 7.5 0.23-0.27-0.42-2.97-1.44-6-1.02-3.02-2.91-9.77-4.2-15-2.1-8.46-2.36-11.81-2.37-30.5-0.01-18.13 0.29-22.23 2.16-30 1.2-4.95 3.23-12.35 4.52-16.45 1.29-4.1 2.31-7.6 2.27-7.8-0.05-0.19-1.29 2.94-2.77 6.95zm463.93-3.09c-1.47 1.59-3.68 3.05-4.92 3.25l-2.25 0.37c3.49 0.21 5.96-1.04 7.75-2.65 1.79-1.6 2.99-3.13 2.67-3.38-0.32-0.26-1.79 0.83-3.25 2.41zm-63.03 13.08c-2.64 7.87-4.65 14.4-4.47 14.5 0.18 0.11 2.38-6.12 4.89-13.83 2.51-7.72 4.52-14.24 4.47-14.51-0.05-0.26-2.25 5.97-4.89 13.84zm21.99-3.44c-0.25 0.41-2.08 5.25-4.05 10.75-1.97 5.5-3.47 10.11-3.33 10.24 0.14 0.14 1.02-1.66 1.95-4 0.94-2.33 2.79-7.28 4.11-10.99 1.33-3.71 2.27-6.75 2.1-6.75-0.17 0-0.52 0.34-0.78 0.75zm90.37 5.7c-2.48 0.69-6.08 1.92-8 2.73-1.92 0.81-5.87 3.01-8.76 4.89-2.89 1.89-5.26 3.88-5.27 4.43-0.01 0.55 1 0.06 2.25-1.08 1.26-1.15 4.3-3.24 6.78-4.65 2.48-1.41 7.87-3.57 12-4.8 6.24-1.87 9.1-2.17 17-1.76 6.22 0.31 11.4 1.2 15 2.57 3.02 1.16 7.32 3.81 9.55 5.91 2.44 2.29 4.91 6 6.2 9.31 1.18 3.03 2.17 4.6 2.19 3.5 0.02-1.1-1.3-4.36-2.95-7.25-1.64-2.89-4.9-6.62-7.24-8.3-2.34-1.68-7.17-3.94-10.75-5.02-4.48-1.36-9.14-1.94-15-1.86-4.67 0.06-10.52 0.68-13 1.38zm23.5 18.37c1.65 0.99 3.78 3.35 4.73 5.24 1.02 2.05 1.73 2.73 1.75 1.69 0.01-0.96-1.56-3.32-3.48-5.25-1.92-1.92-4.06-3.5-4.75-3.5-0.69 0.01 0.1 0.82 1.75 1.82zm-45.35 3.18c-0.11 2.48 0.14 4.83 0.57 5.24 0.43 0.41 3.26-0.69 6.28-2.45 3.02-1.76 7.52-3.98 10-4.95 2.48-0.96 3.83-1.78 3-1.82-0.83-0.05-5.1 1.72-9.5 3.92-4.4 2.2-8.34 4.02-8.75 4.03-0.41 0.02-0.9-1.88-1.08-4.22l-0.32-4.25zm-132.95-2c0.28 0.83 2.41 7.35 4.73 14.5 2.33 7.15 4.41 12.78 4.63 12.5 0.22-0.27-1.63-6.57-4.12-14-2.48-7.42-4.79-13.72-5.14-14-0.34-0.27-0.39 0.18-0.1 1zm-18.23 4.5c0.01 0.55 1.93 6.06 4.27 12.23 2.35 6.18 4.38 11.13 4.52 11 0.15-0.12-1.6-5.4-3.87-11.73-2.28-6.32-4.32-11.72-4.54-12-0.22-0.27-0.39-0.05-0.38 0.5zm-64.62 11c0 4.4 0.17 5.98 0.38 3.5 0.22-2.47 0.21-6.07 0-8-0.22-1.92-0.39 0.1-0.38 4.5zm252.65 1.01c-8.52 1.28-18.2 3.18-21.5 4.21-3.3 1.04-8.02 3.27-10.5 4.97-2.47 1.69-5.4 4.13-6.5 5.42-1.16 1.36-0.42 0.99 1.75-0.88 2.06-1.78 6.11-4.41 9-5.85 2.89-1.44 9.08-3.43 13.75-4.42 4.68-1 13-2.36 18.5-3.04 5.5-0.67 10.43-1.61 10.95-2.07 0.52-0.47 0.75-0.81 0.5-0.77-0.25 0.05-7.42 1.14-15.95 2.43zm-122.37 5.24c-0.26 0.41-2.31 5.93-4.56 12.25-2.25 6.33-3.97 11.61-3.83 11.76 0.15 0.14 2.02-4.59 4.18-10.5 2.15-5.92 4.26-11.55 4.68-12.51 0.42-0.96 0.59-1.75 0.38-1.75-0.21 0-0.59 0.34-0.85 0.75zm-24.15 13.26c-1.64 4.4-2.75 8.22-2.48 8.49 0.28 0.28 1.66-3.14 3.07-7.59 1.41-4.45 2.53-8.27 2.48-8.5-0.05-0.22-1.43 3.2-3.07 7.6zm83.66 36.74l-0.14 3.25c-13.95-0.39-18-0.16-18 0.25 0 0.41 4.05 0.75 9 0.75 6.24 0 9.17-0.38 9.56-1.25 0.31-0.69 0.37-2.37 0.14-3.75-0.35-2.06-0.45-1.93-0.56 0.75zm-203.95 4.95c-1.76 3.74-3.09 6.91-2.95 7.04 0.15 0.13 1.72-2.68 3.51-6.25 1.79-3.57 3.11-6.74 2.95-7.04-0.17-0.3-1.75 2.51-3.51 6.25zm125.26-2.75c-0.52 0.53-4.55 1.11-8.95 1.3l-8 0.35c15.81 0.36 17.57 0.11 17.87-1.1 0.21-0.82 0.3-1.5 0.2-1.5-0.09 0-0.6 0.43-1.12 0.95zm158.15 1.3c0.22 0.41 4.23 0.75 8.9 0.75 4.68 0 8.68-0.34 8.91-0.75 0.22-0.41-3.79-0.75-8.91-0.75-5.12 0-9.12 0.34-8.9 0.75zm-537.18 5.5c1.37 2.61 3.65 6.55 5.09 8.75 1.44 2.2 2.47 3.55 2.3 3-0.17-0.55-2.14-4.49-4.38-8.75-2.24-4.26-4.39-7.75-4.78-7.75-0.38 0 0.41 2.14 1.77 4.75zm502.59-3.5c0 0.41 1.45 0.72 3.24 0.69 1.79-0.03 5.05-0.43 7.25-0.9 3.43-0.72 2.96-0.82-3.24-0.69-3.98 0.08-7.24 0.49-7.25 0.9zm-261.41 21.1c-2.61 3.93-3.58 5.8-2.16 4.15 1.42-1.65 3.82-4.69 5.33-6.76 1.5-2.07 2.47-3.94 2.16-4.15-0.32-0.21-2.72 2.83-5.33 6.76zm-228.69 2.4c2.73 3.71 8.22 9.9 12.22 13.75l7.26 7c-13.09-13.99-18.24-20.17-19.89-22.77-1.65-2.6-3.34-4.73-3.77-4.73-0.42 0 1.46 3.04 4.18 6.75zm26.09 26.71c0.83 0.99 5.78 4.58 11 7.99 5.23 3.41 10.74 6.72 12.25 7.37 1.51 0.65 2.75 0.96 2.75 0.68 0-0.27-3.26-2.25-7.25-4.39-3.99-2.14-10.17-6.05-13.75-8.67-3.57-2.63-5.82-3.97-5-2.98zm167.5 5.1c-4.4 3-7.55 5.46-7 5.47 0.55 0.01 4.26-2.24 8.25-5 3.99-2.77 7.25-5.25 7.25-5.53 0-0.27-0.11-0.47-0.25-0.44-0.14 0.03-3.85 2.51-8.25 5.5zm-44 20.48c-3.3 0.99-4.87 1.8-3.5 1.8 1.38 0 4.75-0.83 7.5-1.84 2.75-1.01 4.33-1.83 3.5-1.8-0.82 0.02-4.2 0.85-7.5 1.84zm-13.64 2.83c-2 0.34-4.03 1.01-4.5 1.47-0.47 0.46 0.94 0.5 3.14 0.09 2.2-0.41 5.13-1.08 6.5-1.5 1.92-0.58 2.03-0.75 0.5-0.73-1.1 0.02-3.64 0.32-5.64 0.67zm-34.25 2.32c2.14 0.38 8.17 0.67 13.39 0.63 5.23-0.03 10.83-0.34 12.45-0.69 1.61-0.35-4.41-0.63-13.4-0.63-9.14 0-14.62 0.31-12.44 0.69z"/>
		<path id="Path 4" class="s3" d="m384.33 515.5c0 3.85 0.18 5.2 0.4 3 0.21-2.2 0.21-5.35-0.01-7-0.22-1.65-0.4 0.15-0.39 4zm190.54 9.25c-0.08 2.06-0.08 7.58-0.01 12.25 0.07 4.67 0.37 8.73 0.66 9 0.3 0.27 0.52-5.24 0.51-12.25-0.02-7.01-0.25-12.75-0.53-12.75-0.27 0-0.56 1.69-0.63 3.75zm-190.52 9.25c0 4.67 0.17 6.48 0.38 4 0.21-2.48 0.21-6.3 0-8.5-0.21-2.2-0.38-0.17-0.38 4.5z"/>
		<path id="Path 5" fill-rule="evenodd" class="s0" d="m728.35 453.26c26.74 0.48 29.6 0.7 34.65 2.67 3.02 1.18 7.46 3.59 9.85 5.36 2.4 1.77 6 5.87 8 9.12 3.6 5.83 3.65 6.07 3.65 16.5 0 8.39-0.39 11.32-1.86 14.09-1.02 1.93-4.39 6.05-13.14 14.82l4 2.43c2.2 1.33 5.73 4.41 7.84 6.83 2.11 2.43 4.79 6.22 5.96 8.42 1.74 3.29 2.13 5.78 2.16 14 0.03 8.35-0.33 10.78-2.21 14.75-1.24 2.61-4.39 7.05-7 9.85-2.61 2.81-6.77 6.02-9.25 7.15-2.48 1.13-6.08 2.53-8 3.11-2.12 0.64-15.53 1.08-64.5 1.14l-0.26-64c-0.14-35.2 0.02-64.62 0.35-65.38 0.51-1.13 5.62-1.28 29.76-0.86zm-9.52 36.41l0.17 18.33c23.2-0.02 29.06-0.5 32.5-1.55 2.75-0.84 5.9-2.1 7-2.81 1.1-0.7 3.01-3.27 4.24-5.71 1.36-2.71 2.24-6.28 2.25-9.18 0-2.61-0.47-5.99-1.06-7.5-0.58-1.51-2.05-3.8-3.25-5.09-1.2-1.28-3.76-3.02-5.68-3.85-2.4-1.03-8.38-1.67-19-2.03-8.53-0.28-15.91-0.16-16.42 0.27-0.5 0.43-0.84 9.01-0.75 19.12zm0.5 57.86l0.17 18.97c27.22 0.45 31.74 0.14 36.25-1.19 3.16-0.94 6.87-2.66 8.25-3.84 1.37-1.18 3.29-3.8 4.25-5.81 1.04-2.18 1.75-5.99 1.75-9.41 0-3.48-0.69-7.12-1.75-9.23-1-1.98-3.68-4.64-6.25-6.19-3.52-2.13-6.63-2.95-14.25-3.78-5.36-0.58-13.81-1.05-18.77-1.05-6.47 0-9.14 0.36-9.43 1.28-0.22 0.71-0.32 9.82-0.22 20.25zm88.67-55.53h17.98l0.26 33.75c0.25 31.89 0.37 33.91 2.26 36.63 1.1 1.59 3.35 3.6 5 4.48 1.96 1.04 5.43 1.58 10 1.56 4.4-0.03 8.11-0.64 10-1.64 1.65-0.87 4.73-3.32 6.84-5.43 2.11-2.12 4.48-5.43 5.27-7.35 1.14-2.77 1.43-9.57 1.39-62h19v92h-19l0.03-13.5-4.77 5.13c-2.62 2.82-6.11 5.8-7.76 6.63-1.65 0.83-5.48 2.03-8.5 2.67-4.19 0.89-7.17 0.88-12.5-0.01-3.85-0.65-9.03-2.2-11.5-3.45-2.48-1.25-5.43-3.33-6.57-4.62-1.13-1.29-2.74-3.47-3.58-4.85-0.84-1.37-2.05-4.64-2.69-7.25-0.77-3.14-1.16-16.27-1.16-38.75z"/>
		<path id="Path 6" fill-rule="evenodd" class="s4" d="m246 384.44c19.15 0.28 21.26 0.5 32 3.36 6.32 1.67 15.32 4.68 20 6.68 4.68 2 11.43 5.23 15 7.17 3.57 1.95 9.65 5.9 13.5 8.77 3.85 2.88 9.88 7.9 13.4 11.16 3.51 3.26 8.96 9.07 12.11 12.92 3.14 3.85 7.88 10.38 10.54 14.5 2.66 4.13 6.52 11.1 8.57 15.5 2.05 4.4 4.94 11.6 6.41 16 1.47 4.4 3.56 12.05 4.64 17 1.56 7.17 1.95 12.77 1.93 27.5-0.02 12.84-0.52 20.95-1.62 26.5-0.88 4.4-2.75 11.6-4.14 16-1.4 4.4-5.04 13.17-8.1 19.5-3.05 6.33-8.04 15.1-11.09 19.5-3.05 4.4-10.3 12.75-16.1 18.55-6 5.99-14.43 13.13-19.55 16.55-4.95 3.31-11.02 7.18-13.5 8.6-2.48 1.42-7.43 3.8-11 5.3-3.57 1.5-7.18 2.86-8 3.04-0.82 0.17-3.3 0.96-5.5 1.76-2.2 0.8-8.73 2.48-14.5 3.74-8.28 1.8-13.78 2.29-26 2.34-10.73 0.05-18.42-0.47-25-1.68-5.22-0.97-13.78-3.13-19-4.81-5.22-1.67-13.55-5.08-18.5-7.57-4.95-2.49-11.93-6.45-15.5-8.81-3.57-2.35-7.62-5.12-9-6.14-1.37-1.03-7.5-6.82-13.62-12.87-7.49-7.41-13.25-14.26-17.67-21-3.6-5.5-8.34-13.83-10.52-18.5-2.18-4.67-5.09-12.1-6.47-16.5-1.37-4.4-3.34-11.6-4.36-16-1.48-6.39-1.86-12.04-1.86-28 0-15.68 0.39-21.73 1.81-28 0.99-4.4 3.16-12.27 4.82-17.5 1.66-5.23 4.77-13.1 6.91-17.5 2.14-4.4 6.71-12.27 10.14-17.5 3.44-5.23 9.86-13.27 14.28-17.87 4.42-4.6 11.86-11.22 16.54-14.7 4.68-3.49 12.78-8.59 18-11.33 5.22-2.74 12.43-6.09 16-7.45 3.57-1.35 10.32-3.46 15-4.67 4.68-1.21 10.75-2.58 13.5-3.03 2.75-0.45 14.22-0.68 25.5-0.51zm-42.25 22.6c-4.81 1.63-12.69 4.94-17.5 7.37-4.81 2.42-12.01 6.7-16 9.5-3.99 2.8-10.62 8.46-14.75 12.59-4.12 4.13-9.79 10.76-12.59 14.75-2.8 3.99-6.46 9.95-8.14 13.25-1.67 3.3-4.56 9.94-6.41 14.75-1.85 4.81-4.48 14.26-5.85 21-1.8 8.89-2.49 15.47-2.5 24-0.01 7.46 0.68 15.31 1.88 21.5 1.04 5.36 3.32 14.02 5.06 19.25 1.74 5.23 5.07 13.1 7.4 17.5 2.33 4.4 6.73 11.38 9.77 15.5 3.05 4.13 9.11 11.1 13.47 15.5 4.36 4.4 11.97 10.73 16.92 14.06 4.94 3.34 12.37 7.68 16.49 9.64 4.13 1.97 10.65 4.54 14.5 5.72 3.85 1.17 7.79 2.35 8.75 2.61 1.24 0.33 2.18-0.48 3.21-2.78 0.81-1.79 3.02-7.52 4.92-12.75 1.91-5.23 5.33-14.45 7.62-20.5 2.28-6.05 4.54-11.9 5.02-13 0.48-1.1 2.87-7.63 5.32-14.5 2.44-6.88 5.8-15.88 7.46-20 1.66-4.13 4-10.2 5.2-13.5 1.21-3.3 2.55-6.9 2.98-8 0.43-1.1 1.49-3.8 2.36-6 0.87-2.2 2.95-7.71 4.62-12.25l3.04-8.25c27.78 0.02 34.02-0.42 37.75-1.49 3.24-0.93 6.8-2.95 9.31-5.26 2.23-2.06 4.74-5.55 5.59-7.75 1.01-2.65 1.41-6.41 1.19-11.16-0.29-6.03-0.81-7.83-3.34-11.41-1.65-2.34-4.8-5.19-7-6.34-3.44-1.8-6.01-2.12-18.5-2.32-7.98-0.12-16.07 0.01-18 0.29l-3.5 0.52c-9.1 25.13-12.54 34.22-13.51 36.42-0.98 2.2-4.57 11.65-7.98 21-3.41 9.35-9.02 24.42-12.47 33.5-3.45 9.08-8.13 21.79-10.4 28.25l-4.14 11.75h-13c-4.82-12.79-8.83-23.7-12.01-32.5-3.19-8.8-6.79-18.48-8-21.5-1.22-3.02-6.15-16.3-10.96-29.5-4.8-13.2-12.16-33.23-16.34-44.5-4.18-11.27-7.28-20.84-6.89-21.26 0.38-0.42 5.13-0.64 10.54-0.5l9.84 0.26c10.55 29.45 18.55 52.18 24.59 69.5 6.04 17.33 11.75 33.98 12.69 37 0.94 3.02 2.06 5.05 2.48 4.5 0.42-0.55 2.46-5.73 4.52-11.5 2.07-5.77 6.12-16.58 9.01-24 2.88-7.42 6.67-17.55 8.41-22.5 1.75-4.95 6.9-18.9 11.45-31l8.28-22c35.35-0.46 47.65-0.12 51.39 0.5 3.57 0.6 8.75 2.16 11.5 3.48 2.75 1.31 7.36 4.67 10.25 7.46 3.26 3.14 6.48 7.62 8.5 11.81 2.94 6.13 3.23 7.58 3.18 15.75-0.06 7.15-0.54 10.03-2.35 14-1.26 2.75-5.05 7.81-8.43 11.25-3.38 3.44-5.92 6.4-5.65 6.58 0.27 0.18 2.07 1.26 4 2.4 1.93 1.14 5.5 4.26 7.95 6.92 2.45 2.67 5.48 7.1 6.74 9.85 1.26 2.75 2.57 7.92 2.92 11.5 0.44 4.56 0.15 8.37-0.99 12.75-0.89 3.44-2.59 8.16-3.78 10.5-1.19 2.34-4.46 6.47-7.25 9.18-2.8 2.71-7.79 6.14-11.09 7.63-3.3 1.48-8.36 3.2-11.25 3.82-3.1 0.66-15.7 1.12-30.75 1.12h-25.5c-1.04 4.26-2.33 7.75-3.55 10.5-1.22 2.75-3.35 8.38-4.74 12.5-1.39 4.12-3.29 9.52-4.21 12-0.93 2.48-2.04 5.4-2.47 6.5-0.43 1.1-1.29 3.24-1.91 4.75-0.61 1.51-1.12 3.42-1.12 4.25 0 1.21 1.58 1.5 8.25 1.49 4.54 0 12.52-0.65 17.75-1.44 5.23-0.79 13.55-2.76 18.5-4.37 4.95-1.61 12.38-4.63 16.5-6.7 4.13-2.08 11.55-6.52 16.5-9.88 4.95-3.35 12.6-9.7 17.01-14.1 4.41-4.4 10.54-11.83 13.64-16.5 3.1-4.67 7.09-11.42 8.87-15 1.78-3.58 4.54-9.88 6.13-14 1.59-4.13 3.84-12 5-17.5 1.55-7.35 2.12-13.71 2.14-24 0.03-9.44-0.53-16.93-1.72-23-0.97-4.95-3.12-12.82-4.77-17.5-1.66-4.68-5.03-12.32-7.49-17-2.47-4.68-6.57-11.43-9.13-15-2.56-3.57-7.81-9.82-11.66-13.87-3.86-4.06-10.84-10.25-15.52-13.76-4.68-3.51-13.45-8.82-19.5-11.8-6.05-2.98-14.15-6.37-18-7.53-3.85-1.17-11.05-2.78-16-3.58-4.95-0.8-14.62-1.41-21.5-1.35-6.87 0.05-16.32 0.74-21 1.53-4.68 0.79-12.44 2.77-17.25 4.4zm71.37 136.09c-2.41 6.25-5.71 14.97-7.34 19.37-1.63 4.4-3.32 9.12-3.77 10.5-0.44 1.37-1.07 3.29-1.41 4.25-0.56 1.63 0.91 1.75 21.9 1.75 21.28 0 22.75-0.12 27.17-2.25 2.58-1.24 6.29-4.09 8.25-6.33 1.97-2.25 4.14-5.85 4.81-8 0.68-2.16 1.23-5.72 1.23-7.92 0-2.2-0.84-5.8-1.86-8-1.01-2.2-3.14-5.21-4.72-6.7-1.59-1.48-5.13-3.68-7.88-4.9-4.09-1.8-7.45-2.29-18.5-2.67l-13.5-0.47zm173.88-90.13l4.44 13.25c2.45 7.29 8.8 25.85 14.11 41.25 5.32 15.4 11.53 33.52 13.81 40.26 2.28 6.74 4.59 12.1 5.14 11.92 0.55-0.19 8.96-24.16 18.68-53.26 9.73-29.11 17.72-53.03 17.75-53.17 0.04-0.14 4.57-0.25 10.07-0.25 7.32 0 10 0.33 10.02 1.25 0.01 0.69-3.14 9.69-7 20-3.86 10.31-8.8 23.81-10.96 30-2.17 6.19-5.11 14.4-6.54 18.25-1.43 3.85-6.97 19.15-22.07 61l-8.61 0.5c-4.74 0.28-9.23 0.38-9.98 0.24-0.75-0.14-3.07-5.09-5.16-11-2.09-5.91-4.22-11.64-4.74-12.74-0.51-1.1-4.96-13.02-9.88-26.5-4.91-13.47-10.36-28.32-12.11-33-1.75-4.67-3.29-8.95-3.43-9.5-0.13-0.55-0.52-1.67-0.86-2.5-0.35-0.82-3.34-8.81-6.66-17.75-3.31-8.94-6.02-16.7-6.02-17.25 0-0.6 4-1 20-1zm118.5 2.41c2.83 0.33 4.8 1.36 6.75 3.53 1.51 1.68 2.8 4.07 2.87 5.31 0.06 1.24 0.04 2.93-0.04 3.75-0.09 0.83-0.71 2.55-1.37 3.82-0.67 1.28-2.34 3.04-3.71 3.91-1.38 0.87-4.08 1.6-6 1.62-1.93 0.02-4.74-0.72-6.25-1.65-1.51-0.94-3.46-3.39-4.33-5.45-1.42-3.38-1.43-4.15-0.06-7.75 1.01-2.64 2.65-4.6 4.83-5.78 2.22-1.2 4.62-1.63 7.31-1.31zm70.5 33.92c7.62 0.24 12.01 0.92 16 2.44 3.02 1.16 7.32 3.82 9.55 5.92 2.54 2.39 4.93 6.04 6.41 9.81 2.31 5.88 2.36 6.7 2.54 76h-17.77l-0.12-4.66c-0.06-2.56-0.44-5.04-0.84-5.5-0.4-0.46-2.65 0.99-5 3.23-2.43 2.31-6.86 5.06-10.27 6.38-4.65 1.79-8.04 2.32-15 2.34-7.46 0.03-9.94-0.39-14.5-2.44-3.53-1.59-6.8-4.07-9.12-6.91-1.99-2.44-4.19-6.24-4.89-8.44-0.76-2.42-1.08-6.77-0.79-11 0.29-4.19 1.29-8.61 2.5-11 1.12-2.2 3.55-5.29 5.41-6.87 1.86-1.59 5.53-3.95 8.14-5.25 2.61-1.31 7.79-3.09 11.5-3.96 3.71-0.87 12.37-2.36 31.75-5.06l-0.19-5.43c-0.12-3.52-0.85-6.31-2.07-7.93-1.04-1.37-3.43-3.29-5.31-4.25-2.24-1.14-5.7-1.74-9.93-1.73-3.58 0-9.43 0.71-13 1.56-3.58 0.85-9.55 3.2-13.27 5.23-3.72 2.03-6.92 3.47-7.11 3.19-0.2-0.27-0.66-3.2-1.03-6.5-0.61-5.44-0.46-6.19 1.62-8.08 1.26-1.15 4.09-3.13 6.29-4.4 2.2-1.28 7.15-3.39 11-4.68 5.97-2.01 8.53-2.31 17.5-2.01zm-14.5 55.06c-2.2 0.81-5.16 2.74-6.56 4.29-1.41 1.55-2.92 4.17-3.34 5.82-0.44 1.68-0.33 4.54 0.25 6.5 0.57 1.93 2.3 4.35 3.84 5.4 1.55 1.04 5.28 2.11 8.31 2.38 3.46 0.3 7.63-0.12 11.25-1.15 3.71-1.05 7.22-2.96 9.9-5.38 2.28-2.06 4.76-5.21 5.5-7 0.74-1.79 1.35-6.17 1.35-9.75 0-6.45-0.02-6.5-2.75-6.39-1.51 0.06-7.48 0.94-13.25 1.96-5.78 1.02-12.3 2.52-14.5 3.32zm-66.61-52.39h18.11l0.64 7.75c0.35 4.26 0.3 12.25-0.1 17.75-0.41 5.5-0.66 13.15-0.57 17 0.09 3.85 0.36 13.75 0.61 22 0.24 8.25 0.21 17.81-0.58 27.5l-17.5-0.5z"/>
		<path id="Path 7" fill-rule="evenodd" class="s1" d="m735.84 469.24c12.11 0.33 17.62 0.89 20.16 2.02 1.92 0.86 4.46 2.62 5.63 3.9 1.16 1.29 2.63 3.35 3.25 4.59 0.61 1.24 1.12 4.95 1.12 8.25 0 3.3-0.6 7.46-1.33 9.25-0.74 1.79-2.65 4.39-4.25 5.79-1.61 1.4-5.17 3.32-7.92 4.27-4.01 1.38-7.88 1.67-34 1.19l-0.17-18.47c-0.1-10.16 0.05-19.09 0.34-19.86 0.42-1.15 3.51-1.32 17.17-0.93zm-17.01 20.43l0.17 18.33c23.2-0.02 29.06-0.5 32.5-1.55 2.75-0.84 5.9-2.1 7-2.81 1.1-0.7 3.01-3.27 4.24-5.71 1.36-2.71 2.24-6.28 2.25-9.18 0-2.61-0.47-5.99-1.06-7.5-0.58-1.51-2.05-3.8-3.25-5.09-1.2-1.28-3.76-3.02-5.68-3.85-2.4-1.03-8.38-1.67-19-2.03-8.53-0.28-15.91-0.16-16.42 0.27-0.5 0.43-0.84 9.01-0.75 19.12zm-0.87 35.33h12.52c6.89 0 15.78 0.47 19.77 1.05 3.99 0.58 9.05 1.94 11.25 3.03 2.2 1.09 5 3.43 6.23 5.2 1.23 1.77 2.24 3.89 2.25 4.72 0.01 0.83-0.77-0.06-1.73-1.98-1-1.97-3.69-4.65-6.25-6.21-3.74-2.27-6.42-2.92-15.8-3.83-6.22-0.6-14.77-0.95-26.7-0.48v40l15.25 0.25c11.97 0.2 16.49-0.11 21-1.44 3.16-0.94 6.87-2.66 8.25-3.84 1.37-1.18 3.29-3.8 4.25-5.81 0.96-2.01 1.83-6.25 1.92-9.41 0.14-4.71 0.24-5.03 0.57-1.75 0.23 2.2 0.16 5.8-0.15 8-0.41 2.95-1.67 5.12-4.82 8.27-3 2.99-5.84 4.71-9.52 5.75-3.86 1.09-9.54 1.41-37.75 0.98zm-458.65 8c0.19 0-0.74 3.04-2.08 6.75-1.33 3.71-3.05 8.66-3.82 11-0.78 2.34-1.75 4.03-2.16 3.76-0.41-0.27 0.31-3.09 1.6-6.25 1.29-3.17 2.69-6.66 3.12-7.76 0.43-1.1 1.28-3.24 1.89-4.75 0.61-1.51 1.26-2.75 1.45-2.75zm19.12 0.22c0.05 0.2-1.72 5.16-3.92 11.03-2.21 5.87-4.12 10.58-4.26 10.46-0.14-0.12 1.24-4.48 3.07-9.71 1.82-5.23 3.7-10.09 4.18-10.82 0.47-0.72 0.89-1.15 0.93-0.96zm-29.95 28.13c0.04 0.23-1.14 3.96-2.62 8.29-1.48 4.32-4.19 11.79-6.02 16.58-1.84 4.8-3.48 8.63-3.65 8.5-0.17-0.12 1.7-5.85 4.16-12.72 2.45-6.88 5.27-14.43 6.26-16.79 0.99-2.36 1.83-4.1 1.87-3.86zm17 5.94c0.04 0.19-0.74 2.79-1.74 5.77-0.99 2.99-2.03 5.67-2.3 5.94-0.27 0.27-0.49 0.05-0.49-0.5 0-0.55 1.01-3.37 2.23-6.27 1.23-2.9 2.26-5.12 2.3-4.94zm-32.23 33.85c0.16 0.35-0.99 4.4-2.55 9-1.57 4.6-3.68 10.61-4.68 13.36-1 2.75-3.33 8.72-5.17 13.26-1.84 4.54-3.44 8.14-3.55 8-0.11-0.14 0.42-2.06 1.17-4.26 0.75-2.2 4.34-11.88 7.97-21.5 3.63-9.63 6.58-17.73 6.55-18-0.02-0.27 0.09-0.21 0.26 0.14zm13.48 18.07c0.18 0.16-0.1 1.41-0.62 2.79-0.51 1.37-1.92 5.2-3.12 8.5-1.2 3.3-2.55 6.9-3 8-0.44 1.1-1.5 3.8-2.35 6-0.84 2.2-1.57 3.33-1.61 2.5-0.04-0.83 0.79-3.75 1.86-6.5 1.06-2.75 3.41-8.73 5.22-13.29 1.82-4.56 3.45-8.16 3.62-8z"/>
		<path id="Path 8" fill-rule="evenodd" class="s2" d="m236 400.74c3.57 0.19 9.65 0.19 13.5 0 3.85-0.19 0.93-0.35-6.5-0.35-7.43 0-10.57 0.16-7 0.35zm-45.5 10.32c-3.85 1.66-11.5 6.03-17 9.71-5.5 3.69-13.41 10.09-17.57 14.22-4.17 4.13-9.72 10.44-12.35 14.01-2.63 3.57-5.24 7.4-5.8 8.5-0.57 1.1-0.6 1.55-0.08 1 0.53-0.55 3.17-4.15 5.87-8 2.71-3.85 8.18-10.26 12.17-14.25 4-3.99 10.52-9.56 14.51-12.38 3.99-2.81 12.2-7.53 18.25-10.49 6.05-2.95 10.55-5.35 10-5.34-0.55 0.01-4.15 1.37-8 3.02zm107.5 2.61c5.23 2.66 12.65 7.09 16.5 9.83 3.85 2.74 10.09 7.91 13.87 11.49 3.78 3.58 9.15 9.44 11.93 13.01 2.78 3.57 5.44 6.95 5.9 7.5 0.46 0.55 0.83 0.66 0.82 0.25-0.01-0.41-2.57-4.01-5.69-8-3.12-3.99-8.57-9.95-12.11-13.25-3.54-3.3-9.88-8.48-14.09-11.5-4.21-3.02-10.8-7.14-14.64-9.14-3.85-2-8.11-3.95-9.49-4.34-1.37-0.39 1.77 1.48 7 4.15zm-144.42 37.3c-0.32 0.56-0.11 1.82 0.47 2.78 0.9 1.5 0.97 1.43 0.5-0.5-0.54-2.22-0.42-2.25 9.45-2.25 7.07 0 10.15 0.37 10.5 1.25 0.27 0.69 0.35 0.57 0.17-0.25-0.26-1.19-2.43-1.56-10.42-1.78-6.2-0.18-10.31 0.11-10.67 0.75zm112.92-0.23c3.85 0.19 9.7 0.19 13 0 3.3-0.2 0.15-0.35-7-0.35-7.15 0-9.85 0.16-6 0.35zm37.75 0.86c4.89 0.78 11.07 2.55 14 4.01 2.89 1.44 6.14 3.35 7.23 4.25 1.89 1.56 1.91 1.55 0.5-0.23-0.81-1.03-3.28-2.93-5.48-4.23-2.2-1.29-7.15-3.03-11-3.86-3.85-0.83-8.58-1.47-10.5-1.43-1.93 0.05 0.44 0.72 5.25 1.49zm26.58 12.9c1.66 2.2 4.41 6.93 6.12 10.5 1.71 3.57 2.81 5.37 2.45 4-0.36-1.38-1.69-4.52-2.95-7-1.26-2.48-3.72-6.07-5.46-8l-3.17-3.5zm-152.86-1.25c0.02 0.41 2.12 6.71 4.68 14 2.56 7.29 5.04 13.7 5.52 14.25 0.48 0.55 0.46-0.35-0.05-2-0.5-1.65-2.78-8.18-5.06-14.5-2.29-6.32-4.38-11.73-4.64-12-0.26-0.27-0.47-0.16-0.45 0.25zm105.53 4.61c1.1 0.4 5.6 0.45 10 0.1l8-0.63c-15.5-0.16-19.1 0.13-18 0.53zm70.53 1.39c-0.02 0.41 0.63 1.76 1.44 3 0.8 1.24 2.81 5.85 4.45 10.25 1.64 4.4 3 7.44 3.03 6.75 0.03-0.69-1.29-4.74-2.92-9-1.63-4.26-3.64-8.65-4.47-9.75-0.82-1.1-1.51-1.66-1.53-1.25zm-194.02 0.75c-0.03 0.27 1.11 3.65 2.54 7.5 1.43 3.85 3.03 7.45 3.57 8 0.54 0.55-0.21-2.15-1.66-6-1.45-3.85-3.03-7.68-3.52-8.5-0.48-0.82-0.91-1.27-0.93-1zm-31.94 7.22c-1.28 2.9-3.36 9.33-4.62 14.28-1.26 4.95-2.56 11.48-2.89 14.5-0.32 3.02 0.57 0.1 1.99-6.5 1.42-6.6 3.79-15.35 5.27-19.45 1.48-4.09 2.67-7.59 2.64-7.78-0.03-0.18-1.11 2.05-2.39 4.95zm191.84 13.28c-0.32 4.4-0.89 8.9-1.26 10-0.38 1.1 0.03 0.43 0.9-1.5 1.07-2.37 1.48-5.61 1.27-10l-0.32-6.5zm19.51 0.35c-0.05 6.2-0.58 8.69-2.77 13.15-1.48 3.02-2.46 5.61-2.18 5.75 0.29 0.14 1.7-2.34 3.14-5.5 1.78-3.91 2.75-8.03 3.04-12.86 0.23-3.91 0.06-7.35-0.37-7.64-0.43-0.3-0.82 2.9-0.86 7.1zm-32.43 20.48c-4.03 1.93-6.41 2.19-22.75 2.41-16.35 0.23-18.31 0.44-18.84 2.01-0.32 0.96-1.93 5.35-3.57 9.75-1.64 4.4-2.61 7.63-2.16 7.18 0.45-0.44 2.19-4.49 3.85-9l3.03-8.18c35.09-0.97 37.37-1.25 41.19-3.26 2.34-1.23 4.25-2.47 4.25-2.74 0-0.27-0.11-0.46-0.25-0.42-0.14 0.05-2.27 1.06-4.75 2.25zm-131.04 1.67c0 0.27 2.73 7.92 6.06 17 3.33 9.08 6.27 16.73 6.54 17 0.28 0.27 0.49 0.16 0.47-0.25-0.02-0.41-2.75-8.06-6.07-17-3.32-8.94-6.26-16.48-6.53-16.75-0.26-0.27-0.48-0.27-0.47 0zm20.01 1.25c0.02 0.41 2.75 8.51 6.07 18 3.32 9.49 6.26 17.48 6.53 17.75 0.27 0.27 0.48 0.16 0.46-0.25-0.02-0.41-2.76-8.51-6.09-18-3.34-9.49-6.27-17.48-6.53-17.75-0.25-0.27-0.45-0.16-0.44 0.25zm-76.63 12.75c0 4.12 0.18 5.92 0.39 4 0.22-1.92 0.22-5.3 0-7.5-0.21-2.2-0.39-0.63-0.39 3.5zm104.87 7.51c-1.21 3.02-1.98 5.72-1.71 5.99 0.28 0.27 1.3-2.03 2.28-5.13 0.98-3.1 1.75-5.79 1.71-5.99-0.04-0.2-1.06 2.11-2.28 5.13zm70.29-2.58c5.5 0.44 11.58 1.08 13.5 1.44 3.16 0.58 3.26 0.53 1-0.46-1.37-0.61-7.45-1.26-13.5-1.44l-11-0.33zm17.9 3.07c0.33 0.55 1.16 0.98 1.85 0.96 0.69-0.03 3.16 2 5.5 4.5 2.34 2.5 4.24 5.1 4.22 5.79-0.01 0.69 0.33 0.92 0.75 0.52 0.43-0.39-0.09-1.97-1.15-3.5-1.06-1.52-2.41-3.23-3-3.79-0.59-0.56-2.42-2.04-4.07-3.29-1.65-1.24-3.38-2.24-3.85-2.22-0.47 0.01-0.58 0.48-0.25 1.03zm-74.17 15.27c-1.23 3.43-2.12 6.34-1.98 6.48 0.14 0.14 1.17-2.46 2.3-5.78 1.12-3.32 2.01-6.23 1.97-6.48-0.03-0.24-1.06 2.36-2.29 5.78zm378.76-2.52c-2.21 2.19-4.08 5.2-4.51 7.25-0.53 2.54-0.22 4.59 1.15 7.5 1.2 2.56 3.13 4.63 5.37 5.75 2.21 1.1 5.81 1.75 9.75 1.75 3.44 0 6.48-0.45 6.75-1 0.32-0.63-0.88-0.77-3.25-0.38-2.06 0.35-5.77 0.36-8.25 0.02-2.78-0.37-5.55-1.56-7.25-3.12-1.51-1.39-3.03-3.98-3.37-5.77-0.43-2.2-0.02-4.54 1.25-7.24 1.03-2.19 3.45-5.01 5.37-6.28 1.93-1.26 2.89-2.27 2.13-2.26-0.75 0.02-3.06 1.72-5.14 3.78zm-494 8c-0.01 0.41 1.04 3.9 2.34 7.75 1.29 3.85 2.89 7.9 3.57 9 0.67 1.1 0.99 1.32 0.72 0.5-0.27-0.83-1.64-5.21-3.03-9.75-1.4-4.54-2.77-8.25-3.06-8.25-0.29 0-0.53 0.34-0.54 0.75zm236.88 11.97c-1.42 3.73-2.89 7.68-3.28 8.78-0.4 1.1 0.06 0.65 1-1 0.94-1.65 2.45-5.44 3.36-8.41 0.9-2.98 1.61-5.58 1.57-5.78-0.04-0.2-1.23 2.69-2.65 6.41zm-18.84 5.03c-1.1 2.61-3.59 6.32-5.54 8.25-1.94 1.92-3.53 3.95-3.54 4.5-0.01 0.55 0.93 0.1 2.08-1 1.16-1.1 3.18-3.58 4.49-5.5 1.31-1.93 3.04-5.19 3.84-7.25 0.8-2.06 1.28-3.75 1.07-3.75-0.21 0-1.29 2.14-2.4 4.75zm-67.53 7c6.6 0.17 16.95 0.17 23 0 6.05-0.18 0.65-0.32-12-0.32-12.65 0-17.6 0.14-11 0.32zm-72.5 1c0 0.41 1.32 4.12 2.94 8.25 1.62 4.12 2.97 7.16 3 6.75 0.04-0.41-1.05-4.13-2.41-8.25-1.36-4.13-2.71-7.5-3-7.5-0.29 0-0.53 0.34-0.53 0.75zm25.64 1c-0.25 0.41-1.65 3.9-3.1 7.75-1.45 3.85-2.19 6.55-1.65 6 0.54-0.55 2.05-4.04 3.35-7.75 1.3-3.71 2.25-6.75 2.11-6.75-0.14 0-0.46 0.34-0.71 0.75zm100.11 6.81c-2.06 1.34-5.89 3.32-8.5 4.39-2.61 1.07-4.19 1.97-3.5 2 0.69 0.03 4.06-1.22 7.5-2.78 3.44-1.56 6.85-3.58 7.57-4.5 0.73-0.92 1.18-1.64 1-1.61-0.17 0.03-2.01 1.16-4.07 2.5zm-186.3 6.19c1.02 1.51 4 5.45 6.62 8.75 2.62 3.3 6.92 8.02 9.55 10.5 2.63 2.47 4.13 3.64 3.33 2.59-0.8-1.05-3.61-4.2-6.25-7-2.63-2.8-6.69-7.9-9-11.34-2.31-3.44-4.63-6.25-5.15-6.25-0.53 0-0.12 1.24 0.9 2.75zm197.16 11.5c-3.53 4.44-4.16 5.5-1.63 2.75 2.27-2.48 5-5.74 6.07-7.25 1.06-1.51 1.8-2.75 1.63-2.75-0.17 0-2.91 3.26-6.07 7.25zm-23.61 20.6c-4.67 3.22-11.76 7.5-15.75 9.51-3.99 2-10.51 4.75-14.5 6.11-3.99 1.37-6.46 2.49-5.5 2.5 0.96 0.02 4.56-1.03 8-2.33 3.44-1.3 9.18-3.83 12.75-5.62 3.58-1.8 10.28-5.8 14.89-8.89 4.61-3.1 8.53-5.97 8.71-6.38 0.18-0.41 0.23-0.76 0.12-0.76-0.12-0.01-4.04 2.63-8.72 5.86zm-139.5 1.91c0.55 0.56 3.59 2.42 6.75 4.13 3.16 1.71 5.81 2.93 5.87 2.71 0.07-0.23-2.52-1.91-5.75-3.75-3.23-1.84-6.32-3.52-6.87-3.72q-1-0.38 0 0.63zm94.83 17.63c-2.84 0.61-5.54 1.49-6 1.95-0.45 0.46 0.97 0.51 3.17 0.12 2.2-0.4 5.35-1.3 7-2.01 1.65-0.71 2.55-1.26 2-1.23-0.55 0.03-3.32 0.56-6.17 1.17zm-23.33 2.63l-10.5 0.62c18.6 0.17 24.68-0.19 25.5-0.7 1.1-0.66 0.69-0.86-1.5-0.73-1.65 0.1-7.72 0.46-13.5 0.81z"/>
		<path id="Path 9" class="s3" d="m258.5 596.72c1.65 0.22 4.8 0.22 7 0.01 2.2-0.22 0.85-0.4-3-0.4-3.85-0.01-5.65 0.17-4 0.39z"/>
		<path id="Path 10" class="s0" d="m264.04 531.91c-5.4 0.58-5.47 0.63-7.07 5.09-0.89 2.48-4.66 12.6-8.38 22.5-3.72 9.9-8.56 22.73-10.76 28.5-2.19 5.78-5.55 14.78-7.47 20-1.91 5.23-4.31 11.75-5.32 14.5-1.01 2.75-3.24 8.71-4.94 13.25-1.71 4.54-2.93 8.59-2.72 9 0.22 0.41 3.03 1.12 6.25 1.57 3.23 0.46 6.88 1.02 8.12 1.25q2.25 0.44 2.84-1.32c0.33-0.96 1.5-4.22 2.59-7.25 1.1-3.02 3.48-9.33 5.29-14 1.81-4.67 4.29-11.2 5.51-14.5 1.22-3.3 2.56-6.9 2.98-8 0.42-1.1 2.01-5.83 3.52-10.5 1.52-4.67 3.33-9.85 4.03-11.5 0.71-1.65 2.85-7.05 4.78-12 1.92-4.95 4.93-13.05 6.68-18 1.75-4.95 3.87-10.8 4.72-13 0.84-2.2 1.71-4.56 1.92-5.25 0.27-0.87-0.76-1.2-3.36-1.09-2.06 0.09-6.21 0.43-9.21 0.75z"/>
		<path id="Path 10 copy" class="s0" d="m266.04 532.91c-5.4 0.58-5.47 0.63-7.07 5.09-0.89 2.48-4.66 12.6-8.38 22.5-3.72 9.9-8.56 22.73-10.76 28.5-2.19 5.78-5.55 14.78-7.47 20-1.91 5.23-4.31 11.75-5.32 14.5-1.01 2.75-3.24 8.71-4.94 13.25-1.71 4.54-2.93 8.59-2.72 9 0.22 0.41 3.03 1.12 6.25 1.57 3.23 0.46 6.88 1.02 8.12 1.25q2.25 0.44 2.84-1.32c0.33-0.96 1.5-4.22 2.59-7.25 1.1-3.02 3.48-9.33 5.29-14 1.81-4.67 4.29-11.2 5.51-14.5 1.22-3.3 2.56-6.9 2.98-8 0.42-1.1 2.01-5.83 3.52-10.5 1.52-4.67 3.33-9.85 4.03-11.5 0.71-1.65 2.85-7.05 4.78-12 1.92-4.95 4.93-13.05 6.68-18 1.75-4.95 3.87-10.8 4.72-13 0.84-2.2 1.71-4.56 1.92-5.25 0.27-0.87-0.76-1.2-3.36-1.09-2.06 0.09-6.21 0.43-9.21 0.75z"/>
		<path id="Path 10 copy 2" class="s0" d="m263.04 532.91c-5.4 0.58-5.47 0.63-7.07 5.09-0.89 2.48-4.66 12.6-8.38 22.5-3.72 9.9-8.56 22.73-10.76 28.5-2.19 5.78-5.55 14.78-7.47 20-1.91 5.23-4.31 11.75-5.32 14.5-1.01 2.75-3.24 8.71-4.94 13.25-1.71 4.54-2.93 8.59-2.72 9 0.22 0.41 3.03 1.12 6.25 1.57 3.23 0.46 6.88 1.02 8.12 1.25q2.25 0.44 2.84-1.32c0.33-0.96 1.5-4.22 2.59-7.25 1.1-3.02 3.48-9.33 5.29-14 1.81-4.67 4.29-11.2 5.51-14.5 1.22-3.3 2.56-6.9 2.98-8 0.42-1.1 2.01-5.83 3.52-10.5 1.52-4.67 3.33-9.85 4.03-11.5 0.71-1.65 2.85-7.05 4.78-12 1.92-4.95 4.93-13.05 6.68-18 1.75-4.95 3.87-10.8 4.72-13 0.84-2.2 1.71-4.56 1.92-5.25 0.27-0.87-0.76-1.2-3.36-1.09-2.06 0.09-6.21 0.43-9.21 0.75z"/>
		<path id="Path 10 copy 3" class="s0" d="m263.04 533.91c-5.4 0.58-5.47 0.63-7.07 5.09-0.89 2.48-4.66 12.6-8.38 22.5-3.72 9.9-8.56 22.73-10.76 28.5-2.19 5.78-5.55 14.78-7.47 20-1.91 5.23-4.31 11.75-5.32 14.5-1.01 2.75-3.24 8.71-4.94 13.25-1.71 4.54-2.93 8.59-2.72 9 0.22 0.41 3.03 1.12 6.25 1.57 3.23 0.46 6.88 1.02 8.12 1.25q2.25 0.44 2.84-1.32c0.33-0.96 1.5-4.22 2.59-7.25 1.1-3.02 3.48-9.33 5.29-14 1.81-4.67 4.29-11.2 5.51-14.5 1.22-3.3 2.56-6.9 2.98-8 0.42-1.1 2.01-5.83 3.52-10.5 1.52-4.67 3.33-9.85 4.03-11.5 0.71-1.65 2.85-7.05 4.78-12 1.92-4.95 4.93-13.05 6.68-18 1.75-4.95 3.87-10.8 4.72-13 0.84-2.2 1.71-4.56 1.92-5.25 0.27-0.87-0.76-1.2-3.36-1.09-2.06 0.09-6.21 0.43-9.21 0.75z"/>
		<path id="Path 11" class="s4" d="m153.81 451.7c0.1 0.16 0.79 1.76 1.53 3.55 0.73 1.79 2.13 5.5 3.11 8.25 0.98 2.75 6.04 16.48 11.25 30.5 5.2 14.02 11.94 32.25 14.97 40.5 3.03 8.25 5.8 15.45 6.15 16 0.36 0.55 0.66 1.29 0.66 1.64 0.01 0.35 3.84 11.05 8.52 23.77l8.5 23.14 11.75-0.55c4.61-12.4 7.19-19.37 8.71-23.5 1.52-4.12 6.24-16.95 10.49-28.5 4.25-11.55 8.11-21.9 8.59-23 0.48-1.1 1.6-3.8 2.5-6 0.89-2.2 3.56-9.4 5.93-16 2.37-6.6 5.52-15.15 7-19 1.49-3.85 3.45-8.67 4.37-10.7 1.48-3.31 2.14-3.76 6.16-4.23 2.48-0.3 10.57-0.41 18-0.26 11.32 0.24 14.15 0.62 17.5 2.35 2.2 1.14 5.15 3.37 6.54 4.95 1.4 1.59 3.15 4.69 3.88 6.89 0.78 2.34 1.18 6.73 0.96 10.57-0.3 5.15-1.03 7.62-3.38 11.4-2.09 3.35-4.67 5.76-8.5 7.92-5.48 3.1-5.56 3.11-23.97 3.61l-18.47 0.5c-4.88 13.17-6.24 17.05-6.18 17.12 0.07 0.06 5.97-0.31 13.12-0.83 7.15-0.53 17.5-0.72 23-0.45 5.5 0.28 12.02 1.21 14.5 2.06 2.48 0.85 6.41 3.36 8.75 5.57 3.03 2.88 4.69 5.53 5.77 9.28 0.98 3.38 1.29 6.85 0.87 9.75-0.36 2.48-1.45 6.08-2.43 8-0.98 1.92-3.29 4.88-5.12 6.57-1.84 1.69-4.47 3.76-5.84 4.61-1.38 0.85-4.07 1.88-6 2.3-1.93 0.41-13.26 0.81-25.2 0.88-18.35 0.12-21.76 0.37-22.13 1.64-0.23 0.83-1.54 4.42-2.9 8l-2.49 6.5c42.02 0.41 50.55 0.16 50.22-0.5-0.27-0.55 0.06-0.76 0.75-0.46 0.69 0.29 3.5 0.03 6.25-0.58 2.75-0.61 7.25-2.16 10-3.45 2.75-1.3 7.41-4.53 10.35-7.18 2.94-2.66 6.45-6.85 7.8-9.33 1.36-2.48 3.17-6.98 4.04-10 1.03-3.61 1.4-7.73 1.09-12-0.28-3.64-1.48-8.7-2.75-11.5-1.24-2.75-3.9-6.98-5.9-9.41-1.99-2.43-5.65-5.76-8.13-7.41-2.48-1.65-4.73-3.17-5-3.37-0.27-0.2 2.06-2.94 5.19-6.09 3.13-3.14 6.94-8.2 8.48-11.22 2.46-4.83 2.8-6.6 2.78-14.5-0.02-7.88-0.39-9.81-3.03-15.5-1.66-3.57-4.91-8.41-7.22-10.75-2.31-2.34-6.79-5.55-9.95-7.15-3.16-1.59-8.45-3.4-11.75-4.02-3.33-0.62-15.89-1.11-28.25-1.1-21.96 0.02-22.27 0.05-23.71 2.27-0.81 1.24-1.78 3.82-2.16 5.75-0.38 1.93-1.97 6.31-3.53 9.75-1.57 3.44-2.85 6.59-2.85 7 0 0.41-2.07 6.15-4.6 12.75-2.52 6.6-4.7 12.45-4.84 13-0.14 0.55-0.54 1.68-0.88 2.5-0.35 0.82-2.82 7.35-5.51 14.5-2.68 7.15-7.53 20.1-10.77 28.78-3.25 8.67-6.35 15.76-6.9 15.74-0.55-0.02-1.97-3.07-3.15-6.78-1.19-3.71-5.33-15.74-9.2-26.74-3.88-11-9.59-27.2-12.7-36-3.11-8.8-7.63-21.96-10.05-29.25l-4.4-13.25c-15.8 0.3-20.3 0.53-20.19 0.7z"/>
		<path id="Path 11 copy" class="s4" d="m155.81 450.7c0.1 0.16 0.79 1.76 1.53 3.55 0.73 1.79 2.13 5.5 3.11 8.25 0.98 2.75 6.04 16.48 11.25 30.5 5.2 14.02 11.94 32.25 14.97 40.5 3.03 8.25 5.8 15.45 6.15 16 0.36 0.55 0.66 1.29 0.66 1.64 0.01 0.35 3.84 11.05 8.52 23.77l8.5 23.14 11.75-0.55c4.61-12.4 7.19-19.37 8.71-23.5 1.52-4.12 6.24-16.95 10.49-28.5 4.25-11.55 8.11-21.9 8.59-23 0.48-1.1 1.6-3.8 2.5-6 0.89-2.2 3.56-9.4 5.93-16 2.37-6.6 5.52-15.15 7-19 1.49-3.85 3.45-8.67 4.37-10.7 1.48-3.31 2.14-3.76 6.16-4.23 2.48-0.3 10.57-0.41 18-0.26 11.32 0.24 14.15 0.62 17.5 2.35 2.2 1.14 5.15 3.37 6.54 4.95 1.4 1.59 3.15 4.69 3.88 6.89 0.78 2.34 1.18 6.73 0.96 10.57-0.3 5.15-1.03 7.62-3.38 11.4-2.09 3.35-4.67 5.76-8.5 7.92-5.48 3.1-5.56 3.11-23.97 3.61l-18.47 0.5c-4.88 13.17-6.24 17.05-6.18 17.12 0.07 0.06 5.97-0.31 13.12-0.83 7.15-0.53 17.5-0.72 23-0.45 5.5 0.28 12.02 1.21 14.5 2.06 2.48 0.85 6.41 3.36 8.75 5.57 3.03 2.88 4.69 5.53 5.77 9.28 0.98 3.38 1.29 6.85 0.87 9.75-0.36 2.48-1.45 6.08-2.43 8-0.98 1.92-3.29 4.88-5.12 6.57-1.84 1.69-4.47 3.76-5.84 4.61-1.38 0.85-4.07 1.88-6 2.3-1.93 0.41-13.26 0.81-25.2 0.88-18.35 0.12-21.76 0.37-22.13 1.64-0.23 0.83-1.54 4.42-2.9 8l-2.49 6.5c42.02 0.41 50.55 0.16 50.22-0.5-0.27-0.55 0.06-0.76 0.75-0.46 0.69 0.29 3.5 0.03 6.25-0.58 2.75-0.61 7.25-2.16 10-3.45 2.75-1.3 7.41-4.53 10.35-7.18 2.94-2.66 6.45-6.85 7.8-9.33 1.36-2.48 3.17-6.98 4.04-10 1.03-3.61 1.4-7.73 1.09-12-0.28-3.64-1.48-8.7-2.75-11.5-1.24-2.75-3.9-6.98-5.9-9.41-1.99-2.43-5.65-5.76-8.13-7.41-2.48-1.65-4.73-3.17-5-3.37-0.27-0.2 2.06-2.94 5.19-6.09 3.13-3.14 6.94-8.2 8.48-11.22 2.46-4.83 2.8-6.6 2.78-14.5-0.02-7.88-0.39-9.81-3.03-15.5-1.66-3.57-4.91-8.41-7.22-10.75-2.31-2.34-6.79-5.55-9.95-7.15-3.16-1.59-8.45-3.4-11.75-4.02-3.33-0.62-15.89-1.11-28.25-1.1-21.96 0.02-22.27 0.05-23.71 2.27-0.81 1.24-1.78 3.82-2.16 5.75-0.38 1.93-1.97 6.31-3.53 9.75-1.57 3.44-2.85 6.59-2.85 7 0 0.41-2.07 6.15-4.6 12.75-2.52 6.6-4.7 12.45-4.84 13-0.14 0.55-0.54 1.68-0.88 2.5-0.35 0.82-2.82 7.35-5.51 14.5-2.68 7.15-7.53 20.1-10.77 28.78-3.25 8.67-6.35 15.76-6.9 15.74-0.55-0.02-1.97-3.07-3.15-6.78-1.19-3.71-5.33-15.74-9.2-26.74-3.88-11-9.59-27.2-12.7-36-3.11-8.8-7.63-21.96-10.05-29.25l-4.4-13.25c-15.8 0.3-20.3 0.53-20.19 0.7z"/>
	</g>
</svg>