<?xml version="1.0" encoding="UTF-8" standalone="no"?>
<svg xmlns="http://www.w3.org/2000/svg" version="1.2" baseProfile="tiny" viewBox="0.00 0.00 956.00 200.00">
<path fill="#0c1b2c" d="
  M 83.99 165.61
  A 0.99 0.98 16.8 0 1 84.51 166.57
  Q 84.04 171.68 80.81 175.62
  Q 80.46 176.05 79.91 176.01
  C 77.00 175.81 75.71 173.95 73.97 172.93
  C 21.38 142.01 9.08 74.94 54.85 31.36
  C 68.18 18.66 84.82 9.93 99.76 5.51
  Q 106.16 3.61 120.00 1.98
  Q 136.52 0.04 151.05 3.17
  A 0.71 0.71 0.0 0 1 151.58 4.06
  Q 150.30 8.45 147.32 11.92
  A 1.16 1.15 -66.4 0 1 146.31 12.32
  C 129.86 10.63 111.98 11.50 96.51 17.29
  C 68.93 27.62 43.54 52.35 39.49 82.93
  C 34.79 118.33 53.19 149.09 83.99 165.61
  Z"
/>
<path fill="#fec200" d="
  M 166.33 18.16
  C 157.34 38.80 149.13 60.03 140.32 80.94
  Q 125.68 115.72 111.62 150.74
  C 106.66 163.09 101.99 175.82 96.25 187.82
  Q 96.05 188.24 95.58 188.34
  Q 90.58 189.40 85.46 188.52
  A 0.91 0.91 0.0 0 1 84.77 187.26
  C 104.80 140.07 123.91 92.54 143.62 45.23
  C 148.94 32.47 155.05 19.31 159.16 6.39
  A 2.07 2.07 0.0 0 1 161.75 5.04
  C 182.84 11.69 201.29 21.64 215.89 39.32
  Q 235.83 63.47 237.08 94.89
  Q 237.10 95.62 236.37 95.62
  L 226.39 95.64
  Q 225.65 95.64 225.54 94.91
  Q 224.83 90.21 225.01 85.50
  C 225.15 81.87 224.20 79.22 223.29 75.83
  C 215.70 47.58 194.93 28.56 168.49 17.29
  A 1.65 1.65 0.0 0 0 166.33 18.16
  Z"
/>
<path fill="#fec200" d="
  M 879.13 94.06
  C 879.42 106.53 887.62 111.57 899.20 111.84
  C 902.31 111.91 905.98 110.61 909.48 110.47
  Q 910.08 110.44 910.34 110.99
  Q 911.30 112.97 910.36 115.08
  A 1.35 1.35 0.0 0 1 909.54 115.83
  C 896.59 120.19 876.18 116.22 872.74 100.46
  C 869.13 83.99 879.02 70.07 896.00 69.30
  Q 904.19 68.92 908.42 69.62
  A 0.91 0.90 -88.0 0 1 909.18 70.44
  L 909.62 75.25
  Q 909.68 75.93 909.02 76.07
  C 904.74 77.00 902.37 74.15 898.49 74.46
  C 887.12 75.35 878.86 82.10 879.13 94.06
  Z"
/>
<path fill="#091732" d="
  M 318.07 81.78
  C 326.05 68.64 340.84 67.97 354.35 69.90
  A 1.60 1.59 -83.8 0 1 355.71 71.60
  L 355.42 75.12
  A 1.38 1.38 0.0 0 1 353.63 76.32
  Q 340.95 72.35 329.67 78.45
  C 320.60 83.35 320.00 97.36 325.39 105.13
  C 329.57 111.17 340.81 112.69 347.73 111.55
  C 352.51 110.76 350.96 101.00 350.25 97.85
  A 0.93 0.92 82.7 0 0 349.33 97.13
  L 339.27 97.34
  A 0.72 0.72 0.0 0 1 338.53 96.71
  Q 338.25 94.55 339.35 92.76
  A 1.26 1.25 15.9 0 1 340.44 92.16
  L 355.75 92.28
  Q 356.26 92.28 356.35 92.79
  Q 356.93 96.16 356.91 99.47
  C 356.87 104.69 357.26 109.58 356.62 114.56
  Q 356.55 115.08 356.05 115.24
  C 344.92 118.75 327.28 118.55 319.45 108.42
  C 313.81 101.12 313.16 89.88 318.07 81.78
  Z"
/>
<path fill="#091732" d="
  M 469.1836 92.6024
  A 25.02 24.38 -1.3 0 1 444.7231 117.5437
  A 25.02 24.38 -1.3 0 1 419.1564 93.7376
  A 25.02 24.38 -1.3 0 1 443.6169 68.7963
  A 25.02 24.38 -1.3 0 1 469.1836 92.6024
  Z
  M 461.5294 90.8725
  A 15.87 15.87 0.0 0 0 445.8544 74.8098
  L 442.8347 74.7729
  A 15.87 15.87 0.0 0 0 426.7720 90.4479
  L 426.7106 95.4675
  A 15.87 15.87 0.0 0 0 442.3856 111.5302
  L 445.4053 111.5671
  A 15.87 15.87 0.0 0 0 461.4680 95.8921
  L 461.5294 90.8725
  Z"
/>
<path fill="#fec200" d="
  M 823.70 80.65
  Q 821.68 79.80 821.93 81.98
  C 823.24 93.15 822.91 104.10 823.27 115.31
  A 0.89 0.89 0.0 0 1 822.43 116.23
  L 816.34 116.57
  Q 815.79 116.60 815.79 116.04
  Q 815.67 83.10 815.76 74.51
  Q 815.77 73.76 816.26 71.13
  Q 816.35 70.64 816.75 70.35
  C 820.16 67.89 822.77 70.71 825.07 73.41
  Q 837.77 88.29 848.91 104.37
  Q 849.58 105.34 850.49 105.90
  A 0.71 0.71 0.0 0 0 851.57 105.29
  L 851.19 71.48
  A 1.31 1.31 0.0 0 1 852.52 70.15
  L 858.17 70.22
  Q 858.77 70.23 858.76 70.84
  Q 858.36 89.42 858.52 107.99
  C 858.54 109.56 859.15 112.45 858.70 114.73
  A 1.04 1.02 83.3 0 1 858.13 115.47
  C 850.36 119.03 845.07 108.53 841.20 103.39
  C 837.16 98.03 830.47 90.07 825.92 82.65
  C 825.51 81.98 824.28 80.89 823.70 80.65
  Z"
/>
<path fill="#091732" d="
  M 371.81 77.75
  C 371.79 76.16 371.85 71.38 372.92 70.24
  A 1.41 1.36 -74.8 0 1 373.59 69.84
  Q 374.26 69.65 374.92 69.77
  Q 376.28 70.02 376.62 70.01
  C 385.86 69.79 397.21 67.83 403.83 75.42
  C 410.63 83.21 405.07 94.12 395.31 95.36
  Q 391.50 95.84 394.32 98.45
  Q 401.32 104.91 408.16 114.06
  Q 409.33 115.61 409.83 116.66
  Q 410.25 117.52 409.30 117.42
  C 405.13 117.02 401.46 116.03 398.65 112.58
  Q 392.79 105.37 386.77 98.32
  C 384.89 96.11 382.49 95.72 379.89 96.40
  Q 378.71 96.70 378.72 97.92
  L 378.91 115.10
  A 1.03 1.03 0.0 0 1 377.90 116.14
  L 372.87 116.26
  A 1.31 1.31 0.0 0 1 371.53 114.90
  Q 372.13 96.23 371.81 77.75
  Z
  M 378.69 77.81
  L 378.67 88.97
  A 2.31 2.31 0.0 0 0 380.98 91.29
  L 388.18 91.30
  A 12.19 7.81 0.1 0 0 400.38 83.51
  L 400.38 83.35
  A 12.19 7.81 0.1 0 0 388.20 75.52
  L 381.00 75.51
  A 2.31 2.31 0.0 0 0 378.69 77.81
  Z"
/>
<path fill="#091732" d="
  M 481.49 102.41
  C 481.19 93.48 480.77 82.22 481.57 70.43
  Q 481.62 69.64 482.41 69.69
  L 487.98 70.05
  Q 488.47 70.09 488.47 70.58
  Q 488.56 86.06 488.48 101.50
  C 488.45 106.34 492.47 109.85 496.97 111.14
  Q 503.92 113.14 511.02 109.25
  C 515.75 106.67 515.77 103.27 515.72 98.33
  Q 515.60 84.54 515.49 70.97
  A 0.97 0.97 0.0 0 1 516.51 69.99
  L 522.16 70.29
  Q 522.75 70.32 522.76 70.91
  Q 522.78 85.15 522.64 99.27
  C 522.38 124.47 482.14 121.43 481.49 102.41
  Z"
/>
<path fill="#091732" d="
  M 537.27 71.68
  Q 537.26 70.60 538.32 70.46
  C 545.36 69.52 558.44 68.41 564.93 71.92
  C 571.99 75.73 576.46 82.76 570.45 90.15
  C 564.75 97.14 554.18 97.78 545.76 97.14
  A 1.22 1.21 6.1 0 0 544.47 98.18
  C 543.63 104.10 544.53 110.25 543.92 115.80
  A 0.85 0.85 0.0 0 1 542.96 116.55
  L 537.60 115.86
  Q 536.96 115.77 536.98 115.13
  Q 537.48 93.40 537.27 71.68
  Z
  M 544.13 77.11
  L 544.15 90.19
  A 1.67 1.67 0.0 0 0 545.82 91.86
  L 552.17 91.84
  A 13.58 7.30 -0.1 0 0 565.74 84.52
  L 565.74 82.70
  A 13.58 7.30 -0.1 0 0 552.15 75.42
  L 545.80 75.44
  A 1.67 1.67 0.0 0 0 544.13 77.11
  Z"
/>
<path fill="#fec200" d="
  M 778.19 71.69
  Q 780.80 68.22 785.12 70.61
  A 1.28 1.27 4.9 0 1 785.68 71.27
  C 787.74 76.82 790.79 82.05 792.87 87.24
  C 795.55 93.92 798.99 100.10 801.47 106.16
  C 802.39 108.41 804.84 112.42 805.40 116.12
  Q 805.47 116.59 804.99 116.65
  C 796.64 117.67 795.02 109.59 792.91 103.57
  Q 792.73 103.05 792.18 102.92
  Q 790.93 102.63 789.25 102.72
  Q 783.27 103.05 774.33 102.74
  C 768.32 102.53 768.41 110.48 765.95 114.43
  C 764.43 116.85 761.42 116.29 759.15 116.24
  Q 757.06 116.19 758.03 114.33
  Q 766.24 98.76 772.64 82.94
  Q 773.18 81.61 774.35 80.30
  C 776.62 77.75 776.37 74.10 778.19 71.69
  Z
  M 774.30 95.04
  A 1.04 1.04 0.0 0 0 775.23 96.52
  L 788.48 96.68
  A 1.04 1.04 0.0 0 0 789.44 95.22
  L 783.00 80.50
  A 1.04 1.04 0.0 0 0 781.11 80.47
  L 774.30 95.04
  Z"
/>
<path fill="#fec200" d="
  M 922.81 70.95
  Q 922.81 69.78 923.99 69.78
  L 953.70 69.74
  Q 954.40 69.74 954.42 70.44
  L 954.54 74.43
  Q 954.58 76.06 952.95 76.04
  Q 942.94 75.93 933.26 75.48
  C 931.34 75.39 930.38 75.80 930.18 77.87
  Q 929.61 83.55 930.21 89.13
  A 1.00 1.00 0.0 0 0 931.23 90.02
  L 950.61 89.59
  Q 951.94 89.56 951.77 90.87
  L 951.42 93.68
  Q 951.24 95.10 949.81 95.08
  L 931.62 94.76
  Q 929.96 94.73 929.98 96.38
  L 930.12 109.04
  Q 930.14 110.94 932.04 110.92
  L 955.10 110.68
  A 0.60 0.60 0.0 0 1 955.71 111.28
  L 955.77 116.16
  Q 955.77 116.76 955.17 116.75
  Q 936.68 116.32 925.20 116.47
  Q 922.86 116.51 922.84 114.50
  Q 922.69 93.24 922.81 70.95
  Z"
/>
<path fill="#fec200" d="
  M 607.91 103.37
  C 606.07 106.83 603.46 120.13 596.93 116.32
  C 593.19 114.14 598.12 110.06 599.11 107.66
  Q 605.29 92.60 612.63 78.08
  C 613.71 75.95 614.43 73.46 615.53 71.14
  Q 615.77 70.64 616.28 70.45
  Q 618.88 69.47 621.44 70.42
  A 1.37 1.36 87.1 0 1 622.19 71.10
  L 643.36 115.67
  A 0.86 0.85 80.0 0 1 642.51 116.89
  L 637.08 116.39
  A 1.29 1.27 -16.4 0 1 636.19 115.91
  Q 632.93 111.74 631.54 105.99
  C 631.03 103.88 629.64 102.74 627.35 102.73
  C 622.44 102.72 617.60 103.14 612.72 102.73
  Q 610.71 102.57 608.66 102.85
  Q 608.15 102.92 607.91 103.37
  Z
  M 611.62 95.02
  A 1.14 1.14 0.0 0 0 612.66 96.62
  L 625.22 96.62
  A 1.14 1.14 0.0 0 0 626.26 95.02
  L 619.98 80.71
  A 1.14 1.14 0.0 0 0 617.90 80.71
  L 611.62 95.02
  Z"
/>
<path fill="#fec200" d="
  M 654.21 102.92
  Q 654.29 86.82 653.78 70.70
  Q 653.77 70.19 654.27 70.22
  L 659.86 70.58
  A 0.78 0.77 -88.5 0 1 660.59 71.36
  L 660.39 109.02
  Q 660.38 110.76 662.12 110.80
  Q 672.31 111.06 682.38 110.98
  C 685.29 110.96 687.52 112.21 686.38 115.46
  A 1.56 1.56 0.0 0 1 684.91 116.50
  L 655.54 116.48
  A 1.64 1.64 0.0 0 1 653.91 115.01
  C 653.51 111.04 654.19 106.25 654.21 102.92
  Z"
/>
<path fill="#fec200" d="
  M 696.74 114.90
  C 697.33 100.27 698.07 85.32 696.92 70.74
  A 0.50 0.50 0.0 0 1 697.44 70.20
  L 703.10 70.42
  Q 703.77 70.44 704.04 71.05
  Q 704.63 72.32 704.52 74.00
  C 703.78 85.40 704.81 97.72 703.99 109.49
  A 1.02 1.02 0.0 0 0 704.93 110.58
  Q 715.23 111.44 725.75 110.68
  Q 726.35 110.64 728.00 110.89
  Q 728.54 110.97 728.74 111.48
  Q 729.61 113.67 728.96 115.89
  A 0.84 0.83 7.5 0 1 728.17 116.49
  Q 715.29 116.54 702.51 116.46
  Q 699.52 116.44 697.27 115.67
  Q 696.71 115.48 696.74 114.90
  Z"
/>
<rect fill="#fec200" x="740.80" y="70.28" width="6.72" height="45.66" rx="0.26"/>
<path fill="#0c1b2c" d="
  M 199.34 152.33
  Q 215.79 137.30 222.69 115.54
  A 0.69 0.68 -81.6 0 0 222.03 114.65
  L 137.25 114.83
  Q 136.18 114.83 136.47 113.80
  Q 137.70 109.37 139.93 105.65
  C 142.00 102.19 143.54 103.49 146.71 103.49
  Q 191.22 103.51 235.38 103.50
  A 0.91 0.90 3.9 0 1 236.28 104.52
  Q 233.26 125.73 221.46 143.21
  C 207.39 164.05 182.82 180.49 158.07 185.27
  C 152.39 186.37 146.52 187.71 140.89 188.03
  C 130.12 188.64 119.55 188.63 108.78 186.04
  A 1.56 1.55 9.8 0 1 107.59 184.37
  C 107.94 181.00 110.24 176.04 114.50 176.52
  Q 129.81 178.27 145.08 176.93
  C 164.77 175.21 184.76 165.64 199.34 152.33
  Z"
/>
</svg>
