<svg width="20" height="20" viewBox="0 0 20 20" fill="none" xmlns="http://www.w3.org/2000/svg">
<path d="M16.025 12.7167L13.9083 12.475C13.6594 12.4458 13.4072 12.4733 13.1705 12.5556C12.9338 12.6379 12.7188 12.7727 12.5417 12.95L11.0083 14.4833C8.64266 13.2802 6.71982 11.3573 5.51667 8.99167L7.05833 7.45C7.41667 7.09167 7.59167 6.59167 7.53333 6.08333L7.29167 3.98333C7.24442 3.57681 7.04933 3.20186 6.74353 2.92987C6.43773 2.65788 6.04259 2.50785 5.63333 2.50833H4.19167C3.25 2.50833 2.46667 3.29167 2.525 4.23333C2.96667 11.35 8.65833 17.0333 15.7667 17.475C16.7083 17.5333 17.4917 16.75 17.4917 15.8083V14.3667C17.5 13.525 16.8667 12.8167 16.025 12.7167Z" fill="white"/>
</svg>
