<svg width="512" height="512" viewBox="0 0 512 512" fill="none" xmlns="http://www.w3.org/2000/svg">
<g clip-path="url(#clip0_32_53)">
<path d="M68.81 0C30.85 1.24 1.74 29.71 0 67.69" stroke="#1B8ADB" stroke-width="2"/>
<path d="M443.56 0C481.75 2.2 510.08 29.23 512 67.56" stroke="#1B8ADB" stroke-width="2"/>
<path d="M512 444.06C510.54 482.34 481.38 510.31 443.19 512" stroke="#1B8ADB" stroke-width="2"/>
<path d="M67.93 512C29.89 509.74 1.09 481.68 0 443.43" stroke="#1B8ADB" stroke-width="2"/>
<path d="M178.15 277.3C187.117 303.32 196.003 329.367 204.81 355.44C207.44 363.21 213.74 368.76 222.15 365.72C224.463 364.88 227.55 362.63 231.41 358.97C242.643 348.297 253.84 337.717 265 327.23C265.373 326.877 265.773 326.843 266.2 327.13C290.407 343.59 314.65 360.02 338.93 376.42C342.19 378.62 344.94 379.943 347.18 380.39C354.87 381.93 363.87 377.15 365.64 369.33C382.167 296.45 398.663 223.56 415.13 150.66C416.6 144.17 415.81 138.31 410.42 134.52C402.45 128.93 396.34 132.08 386.12 135.76C292.233 169.587 198.35 203.417 104.47 237.25C102.003 238.137 100.283 238.983 99.31 239.79C95.1 243.28 95.12 250.71 99.09 254.05C100.383 255.143 103.013 256.233 106.98 257.32C130.487 263.74 153.987 270.19 177.48 276.67C177.813 276.757 178.037 276.967 178.15 277.3Z" stroke="#8DC5ED" stroke-width="2"/>
<path d="M215.09 340.15C215.123 340.003 215.15 339.847 215.17 339.68C216.883 325.707 218.567 311.727 220.22 297.74C220.487 295.46 221.803 293.35 224.17 291.41C269.017 254.763 313.837 218.08 358.63 181.36C362.12 178.49 358.08 174.22 354.14 176.47C301.033 206.823 247.963 237.237 194.93 267.71C191.95 269.41 189.71 272.29 190.82 275.6C198.107 297.28 205.313 318.827 212.44 340.24C212.533 340.524 212.715 340.771 212.961 340.943C213.206 341.114 213.5 341.201 213.799 341.191C214.098 341.181 214.385 341.074 214.618 340.886C214.851 340.698 215.017 340.44 215.09 340.15Z" stroke="#8DC5ED" stroke-width="2"/>
<path d="M68.81 0H443.56C481.75 2.2 510.08 29.23 512 67.56V444.06C510.54 482.34 481.38 510.31 443.19 512H67.93C29.89 509.74 1.09 481.68 0 443.43V67.69C1.74 29.71 30.85 1.24 68.81 0ZM178.15 277.3C187.117 303.32 196.003 329.367 204.81 355.44C207.44 363.21 213.74 368.76 222.15 365.72C224.463 364.88 227.55 362.63 231.41 358.97C242.643 348.297 253.84 337.717 265 327.23C265.373 326.877 265.773 326.843 266.2 327.13C290.407 343.59 314.65 360.02 338.93 376.42C342.19 378.62 344.94 379.943 347.18 380.39C354.87 381.93 363.87 377.15 365.64 369.33C382.167 296.45 398.663 223.56 415.13 150.66C416.6 144.17 415.81 138.31 410.42 134.52C402.45 128.93 396.34 132.08 386.12 135.76C292.233 169.587 198.35 203.417 104.47 237.25C102.003 238.137 100.283 238.983 99.31 239.79C95.1 243.28 95.12 250.71 99.09 254.05C100.383 255.143 103.013 256.233 106.98 257.32C130.487 263.74 153.987 270.19 177.48 276.67C177.813 276.757 178.037 276.967 178.15 277.3Z" fill="#1B8ADB"/>
<path d="M177.48 276.67C153.987 270.19 130.487 263.74 106.98 257.32C103.013 256.233 100.383 255.143 99.09 254.05C95.12 250.71 95.1 243.28 99.31 239.79C100.283 238.983 102.003 238.137 104.47 237.25C198.35 203.417 292.233 169.587 386.12 135.76C396.34 132.08 402.45 128.93 410.42 134.52C415.81 138.31 416.6 144.17 415.13 150.66C398.663 223.56 382.167 296.45 365.64 369.33C363.87 377.15 354.87 381.93 347.18 380.39C344.94 379.943 342.19 378.62 338.93 376.42C314.65 360.02 290.407 343.59 266.2 327.13C265.773 326.843 265.373 326.877 265 327.23C253.84 337.717 242.643 348.297 231.41 358.97C227.55 362.63 224.463 364.88 222.15 365.72C213.74 368.76 207.44 363.21 204.81 355.44C196.003 329.367 187.117 303.32 178.15 277.3C178.037 276.967 177.813 276.757 177.48 276.67ZM215.09 340.15C215.123 340.003 215.15 339.847 215.17 339.68C216.883 325.707 218.567 311.727 220.22 297.74C220.487 295.46 221.803 293.35 224.17 291.41C269.017 254.763 313.837 218.08 358.63 181.36C362.12 178.49 358.08 174.22 354.14 176.47C301.033 206.823 247.963 237.237 194.93 267.71C191.95 269.41 189.71 272.29 190.82 275.6C198.107 297.28 205.313 318.827 212.44 340.24C212.533 340.524 212.715 340.771 212.961 340.943C213.206 341.114 213.5 341.202 213.799 341.191C214.098 341.181 214.385 341.074 214.618 340.886C214.851 340.699 215.017 340.44 215.09 340.15Z" fill="white"/>
<path d="M215.09 340.15C215.017 340.44 214.851 340.698 214.618 340.886C214.385 341.074 214.098 341.181 213.799 341.191C213.5 341.201 213.206 341.114 212.961 340.943C212.715 340.771 212.533 340.524 212.44 340.24C205.313 318.827 198.107 297.28 190.82 275.6C189.71 272.29 191.95 269.41 194.93 267.71C247.963 237.237 301.033 206.823 354.14 176.47C358.08 174.22 362.12 178.49 358.63 181.36C313.837 218.08 269.017 254.763 224.17 291.41C221.803 293.35 220.487 295.46 220.22 297.74C218.567 311.727 216.883 325.707 215.17 339.68C215.15 339.847 215.123 340.003 215.09 340.15Z" fill="#1B8ADB"/>
</g>
<defs>
<clipPath id="clip0_32_53">
<rect width="512" height="512" fill="white"/>
</clipPath>
</defs>
</svg>
