<svg width="512" height="512" viewBox="0 0 512 512" fill="none" xmlns="http://www.w3.org/2000/svg">
<g clip-path="url(#clip0_32_68)">
<path d="M39.06 0C17.44 1.43 1.62 16.96 0 38.44" stroke="#655CAB" stroke-width="2"/>
<path d="M473.31 0C494.79 1.5 510.8 17.52 512 39.07" stroke="#655CAB" stroke-width="2"/>
<path d="M512 473.31C510.64 494.87 494.24 510.88 472.69 512" stroke="#655CAB" stroke-width="2"/>
<path d="M38.69 512C16.36 509.77 2.1 495.37 0 472.94" stroke="#655CAB" stroke-width="2"/>
<path d="M197.57 388.04C209.97 375.8 222.49 363.49 234.48 351.04C234.724 350.787 235.017 350.585 235.344 350.448C235.67 350.311 236.023 350.24 236.38 350.24C249.953 350.267 263.56 350.267 277.2 350.24C285.887 350.22 292.527 349.857 297.12 349.15C343.87 341.92 376.96 302.51 377.16 255.24C377.24 238.18 378.59 218.79 376.26 202.61C369.62 156.46 330.38 121.3 283.5 121.27C267.753 121.257 252.007 121.247 236.26 121.24C227.52 121.24 220.863 121.567 216.29 122.22C170.35 128.83 134.76 167.83 134.74 214.74C134.74 226.307 134.747 237.873 134.76 249.44C134.773 258.16 135.117 264.81 135.79 269.39C140.41 300.65 159.64 327.01 188.28 340.97C188.421 341.039 188.539 341.145 188.622 341.275C188.705 341.406 188.75 341.557 188.75 341.71C188.75 356.23 188.753 370.747 188.76 385.26C188.76 391.64 193.71 391.85 197.57 388.04Z" stroke="#B2AED5" stroke-width="2"/>
<path d="M259.94 160.69C256.55 169.6 270.53 167.28 274.96 167.85C307.61 172.06 326.67 201.84 320.85 233.72C319.62 240.44 328.22 241.64 329.46 235.48C337.59 195.02 309.59 159.19 268.25 158.35C266.04 158.3 260.96 157.99 259.94 160.69Z" stroke="#B2AED5" stroke-width="2"/>
<path d="M187.82 188.59C177.43 198.92 181.04 215.1 186.19 227.03C198.06 254.57 219.94 278.79 243.92 296.58C257.17 306.41 281.77 321.07 298.39 315.24C305.04 312.91 311.71 304.77 316.99 299.27C325.16 290.77 322.54 283.19 315.3 275.73C311.473 271.797 307.657 267.86 303.85 263.92C296.42 256.24 290.15 250.47 280.39 258.04C278.38 259.6 277.52 262.02 276.3 264.22C269.6 276.33 257.57 272.2 248.38 265.67C238.8 258.85 212.49 231.94 229.83 220.58C232.07 219.11 235.59 218.35 237.84 216.16C245.78 208.42 242.17 200.79 235.51 193.99C231.003 189.377 226.497 184.763 221.99 180.15C207.29 165.09 198.99 177.49 187.82 188.59Z" stroke="#B2AED5" stroke-width="2"/>
<path d="M263.82 176.55C257.44 177 258.29 186.01 264.51 185.46C287.75 183.41 305.44 201.46 304.08 224.69C303.82 229.11 307.46 231.41 311.33 229.21C311.623 229.043 311.843 228.807 311.99 228.5C312.34 227.79 312.83 227.03 312.91 226.23C315.52 197.25 292.78 174.49 263.82 176.55Z" stroke="#B2AED5" stroke-width="2"/>
<path d="M266.52 194.51C261.79 196.01 262.87 202.86 267.7 203.15C278.23 203.79 284.91 209.77 286.24 220.15C286.77 224.3 289.43 226.81 293.52 224.25C293.916 224 294.25 223.664 294.497 223.266C294.745 222.867 294.9 222.418 294.95 221.95C296.46 207.67 284.47 196.76 271.45 194.7C268.983 194.307 267.34 194.243 266.52 194.51Z" stroke="#B2AED5" stroke-width="2"/>
<path d="M39.06 0H473.31C494.79 1.5 510.8 17.52 512 39.07V473.31C510.64 494.87 494.24 510.88 472.69 512H38.69C16.36 509.77 2.1 495.37 0 472.94V38.44C1.62 16.96 17.44 1.43 39.06 0ZM197.57 388.04C209.97 375.8 222.49 363.49 234.48 351.04C234.724 350.787 235.017 350.585 235.344 350.448C235.67 350.311 236.023 350.24 236.38 350.24C249.953 350.267 263.56 350.267 277.2 350.24C285.887 350.22 292.527 349.857 297.12 349.15C343.87 341.92 376.96 302.51 377.16 255.24C377.24 238.18 378.59 218.79 376.26 202.61C369.62 156.46 330.38 121.3 283.5 121.27C267.753 121.257 252.007 121.247 236.26 121.24C227.52 121.24 220.863 121.567 216.29 122.22C170.35 128.83 134.76 167.83 134.74 214.74C134.74 226.307 134.747 237.873 134.76 249.44C134.773 258.16 135.117 264.81 135.79 269.39C140.41 300.65 159.64 327.01 188.28 340.97C188.421 341.039 188.539 341.145 188.622 341.275C188.705 341.406 188.75 341.557 188.75 341.71C188.75 356.23 188.753 370.747 188.76 385.26C188.76 391.64 193.71 391.85 197.57 388.04Z" fill="#655CAB"/>
<path d="M234.48 351.04C222.49 363.49 209.97 375.8 197.57 388.04C193.71 391.85 188.76 391.64 188.76 385.26C188.753 370.747 188.75 356.23 188.75 341.71C188.75 341.557 188.705 341.406 188.622 341.275C188.539 341.145 188.421 341.039 188.28 340.97C159.64 327.01 140.41 300.65 135.79 269.39C135.117 264.81 134.773 258.16 134.76 249.44C134.747 237.873 134.74 226.307 134.74 214.74C134.76 167.83 170.35 128.83 216.29 122.22C220.863 121.567 227.52 121.24 236.26 121.24C252.007 121.247 267.753 121.257 283.5 121.27C330.38 121.3 369.62 156.46 376.26 202.61C378.59 218.79 377.24 238.18 377.16 255.24C376.96 302.51 343.87 341.92 297.12 349.15C292.527 349.857 285.887 350.22 277.2 350.24C263.56 350.267 249.953 350.267 236.38 350.24C236.023 350.24 235.67 350.311 235.344 350.448C235.017 350.585 234.724 350.787 234.48 351.04ZM259.94 160.69C256.55 169.6 270.53 167.28 274.96 167.85C307.61 172.06 326.67 201.84 320.85 233.72C319.62 240.44 328.22 241.64 329.46 235.48C337.59 195.02 309.59 159.19 268.25 158.35C266.04 158.3 260.96 157.99 259.94 160.69ZM187.82 188.59C177.43 198.92 181.04 215.1 186.19 227.03C198.06 254.57 219.94 278.79 243.92 296.58C257.17 306.41 281.77 321.07 298.39 315.24C305.04 312.91 311.71 304.77 316.99 299.27C325.16 290.77 322.54 283.19 315.3 275.73C311.473 271.797 307.657 267.86 303.85 263.92C296.42 256.24 290.15 250.47 280.39 258.04C278.38 259.6 277.52 262.02 276.3 264.22C269.6 276.33 257.57 272.2 248.38 265.67C238.8 258.85 212.49 231.94 229.83 220.58C232.07 219.11 235.59 218.35 237.84 216.16C245.78 208.42 242.17 200.79 235.51 193.99C231.003 189.377 226.497 184.763 221.99 180.15C207.29 165.09 198.99 177.49 187.82 188.59ZM263.82 176.55C257.44 177 258.29 186.01 264.51 185.46C287.75 183.41 305.44 201.46 304.08 224.69C303.82 229.11 307.46 231.41 311.33 229.21C311.623 229.043 311.843 228.807 311.99 228.5C312.34 227.79 312.83 227.03 312.91 226.23C315.52 197.25 292.78 174.49 263.82 176.55ZM266.52 194.51C261.79 196.01 262.87 202.86 267.7 203.15C278.23 203.79 284.91 209.77 286.24 220.15C286.77 224.3 289.43 226.81 293.52 224.25C293.916 224 294.25 223.664 294.497 223.266C294.745 222.867 294.9 222.417 294.95 221.95C296.46 207.67 284.47 196.76 271.45 194.7C268.983 194.307 267.34 194.243 266.52 194.51Z" fill="white"/>
<path d="M259.94 160.69C260.96 157.99 266.04 158.3 268.25 158.35C309.59 159.19 337.59 195.02 329.46 235.48C328.22 241.64 319.62 240.44 320.85 233.72C326.67 201.84 307.61 172.06 274.96 167.85C270.53 167.28 256.55 169.6 259.94 160.69Z" fill="#655CAB"/>
<path d="M187.82 188.59C198.99 177.49 207.29 165.09 221.99 180.15C226.497 184.763 231.003 189.377 235.51 193.99C242.17 200.79 245.78 208.42 237.84 216.16C235.59 218.35 232.07 219.11 229.83 220.58C212.49 231.94 238.8 258.85 248.38 265.67C257.57 272.2 269.6 276.33 276.3 264.22C277.52 262.02 278.38 259.6 280.39 258.04C290.15 250.47 296.42 256.24 303.85 263.92C307.657 267.86 311.473 271.797 315.3 275.73C322.54 283.19 325.16 290.77 316.99 299.27C311.71 304.77 305.04 312.91 298.39 315.24C281.77 321.07 257.17 306.41 243.92 296.58C219.94 278.79 198.06 254.57 186.19 227.03C181.04 215.1 177.43 198.92 187.82 188.59Z" fill="#655CAB"/>
<path d="M264.51 185.46C258.29 186.01 257.44 177 263.82 176.55C292.78 174.49 315.52 197.25 312.91 226.23C312.83 227.03 312.34 227.79 311.99 228.5C311.843 228.807 311.623 229.043 311.33 229.21C307.46 231.41 303.82 229.11 304.08 224.69C305.44 201.46 287.75 183.41 264.51 185.46Z" fill="#655CAB"/>
<path d="M267.7 203.15C262.87 202.86 261.79 196.01 266.52 194.51C267.34 194.243 268.983 194.307 271.45 194.7C284.47 196.76 296.46 207.67 294.95 221.95C294.9 222.418 294.745 222.867 294.497 223.266C294.25 223.664 293.916 224 293.52 224.25C289.43 226.81 286.77 224.3 286.24 220.15C284.91 209.77 278.23 203.79 267.7 203.15Z" fill="#655CAB"/>
</g>
<defs>
<clipPath id="clip0_32_68">
<rect width="512" height="512" fill="white"/>
</clipPath>
</defs>
</svg>
