<svg width="512" height="512" viewBox="0 0 512 512" fill="none" xmlns="http://www.w3.org/2000/svg">
<g clip-path="url(#clip0_32_89)">
<path d="M67.31 0C29.86 2.93 2.04 29.22 0 67.19" stroke="#28A71A" stroke-width="2"/>
<path d="M444.56 0C482.02 2.34 510.1 29.83 512 67.31" stroke="#28A71A" stroke-width="2"/>
<path d="M512 443.81C510.66 481.74 481.97 509.95 444.19 512" stroke="#28A71A" stroke-width="2"/>
<path d="M68.44 512C30.34 510.18 1.25 481.93 0 443.69" stroke="#28A71A" stroke-width="2"/>
<path d="M97.89 408.28C96.81 413.59 101.01 416.76 106.06 415.58C132.293 409.407 158.38 403.24 184.32 397.08C185.006 396.918 185.723 396.996 186.35 397.3C212.61 409.893 240.097 415.06 268.81 412.8C361.49 405.52 428.65 319.01 412.23 227C396.35 137.96 308.69 79.4 219.99 100.25C119.99 123.75 68.47 234.1 114.34 326.04C114.487 326.34 114.527 326.653 114.46 326.98C108.96 354.073 103.437 381.173 97.89 408.28Z" stroke="#28A71A" stroke-width="2"/>
<path d="M191.08 361.03C199.693 365.563 207.167 368.987 213.5 371.3C298.3 402.31 386.52 335.03 379.84 245.19C375.71 189.6 334.35 143.49 280.19 132.84C180.34 113.21 100.74 215 143.71 307.41C145.917 312.163 148.18 316.873 150.5 321.54C150.636 321.812 150.675 322.119 150.61 322.41L140.54 371.46C140.53 371.513 140.534 371.567 140.55 371.618C140.567 371.668 140.595 371.714 140.634 371.751C140.673 371.788 140.72 371.814 140.772 371.828C140.824 371.842 140.878 371.843 140.93 371.83C156.417 368.17 171.833 364.527 187.18 360.9C188.82 360.51 189.47 360.19 191.08 361.03Z" stroke="#28A71A" stroke-width="2"/>
<path d="M215.74 188.47C211.28 178.57 204.33 174.37 194.84 182.34C186.9 189.01 179.28 198.36 177.02 208.43C172.59 228.18 183.39 252.11 195.21 267.28C219.76 298.77 260.77 334.57 304 331.5C320.22 330.35 331.55 319.62 339.49 306.01C343.6 298.97 339.72 291.04 332.16 288.88C322.42 286.1 312.683 283.313 302.95 280.52C293.99 277.95 289.72 284.75 284.3 290.08C276.95 297.31 270.59 293.85 262.76 288.81C246.53 278.38 231.58 264.26 220.22 250.05C209.66 236.83 225.4 231.69 227.75 221.26C228.72 216.94 227.22 214.45 225.04 209.45C221.987 202.443 218.887 195.45 215.74 188.47Z" stroke="#28A71A" stroke-width="2"/>
<path d="M67.31 0H444.56C482.02 2.34 510.1 29.83 512 67.31V443.81C510.66 481.74 481.97 509.95 444.19 512H68.44C30.34 510.18 1.25 481.93 0 443.69V67.19C2.04 29.22 29.86 2.93 67.31 0ZM97.89 408.28C96.81 413.59 101.01 416.76 106.06 415.58C132.293 409.407 158.38 403.24 184.32 397.08C185.006 396.918 185.723 396.996 186.35 397.3C212.61 409.893 240.097 415.06 268.81 412.8C361.49 405.52 428.65 319.01 412.23 227C396.35 137.96 308.69 79.4 219.99 100.25C119.99 123.75 68.47 234.1 114.34 326.04C114.487 326.34 114.527 326.653 114.46 326.98C108.96 354.073 103.437 381.173 97.89 408.28Z" fill="#28A71A"/>
<path d="M106.06 415.58C101.01 416.76 96.81 413.59 97.89 408.28C103.437 381.173 108.96 354.073 114.46 326.98C114.527 326.653 114.487 326.34 114.34 326.04C68.47 234.1 119.99 123.75 219.99 100.25C308.69 79.4 396.35 137.96 412.23 227C428.65 319.01 361.49 405.52 268.81 412.8C240.097 415.06 212.61 409.893 186.35 397.3C185.723 396.996 185.006 396.918 184.32 397.08C158.38 403.24 132.293 409.407 106.06 415.58ZM191.08 361.03C199.693 365.563 207.167 368.987 213.5 371.3C298.3 402.31 386.52 335.03 379.84 245.19C375.71 189.6 334.35 143.49 280.19 132.84C180.34 113.21 100.74 215 143.71 307.41C145.917 312.163 148.18 316.873 150.5 321.54C150.636 321.812 150.675 322.119 150.61 322.41L140.54 371.46C140.53 371.512 140.534 371.567 140.55 371.618C140.567 371.668 140.595 371.714 140.634 371.751C140.673 371.788 140.72 371.814 140.772 371.828C140.824 371.842 140.878 371.843 140.93 371.83C156.417 368.17 171.833 364.527 187.18 360.9C188.82 360.51 189.47 360.19 191.08 361.03Z" fill="white"/>
<path d="M191.08 361.03C189.47 360.19 188.82 360.51 187.18 360.9C171.833 364.527 156.417 368.17 140.93 371.83C140.878 371.843 140.824 371.842 140.772 371.828C140.72 371.814 140.673 371.788 140.634 371.751C140.595 371.714 140.567 371.668 140.55 371.618C140.534 371.567 140.53 371.513 140.54 371.46L150.61 322.41C150.675 322.119 150.636 321.812 150.5 321.54C148.18 316.873 145.917 312.163 143.71 307.41C100.74 215 180.34 113.21 280.19 132.84C334.35 143.49 375.71 189.6 379.84 245.19C386.52 335.03 298.3 402.31 213.5 371.3C207.167 368.987 199.693 365.563 191.08 361.03ZM215.74 188.47C211.28 178.57 204.33 174.37 194.84 182.34C186.9 189.01 179.28 198.36 177.02 208.43C172.59 228.18 183.39 252.11 195.21 267.28C219.76 298.77 260.77 334.57 304 331.5C320.22 330.35 331.55 319.62 339.49 306.01C343.6 298.97 339.72 291.04 332.16 288.88C322.42 286.1 312.683 283.313 302.95 280.52C293.99 277.95 289.72 284.75 284.3 290.08C276.95 297.31 270.59 293.85 262.76 288.81C246.53 278.38 231.58 264.26 220.22 250.05C209.66 236.83 225.4 231.69 227.75 221.26C228.72 216.94 227.22 214.45 225.04 209.45C221.987 202.443 218.887 195.45 215.74 188.47Z" fill="#28A71A"/>
<path d="M194.84 182.34C204.33 174.37 211.28 178.57 215.74 188.47C218.887 195.45 221.987 202.443 225.04 209.45C227.22 214.45 228.72 216.94 227.75 221.26C225.4 231.69 209.66 236.83 220.22 250.05C231.58 264.26 246.53 278.38 262.76 288.81C270.59 293.85 276.95 297.31 284.3 290.08C289.72 284.75 293.99 277.95 302.95 280.52C312.683 283.313 322.42 286.1 332.16 288.88C339.72 291.04 343.6 298.97 339.49 306.01C331.55 319.62 320.22 330.35 304 331.5C260.77 334.57 219.76 298.77 195.21 267.28C183.39 252.11 172.59 228.18 177.02 208.43C179.28 198.36 186.9 189.01 194.84 182.34Z" fill="white"/>
</g>
<defs>
<clipPath id="clip0_32_89">
<rect width="512" height="512" fill="white"/>
</clipPath>
</defs>
</svg>
