<svg width="149" height="26" viewBox="0 0 149 26" fill="none" xmlns="http://www.w3.org/2000/svg">
<g id="payment">
<g id="mastercard-2-logo-svgrepo-com 1">
<path id="Vector" d="M26.4245 23.22H15.176V2.77905H26.4247L26.4245 23.22Z" fill="#FF5F00"/>
<path id="Vector_2" d="M15.8892 13C15.8892 8.85356 17.8092 5.15988 20.7991 2.77952C18.5359 0.975054 15.7367 -0.00429191 12.8547 1.41393e-05C5.75506 1.41393e-05 0 5.82022 0 13C0 20.1798 5.75506 26 12.8547 26C15.7368 26.0043 18.5361 25.025 20.7993 23.2205C17.8096 20.8405 15.8892 17.1467 15.8892 13Z" fill="#EB001B"/>
<path id="Vector_3" d="M41.6001 13C41.6001 20.1798 35.845 26 28.7454 26C25.8629 26.0043 23.0634 25.0249 20.7997 23.2205C23.7904 20.8401 25.7104 17.1467 25.7104 13C25.7104 8.85335 23.7904 5.15988 20.7997 2.77952C23.0633 0.975108 25.8628 -0.00421643 28.7452 1.36461e-05C35.8448 1.36461e-05 41.5999 5.82022 41.5999 13" fill="#F79E1B"/>
</g>
<g id="visa">
<g id="Group">
<path id="Vector_4" d="M102.541 25.5666H95.964L100.074 0.44882H106.652L102.541 25.5666ZM90.4312 0.44882L84.1612 17.725L83.4193 14.0048L83.42 14.0061L81.207 2.71039C81.207 2.71039 80.9394 0.44882 78.0872 0.44882H67.7216L67.6 0.874124C67.6 0.874124 70.7698 1.52988 74.4795 3.74509L80.1934 25.5673H87.0459L97.5094 0.44882H90.4312ZM142.161 25.5666H148.2L142.935 0.448148H137.648C135.207 0.448148 134.612 2.32002 134.612 2.32002L124.803 25.5666H131.659L133.03 21.8356H141.391L142.161 25.5666ZM134.924 16.6816L138.38 7.28191L140.324 16.6816H134.924ZM125.317 6.48908L126.256 1.09517C126.256 1.09517 123.36 0 120.341 0C117.077 0 109.326 1.41835 109.326 8.31527C109.326 14.8044 118.423 14.885 118.423 18.2935C118.423 21.7019 110.264 21.0912 107.571 18.9418L106.593 24.5816C106.593 24.5816 109.53 26 114.017 26C118.505 26 125.275 23.6894 125.275 17.4005C125.275 10.8698 116.097 10.2617 116.097 7.42233C116.098 4.58227 122.503 4.9471 125.317 6.48908Z" fill="white"/>
</g>
<path id="Vector_5" d="M83.42 14.0054L81.207 2.70969C81.207 2.70969 80.9394 0.44812 78.0872 0.44812H67.7216L67.6 0.873424C67.6 0.873424 72.5821 1.90007 77.3608 5.74662C81.93 9.42318 83.42 14.0054 83.42 14.0054Z" fill="#E6A540"/>
</g>
</g>
</svg>
