<svg width="25" height="24" viewBox="0 0 25 24" fill="none" xmlns="http://www.w3.org/2000/svg">
<g id="Frame">
<path id="Vector" d="M22.8101 8V9H2.81006V8C2.81006 7.20435 3.12613 6.44129 3.68874 5.87868C4.25135 5.31607 5.01441 5 5.81006 5H6.81006V4C6.81006 3.73478 6.91542 3.48043 7.10295 3.29289C7.29049 3.10536 7.54484 3 7.81006 3C8.07527 3 8.32963 3.10536 8.51717 3.29289C8.7047 3.48043 8.81006 3.73478 8.81006 4V5H16.8101V4C16.8101 3.73478 16.9154 3.48043 17.103 3.29289C17.2905 3.10536 17.5448 3 17.8101 3C18.0753 3 18.3296 3.10536 18.5172 3.29289C18.7047 3.48043 18.8101 3.73478 18.8101 4V5H19.8101C20.6057 5 21.3688 5.31607 21.9314 5.87868C22.494 6.44129 22.8101 7.20435 22.8101 8ZM2.81006 11H22.8101V18C22.8101 18.7956 22.494 19.5587 21.9314 20.1213C21.3688 20.6839 20.6057 21 19.8101 21H5.81006C5.01441 21 4.25135 20.6839 3.68874 20.1213C3.12613 19.5587 2.81006 18.7956 2.81006 18V11ZM16.8101 13.5C16.8101 13.7652 16.9154 14.0196 17.103 14.2071C17.2905 14.3946 17.5448 14.5 17.8101 14.5C18.0753 14.5 18.3296 14.3946 18.5172 14.2071C18.7047 14.0196 18.8101 13.7652 18.8101 13.5C18.8101 13.2348 18.7047 12.9804 18.5172 12.7929C18.3296 12.6054 18.0753 12.5 17.8101 12.5C17.5448 12.5 17.2905 12.6054 17.103 12.7929C16.9154 12.9804 16.8101 13.2348 16.8101 13.5ZM11.8101 13.5C11.8101 13.7652 11.9154 14.0196 12.103 14.2071C12.2905 14.3946 12.5448 14.5 12.8101 14.5C13.0753 14.5 13.3296 14.3946 13.5172 14.2071C13.7047 14.0196 13.8101 13.7652 13.8101 13.5C13.8101 13.2348 13.7047 12.9804 13.5172 12.7929C13.3296 12.6054 13.0753 12.5 12.8101 12.5C12.5448 12.5 12.2905 12.6054 12.103 12.7929C11.9154 12.9804 11.8101 13.2348 11.8101 13.5ZM11.8101 16.5C11.8101 16.7652 11.9154 17.0196 12.103 17.2071C12.2905 17.3946 12.5448 17.5 12.8101 17.5C13.0753 17.5 13.3296 17.3946 13.5172 17.2071C13.7047 17.0196 13.8101 16.7652 13.8101 16.5C13.8101 16.2348 13.7047 15.9804 13.5172 15.7929C13.3296 15.6054 13.0753 15.5 12.8101 15.5C12.5448 15.5 12.2905 15.6054 12.103 15.7929C11.9154 15.9804 11.8101 16.2348 11.8101 16.5ZM6.81006 13.5C6.81006 13.7652 6.91542 14.0196 7.10295 14.2071C7.29049 14.3946 7.54484 14.5 7.81006 14.5C8.07527 14.5 8.32963 14.3946 8.51717 14.2071C8.7047 14.0196 8.81006 13.7652 8.81006 13.5C8.81006 13.2348 8.7047 12.9804 8.51717 12.7929C8.32963 12.6054 8.07527 12.5 7.81006 12.5C7.54484 12.5 7.29049 12.6054 7.10295 12.7929C6.91542 12.9804 6.81006 13.2348 6.81006 13.5ZM6.81006 16.5C6.81006 16.7652 6.91542 17.0196 7.10295 17.2071C7.29049 17.3946 7.54484 17.5 7.81006 17.5C8.07527 17.5 8.32963 17.3946 8.51717 17.2071C8.7047 17.0196 8.81006 16.7652 8.81006 16.5C8.81006 16.2348 8.7047 15.9804 8.51717 15.7929C8.32963 15.6054 8.07527 15.5 7.81006 15.5C7.54484 15.5 7.29049 15.6054 7.10295 15.7929C6.91542 15.9804 6.81006 16.2348 6.81006 16.5Z" fill="#8B8B8B"/>
</g>
</svg>
