<svg width="14" height="8" viewBox="0 0 14 8" fill="none" xmlns="http://www.w3.org/2000/svg">
<path id="Vector" d="M13.6801 0.300009C13.4927 0.113758 13.2393 0.00921631 12.9751 0.00921631C12.7109 0.00921631 12.4575 0.113758 12.2701 0.300009L6.9901 5.58001L1.7301 0.310009C1.54317 0.126782 1.29185 0.0241518 1.0301 0.0241518C0.768347 0.0241518 0.517028 0.126782 0.330099 0.310009C0.143848 0.497371 0.0393066 0.750823 0.0393066 1.01501C0.0393066 1.27919 0.143848 1.53265 0.330099 1.72001L6.2901 7.71001C6.47746 7.89626 6.73091 8.0008 6.9951 8.0008C7.25928 8.0008 7.51274 7.89626 7.7001 7.71001L13.6801 1.71001C13.7738 1.61705 13.8482 1.50644 13.899 1.38459C13.9498 1.26273 13.9759 1.13202 13.9759 1.00001C13.9759 0.867997 13.9498 0.737291 13.899 0.615432C13.8482 0.493573 13.7738 0.382972 13.6801 0.290009V0.300009Z" fill="#8B8B8B"/>
</svg>
