<svg width="18" height="18" viewBox="0 0 18 18" fill="none" xmlns="http://www.w3.org/2000/svg">
<path d="M0.666676 4.8333C0.666671 4.72317 0.688499 4.61412 0.730898 4.51247C0.773297 4.41081 0.835426 4.31858 0.913693 4.24108C0.99196 4.16359 1.08481 4.10238 1.18688 4.061C1.28895 4.01961 1.39821 3.99887 1.50834 3.99997H14.4917L12.5833 2.0833C12.4479 1.92293 12.3779 1.71734 12.3875 1.50762C12.397 1.2979 12.4854 1.09952 12.6349 0.952133C12.7844 0.804744 12.984 0.71921 13.1938 0.712629C13.4037 0.706048 13.6082 0.778907 13.7667 0.916638L17.0917 4.24164C17.2469 4.39777 17.334 4.60898 17.334 4.82914C17.334 5.04929 17.2469 5.2605 17.0917 5.41664L13.7583 8.74997C13.6025 8.90689 13.3908 8.99549 13.1696 8.99627C12.9485 8.99705 12.7361 8.90995 12.5792 8.75414C12.4223 8.59832 12.3337 8.38655 12.3329 8.16542C12.3321 7.94428 12.4192 7.73189 12.575 7.57497L14.4833 5.6583H1.50834C1.39891 5.6594 1.29033 5.63894 1.1888 5.59807C1.08727 5.55721 0.994792 5.49674 0.916634 5.42013C0.838477 5.34352 0.776176 5.25227 0.733288 5.15158C0.6904 5.05089 0.667765 4.94274 0.666676 4.8333ZM16.4917 12.3333H3.51668L5.42501 10.4166C5.56048 10.2563 5.63043 10.0507 5.62087 9.84095C5.61132 9.63124 5.52296 9.43286 5.37346 9.28547C5.22397 9.13808 5.02435 9.05254 4.81452 9.04596C4.60469 9.03938 4.40011 9.11224 4.24168 9.24997L0.908343 12.5833C0.753134 12.7394 0.666016 12.9506 0.666016 13.1708C0.666016 13.391 0.753134 13.6022 0.908343 13.7583L4.24168 17.0916C4.31701 17.1783 4.40944 17.2485 4.51318 17.2977C4.61691 17.347 4.7297 17.3742 4.84447 17.3778C4.95924 17.3814 5.07352 17.3613 5.18013 17.3186C5.28674 17.276 5.38339 17.2117 5.46401 17.13C5.54463 17.0482 5.60748 16.9507 5.64861 16.8434C5.68975 16.7362 5.70829 16.6217 5.70306 16.507C5.69783 16.3923 5.66896 16.2799 5.61824 16.1769C5.56752 16.0738 5.49606 15.9824 5.40834 15.9083L3.50834 13.9916H16.4917C16.7127 13.9916 16.9247 13.9038 17.0809 13.7476C17.2372 13.5913 17.325 13.3793 17.325 13.1583C17.325 12.9373 17.2372 12.7253 17.0809 12.569C16.9247 12.4128 16.7127 12.325 16.4917 12.325V12.3333Z" fill="#8B8B8B"/>
</svg>
