<svg width="26" height="27" viewBox="0 0 26 27" fill="none" xmlns="http://www.w3.org/2000/svg">
<path d="M16.2719 24.8953V18.2725C16.2719 17.9798 16.157 17.699 15.9524 17.492C15.7478 17.285 15.4703 17.1687 15.181 17.1687H10.8174C10.5281 17.1687 10.2506 17.285 10.046 17.492C9.84141 17.699 9.72647 17.9798 9.72647 18.2725V24.8953C9.72647 25.1881 9.61156 25.4688 9.407 25.6758C9.20245 25.8828 8.925 25.9991 8.6357 25.9991L2.09105 26C1.94777 26 1.8059 25.9715 1.67353 25.916C1.54116 25.8606 1.42088 25.7792 1.31957 25.6768C1.21825 25.5743 1.13789 25.4526 1.08305 25.3186C1.02822 25.1847 1 25.0412 1 24.8962V12.1392C1 11.9854 1.03176 11.8333 1.09324 11.6927C1.15472 11.5521 1.24456 11.426 1.35702 11.3225L12.2654 1.28711C12.4662 1.10238 12.7278 1.00001 12.9992 1C13.2706 0.999991 13.5323 1.10234 13.7331 1.28706L24.6429 11.3225C24.7554 11.426 24.8453 11.5521 24.9067 11.6927C24.9682 11.8334 25 11.9855 25 12.1392V24.8962C25 25.0412 24.9718 25.1847 24.9169 25.3186C24.8621 25.4526 24.7817 25.5743 24.6804 25.6768C24.5791 25.7793 24.4588 25.8606 24.3265 25.916C24.1941 25.9715 24.0522 26 23.909 26L17.3627 25.9991C17.0734 25.9991 16.796 25.8828 16.5914 25.6758C16.3868 25.4688 16.2719 25.1881 16.2719 24.8953V24.8953Z" stroke="#353535" stroke-linecap="round" stroke-linejoin="round"/>
</svg>
