<svg width="20" height="20" viewBox="0 0 20 20" fill="none" xmlns="http://www.w3.org/2000/svg">
<path fill-rule="evenodd" clip-rule="evenodd" d="M10 17.5L10.59 18.0883C10.5126 18.1661 10.4206 18.2277 10.3193 18.2698C10.2179 18.3119 10.1093 18.3336 9.99959 18.3336C9.88988 18.3336 9.78125 18.3119 9.67993 18.2698C9.57861 18.2277 9.4866 18.1661 9.40918 18.0883L9.40418 18.0825L9.39001 18.0683L9.33834 18.0158C9.04458 17.7132 8.75566 17.406 8.47168 17.0942C7.75868 16.3129 7.07595 15.5045 6.42501 14.6708C5.68168 13.7125 4.92168 12.6292 4.34418 11.5592C3.77918 10.51 3.33334 9.37333 3.33334 8.33333C3.33334 4.55083 6.32668 1.66667 10 1.66667C13.6733 1.66667 16.6667 4.55083 16.6667 8.33333C16.6667 9.37333 16.2208 10.51 15.6558 11.5583C15.0783 12.63 14.3192 13.7125 13.575 14.6708C12.6645 15.8372 11.692 16.9538 10.6617 18.0158L10.61 18.0683L10.5958 18.0825L10.5908 18.0875L10 17.5ZM10 10.8333C10.6631 10.8333 11.2989 10.5699 11.7678 10.1011C12.2366 9.63226 12.5 8.99638 12.5 8.33333C12.5 7.67029 12.2366 7.03441 11.7678 6.56557C11.2989 6.09673 10.6631 5.83333 10 5.83333C9.33697 5.83333 8.70108 6.09673 8.23224 6.56557C7.7634 7.03441 7.50001 7.67029 7.50001 8.33333C7.50001 8.99638 7.7634 9.63226 8.23224 10.1011C8.70108 10.5699 9.33697 10.8333 10 10.8333Z" fill="#FFCB46"/>
</svg>
