<svg width="20" height="20" viewBox="0 0 20 20" fill="none" xmlns="http://www.w3.org/2000/svg">
<path d="M7.12912 3.53858C7.12912 3.39574 7.07237 3.25875 6.97137 3.15775C6.87037 3.05674 6.73338 3 6.59054 3C6.4477 3 6.31071 3.05674 6.2097 3.15775C6.1087 3.25875 6.05196 3.39574 6.05196 3.53858V4.67319C5.01788 4.75577 4.33999 4.95828 3.84162 5.45736C3.34254 5.95573 3.14003 6.63434 3.05673 7.6677H17.3054C17.2221 6.63362 17.0196 5.95573 16.5205 5.45736C16.0222 4.95828 15.3435 4.75577 14.3102 4.67247V3.53858C14.3102 3.39574 14.2534 3.25875 14.1524 3.15775C14.0514 3.05674 13.9144 3 13.7716 3C13.6288 3 13.4918 3.05674 13.3908 3.15775C13.2898 3.25875 13.233 3.39574 13.233 3.53858V4.62508C12.7555 4.61574 12.2198 4.61574 11.6173 4.61574H8.74486C8.14237 4.61574 7.60666 4.61574 7.12912 4.62508V3.53858Z" fill="#FFCB46"/>
<path fill-rule="evenodd" clip-rule="evenodd" d="M3 10.3606C3 9.75811 3 9.2224 3.00934 8.74486H17.3528C17.3621 9.2224 17.3621 9.75811 17.3621 10.3606V11.7968C17.3621 14.5048 17.3621 15.8591 16.5205 16.7C15.6796 17.5417 14.3253 17.5417 11.6173 17.5417H8.74486C6.03688 17.5417 4.68253 17.5417 3.84162 16.7C3 15.8591 3 14.5048 3 11.7968V10.3606ZM13.7716 11.7968C13.9621 11.7968 14.1447 11.7212 14.2794 11.5865C14.4141 11.4518 14.4897 11.2692 14.4897 11.0787C14.4897 10.8883 14.4141 10.7056 14.2794 10.5709C14.1447 10.4363 13.9621 10.3606 13.7716 10.3606C13.5812 10.3606 13.3985 10.4363 13.2638 10.5709C13.1292 10.7056 13.0535 10.8883 13.0535 11.0787C13.0535 11.2692 13.1292 11.4518 13.2638 11.5865C13.3985 11.7212 13.5812 11.7968 13.7716 11.7968ZM13.7716 14.6692C13.9621 14.6692 14.1447 14.5936 14.2794 14.4589C14.4141 14.3242 14.4897 14.1416 14.4897 13.9511C14.4897 13.7607 14.4141 13.578 14.2794 13.4434C14.1447 13.3087 13.9621 13.233 13.7716 13.233C13.5812 13.233 13.3985 13.3087 13.2638 13.4434C13.1292 13.578 13.0535 13.7607 13.0535 13.9511C13.0535 14.1416 13.1292 14.3242 13.2638 14.4589C13.3985 14.5936 13.5812 14.6692 13.7716 14.6692ZM10.8992 11.0787C10.8992 11.2692 10.8235 11.4518 10.6889 11.5865C10.5542 11.7212 10.3715 11.7968 10.1811 11.7968C9.99062 11.7968 9.80797 11.7212 9.67329 11.5865C9.53862 11.4518 9.46297 11.2692 9.46297 11.0787C9.46297 10.8883 9.53862 10.7056 9.67329 10.5709C9.80797 10.4363 9.99062 10.3606 10.1811 10.3606C10.3715 10.3606 10.5542 10.4363 10.6889 10.5709C10.8235 10.7056 10.8992 10.8883 10.8992 11.0787ZM10.8992 13.9511C10.8992 14.1416 10.8235 14.3242 10.6889 14.4589C10.5542 14.5936 10.3715 14.6692 10.1811 14.6692C9.99062 14.6692 9.80797 14.5936 9.67329 14.4589C9.53862 14.3242 9.46297 14.1416 9.46297 13.9511C9.46297 13.7607 9.53862 13.578 9.67329 13.4434C9.80797 13.3087 9.99062 13.233 10.1811 13.233C10.3715 13.233 10.5542 13.3087 10.6889 13.4434C10.8235 13.578 10.8992 13.7607 10.8992 13.9511ZM6.59054 11.7968C6.78099 11.7968 6.96364 11.7212 7.09831 11.5865C7.23299 11.4518 7.30864 11.2692 7.30864 11.0787C7.30864 10.8883 7.23299 10.7056 7.09831 10.5709C6.96364 10.4363 6.78099 10.3606 6.59054 10.3606C6.40008 10.3606 6.21743 10.4363 6.08276 10.5709C5.94809 10.7056 5.87243 10.8883 5.87243 11.0787C5.87243 11.2692 5.94809 11.4518 6.08276 11.5865C6.21743 11.7212 6.40008 11.7968 6.59054 11.7968ZM6.59054 14.6692C6.78099 14.6692 6.96364 14.5936 7.09831 14.4589C7.23299 14.3242 7.30864 14.1416 7.30864 13.9511C7.30864 13.7607 7.23299 13.578 7.09831 13.4434C6.96364 13.3087 6.78099 13.233 6.59054 13.233C6.40008 13.233 6.21743 13.3087 6.08276 13.4434C5.94809 13.578 5.87243 13.7607 5.87243 13.9511C5.87243 14.1416 5.94809 14.3242 6.08276 14.4589C6.21743 14.5936 6.40008 14.6692 6.59054 14.6692Z" fill="#FFCB46"/>
</svg>
