<svg width="20" height="20" viewBox="0 0 20 20" fill="none" xmlns="http://www.w3.org/2000/svg">
<path d="M5.33333 3C4.71449 3 4.121 3.24583 3.68342 3.68342C3.24583 4.121 3 4.71449 3 5.33333L3 7.2C3 12.6124 7.3876 17 12.8 17H14.6667C15.2855 17 15.879 16.7542 16.3166 16.3166C16.7542 15.879 17 15.2855 17 14.6667V13.3768C17 13.1167 16.9275 12.8617 16.7907 12.6404C16.6538 12.4192 16.4581 12.2405 16.2253 12.1243L13.9713 10.9968C13.7919 10.9071 13.5952 10.857 13.3947 10.8499C13.1942 10.8428 12.9945 10.8789 12.8092 10.9557C12.6239 11.0326 12.4572 11.1483 12.3205 11.2952C12.1838 11.442 12.0803 11.6166 12.0169 11.8069L11.7388 12.6404C11.6876 12.7934 11.5824 12.9224 11.4429 13.0033C11.3034 13.0842 11.1391 13.1115 10.9809 13.08C9.97892 12.8796 9.05864 12.3871 8.33599 11.6646C7.61334 10.9421 7.12066 10.022 6.92 9.02C6.88849 8.86182 6.91576 8.69757 6.99668 8.55805C7.07761 8.41853 7.20665 8.31332 7.3596 8.26213L8.39467 7.9168C8.72917 7.8051 9.00919 7.57128 9.17876 7.26206C9.34833 6.95285 9.39497 6.59104 9.30933 6.24893L8.7624 4.0612C8.68687 3.75835 8.51229 3.48943 8.26642 3.29716C8.02054 3.10489 7.71746 3.00029 7.40533 3H5.33333Z" fill="#FFCB46"/>
</svg>
