<svg width="20" height="20" viewBox="0 0 20 20" fill="none" xmlns="http://www.w3.org/2000/svg">
<g clip-path="url(#clip0_48_18)">
<path d="M3.33333 0C2.44928 0 1.60143 0.351189 0.976311 0.976311C0.351189 1.60143 0 2.44928 0 3.33333L0 6C0 13.732 6.268 20 14 20H16.6667C17.5507 20 18.3986 19.6488 19.0237 19.0237C19.6488 18.3986 20 17.5507 20 16.6667V14.824C20 14.4524 19.8964 14.0881 19.701 13.7721C19.5055 13.456 19.2258 13.2007 18.8933 13.0347L15.6733 11.424C15.417 11.2958 15.1361 11.2243 14.8496 11.2141C14.5632 11.204 14.2779 11.2556 14.0131 11.3653C13.7484 11.4751 13.5103 11.6405 13.315 11.8503C13.1197 12.0601 12.9718 12.3094 12.8813 12.5813L12.484 13.772C12.4109 13.9905 12.2606 14.1748 12.0613 14.2905C11.8619 14.4061 11.6273 14.445 11.4013 14.4C9.96989 14.1137 8.65519 13.4101 7.62284 12.378C6.59049 11.3459 5.88666 10.0314 5.6 8.6C5.55499 8.37402 5.59394 8.13939 5.70955 7.94008C5.82516 7.74076 6.00949 7.59046 6.228 7.51733L7.70667 7.024C8.18452 6.86443 8.58455 6.53039 8.8268 6.08866C9.06905 5.64693 9.13567 5.13005 9.01333 4.64133L8.232 1.516C8.12409 1.08336 7.8747 0.699182 7.52345 0.424509C7.1722 0.149836 6.73923 0.000420492 6.29333 0L3.33333 0Z" fill="#FFCB46"/>
</g>
<defs>
<clipPath id="clip0_48_18">
<rect width="20" height="20" fill="white"/>
</clipPath>
</defs>
</svg>
