<svg width="20" height="20" viewBox="0 0 20 20" fill="none" xmlns="http://www.w3.org/2000/svg">
<path d="M10 1.66667C6.66668 1.66667 3.33334 2.08334 3.33334 5.00001V12.9167C3.33334 14.525 4.64168 15.8333 6.25001 15.8333L5.00001 16.6667V17.5H15V16.6667L13.75 15.8333C15.3583 15.8333 16.6667 14.525 16.6667 12.9167V5.00001C16.6667 2.08334 13.6833 1.66667 10 1.66667ZM7.08334 13.3333C6.39168 13.3333 5.83334 12.775 5.83334 12.0833C5.83334 11.3917 6.39168 10.8333 7.08334 10.8333C7.77501 10.8333 8.33334 11.3917 8.33334 12.0833C8.33334 12.775 7.77501 13.3333 7.08334 13.3333ZM9.16668 8.33334H5.00001V5.83334H9.16668V8.33334ZM12.9167 13.3333C12.225 13.3333 11.6667 12.775 11.6667 12.0833C11.6667 11.3917 12.225 10.8333 12.9167 10.8333C13.6083 10.8333 14.1667 11.3917 14.1667 12.0833C14.1667 12.775 13.6083 13.3333 12.9167 13.3333ZM15 8.33334H10.8333V5.83334H15V8.33334Z" fill="#FFCB46"/>
</svg>
