<svg width="20" height="20" viewBox="0 0 20 20" fill="none" xmlns="http://www.w3.org/2000/svg">
<path d="M15.8333 6.66667H4.16667C2.78334 6.66667 1.66667 7.78333 1.66667 9.16667V12.5C1.66667 13.4167 2.41667 14.1667 3.33334 14.1667H5.00001V15.8333C5.00001 16.75 5.75 17.5 6.66667 17.5H13.3333C14.25 17.5 15 16.75 15 15.8333V14.1667H16.6667C17.5833 14.1667 18.3333 13.4167 18.3333 12.5V9.16667C18.3333 7.78333 17.2167 6.66667 15.8333 6.66667ZM12.5 15.8333H7.5C7.04167 15.8333 6.66667 15.4583 6.66667 15V11.6667H13.3333V15C13.3333 15.4583 12.9583 15.8333 12.5 15.8333ZM15.8333 10C15.375 10 15 9.625 15 9.16667C15 8.70833 15.375 8.33333 15.8333 8.33333C16.2917 8.33333 16.6667 8.70833 16.6667 9.16667C16.6667 9.625 16.2917 10 15.8333 10ZM14.1667 2.5H5.83334C5.375 2.5 5.00001 2.875 5.00001 3.33333V5C5.00001 5.45833 5.375 5.83333 5.83334 5.83333H14.1667C14.625 5.83333 15 5.45833 15 5V3.33333C15 2.875 14.625 2.5 14.1667 2.5Z" fill="white"/>
</svg>
