<svg width="20" height="20" viewBox="0 0 20 20" fill="none" xmlns="http://www.w3.org/2000/svg">
<g clip-path="url(#clip0_36_115)">
<path d="M17.4092 1.67167L17.4975 1.66667L17.6058 1.67334L17.6808 1.68667L17.7833 1.71584L17.8725 1.75417L17.9558 1.80167L18.0308 1.85751L18.0992 1.92L18.1425 1.96917L18.2108 2.06584L18.2542 2.14584C18.2933 2.22917 18.3183 2.31751 18.3292 2.40917L18.3333 2.4975C18.3333 2.56 18.3267 2.62167 18.3133 2.68084L18.2842 2.78334L12.8408 17.8475C12.7376 18.0721 12.5722 18.2624 12.364 18.3958C12.1559 18.5292 11.9139 18.6001 11.6667 18.6C11.444 18.6007 11.225 18.5437 11.0309 18.4347C10.8368 18.3256 10.6743 18.1681 10.5592 17.9775L10.505 17.8717L7.71166 12.2867L2.15333 9.50667C1.94766 9.41261 1.7703 9.2662 1.63897 9.08208C1.50765 8.89796 1.42696 8.68259 1.40499 8.4575L1.39999 8.33334C1.39999 7.86667 1.65083 7.44 2.10083 7.19167L2.21749 7.13334L17.2317 1.71167L17.32 1.68667L17.4092 1.67167Z" fill="#FFCB46"/>
</g>
<defs>
<clipPath id="clip0_36_115">
<rect width="20" height="20" fill="white"/>
</clipPath>
</defs>
</svg>
